<svg width="135" height="120" viewBox="0 0 135 120" fill="none" xmlns="http://www.w3.org/2000/svg"> <path d="M67.5 45C67.5 43.6193 68.6193 42.5 70 42.5C71.3807 42.5 72.5 43.6193 72.5 45V60C72.5 61.3807 71.3807 62.5 70 62.5C68.6193 62.5 67.5 61.3807 67.5 60V45Z" fill="#002755"/> <circle cx="70" cy="40" r="9.24383" fill="#002755" stroke="#002755" stroke-width="1.51235"/> <path d="M22.5 75C22.5 65.335 30.335 57.5 40 57.5H100C109.665 57.5 117.5 65.335 117.5 75V100C117.5 109.665 109.665 117.5 100 117.5H40C30.335 117.5 22.5 109.665 22.5 100V75Z" fill="#A4CDFF" stroke="#002755" stroke-width="5"/> <path d="M40.5469 74.3215C42.8389 71.6745 46.224 70 50.0003 70C53.7765 70 57.1617 71.6745 59.4537 74.3215" stroke="#002755" stroke-width="5" stroke-linecap="round"/> <path d="M80 74.3215C82.292 71.6745 85.6772 70 89.4534 70C93.2297 70 96.6148 71.6745 98.9068 74.3215" stroke="#002755" stroke-width="5" stroke-linecap="round"/> <path fill-rule="evenodd" clip-rule="evenodd" d="M95 115H100C108.284 115 115 108.284 115 100V75C115 66.7157 108.284 60 100 60H95C103.284 60 110 66.7157 110 75V100C110 108.284 103.284 115 95 115Z" fill="#80B9FF"/> <path d="M20.7562 75C20.7562 64.3719 29.3719 55.7562 40 55.7562H100C110.628 55.7562 119.244 64.3719 119.244 75V100C119.244 110.628 110.628 119.244 100 119.244H40C29.3719 119.244 20.7562 110.628 20.7562 100V75Z" stroke="#002755" stroke-width="1.51235"/> <path d="M129.244 95C129.244 97.3438 127.344 99.2438 125 99.2438L120.756 99.2438L120.756 75.7562L125 75.7562C127.344 75.7562 129.244 77.6562 129.244 80L129.244 95Z" fill="#002755" stroke="#002755" stroke-width="1.51235"/> <path d="M19.2438 99.2438L15 99.2438C12.6562 99.2438 10.7562 97.3438 10.7562 95L10.7562 80C10.7562 77.6562 12.6562 75.7562 15 75.7562L19.2438 75.7562L19.2438 99.2438Z" fill="#002755" stroke="#002755" stroke-width="1.51235"/> <path d="M51.204 96.2771C55.6069 101.593 62.3904 105 70 105C77.6097 105 84.3932 101.593 88.796 96.2771C91.0409 93.5665 88.7003 90 85.1808 90H54.8192C51.2997 90 48.9591 93.5665 51.204 96.2771Z" fill="#002755" stroke="#002755" stroke-width="5" stroke-linecap="round" stroke-linejoin="round"/> <path d="M66.0043 7.76389C66.3045 6.0054 68.2971 5.11825 69.8048 6.07177L77.9239 11.2064C79.6115 12.2737 79.4286 14.7911 77.6045 15.6032L67.8685 19.938C66.0444 20.7501 64.0512 19.2016 64.3873 17.2333L66.0043 7.76389Z" fill="#00D68F"/> <path d="M30.028 21.7396C31.0413 21.5092 33.4075 21.2105 35.1023 23.3938C36.7971 25.5771 35.6275 26.8506 37.307 29.0187C38.9865 31.1867 41.409 30.7888 42.3446 30.6362" stroke="#FFAA00" stroke-width="5" stroke-linecap="round"/> <path d="M30.028 21.7396C31.0413 21.5092 33.4075 21.2105 35.1023 23.3938C36.7971 25.5771 35.6275 26.8506 37.307 29.0187C38.9865 31.1867 41.409 30.7888 42.3446 30.6362" stroke="white" stroke-opacity="0.2" stroke-width="5" stroke-linecap="round"/> <path d="M115.028 43.1334C116.041 43.3638 118.408 43.6625 120.102 41.4792C121.797 39.2959 120.628 38.0224 122.307 35.8544C123.986 33.6864 126.409 34.0843 127.345 34.2369" stroke="#0095FF" stroke-width="5" stroke-linecap="round"/> <path d="M115.028 43.1334C116.041 43.3638 118.408 43.6625 120.102 41.4792C121.797 39.2959 120.628 38.0224 122.307 35.8544C123.986 33.6864 126.409 34.0843 127.345 34.2369" stroke="white" stroke-opacity="0.3" stroke-width="5" stroke-linecap="round"/> <rect x="95" y="17.5" width="15" height="15" rx="2.5" transform="rotate(30 95 17.5)" fill="#BB6BD9"/> <rect x="95" y="17.5" width="15" height="15" rx="2.5" transform="rotate(30 95 17.5)" fill="white" fill-opacity="0.2"/> <circle cx="130" cy="62.5" r="5" fill="#FF3D71"/> <circle cx="92.5" cy="45" r="2.5" fill="#FFAA00"/> <circle cx="92.5" cy="45" r="2.5" fill="white" fill-opacity="0.2"/> <circle cx="50" cy="15" r="2.5" fill="#FF3D71"/> <circle cx="32.5" cy="45" r="2.5" fill="#00D68F"/> <circle cx="10" cy="50" r="7.5" stroke="#0095FF" stroke-width="5"/> <circle cx="10" cy="50" r="7.5" stroke="white" stroke-opacity="0.3" stroke-width="5"/> </svg>
