<svg width="326" height="369" viewBox="0 0 326 369" fill="none" xmlns="http://www.w3.org/2000/svg">
<g opacity="0.8">
<path d="M191.971 279.901C187.814 282.376 186.45 287.752 188.925 291.909C194.91 301.961 206.366 316.287 219.793 327.345C226.529 332.893 234.069 337.876 241.955 340.999C249.849 344.125 258.616 345.585 267.331 343.25C275.421 341.083 281.77 336.785 285.856 330.608C289.879 324.526 291.177 317.431 290.745 310.498C289.895 296.871 282.343 282.282 271.54 271.004C268.194 267.511 262.649 267.392 259.155 270.738C255.662 274.084 255.542 279.629 258.889 283.123C267.671 292.292 272.735 303.165 273.26 311.588C273.515 315.683 272.688 318.76 271.244 320.943C269.863 323.031 267.401 325.095 262.797 326.328C258.821 327.393 254.04 326.943 248.406 324.711C242.765 322.477 236.8 318.657 230.93 313.822C219.145 304.116 208.987 291.36 203.978 282.947C201.503 278.79 196.127 277.426 191.971 279.901Z" fill="#A4CDFF" stroke="#002755" stroke-width="1.94654" stroke-linecap="round" stroke-linejoin="round"/>
<path fill-rule="evenodd" clip-rule="evenodd" d="M271.992 316.535C272.287 315.135 272.405 313.513 272.289 311.648C271.782 303.513 266.857 292.846 258.187 283.795C254.469 279.913 254.601 273.752 258.483 270.034C258.667 269.857 258.857 269.689 259.051 269.53C258.576 272.444 259.428 275.538 261.628 277.835C270.298 286.886 275.224 297.553 275.731 305.688C275.976 309.623 275.176 312.477 273.875 314.445C273.411 315.145 272.804 315.857 271.992 316.535ZM289.15 326.548C288.47 328.126 287.648 329.663 286.668 331.144C282.432 337.549 275.867 341.97 267.584 344.189C258.605 346.595 249.617 345.079 241.598 341.903C233.587 338.73 225.959 333.683 219.175 328.095C205.657 316.962 194.129 302.549 188.09 292.405C185.59 288.208 186.614 282.891 190.289 279.893C189.93 282.077 190.31 284.395 191.531 286.445C197.57 296.589 209.099 311.002 222.617 322.135C229.401 327.723 237.028 332.77 245.039 335.943C253.058 339.119 262.046 340.635 271.025 338.229C278.706 336.171 284.91 332.22 289.15 326.548Z" fill="#80B9FF"/>
<path d="M191.984 279.924C187.84 282.391 186.481 287.751 188.948 291.895C194.931 301.945 206.386 316.268 219.81 327.324C226.545 332.871 234.082 337.852 241.965 340.974C249.855 344.099 258.616 345.558 267.324 343.224C275.408 341.058 281.751 336.764 285.833 330.593C289.852 324.517 291.15 317.428 290.718 310.5C289.869 296.881 282.321 282.298 271.521 271.023C268.184 267.54 262.656 267.421 259.174 270.757C255.691 274.093 255.572 279.621 258.908 283.104C267.694 292.276 272.761 303.156 273.286 311.586C273.542 315.686 272.715 318.768 271.266 320.958C269.881 323.051 267.413 325.119 262.804 326.354C258.821 327.421 254.034 326.969 248.396 324.736C242.752 322.501 236.785 318.678 230.913 313.843C219.125 304.134 208.965 291.376 203.955 282.961C201.488 278.816 196.128 277.457 191.984 279.924Z" stroke="#002755" stroke-width="2" stroke-linecap="round" stroke-linejoin="round"/>
<path d="M265.214 277.063C270.746 282.839 275.166 289.416 278.089 296.033" stroke="#002755" stroke-width="19.4654" stroke-linecap="round" stroke-linejoin="round"/>
<path d="M235.768 266.817C236.373 269.077 237.433 271.096 238.821 272.8C242.694 277.553 249.13 279.862 255.436 278.172C264.003 275.877 269.087 267.071 266.791 258.504C265.065 252.062 259.657 247.589 253.438 246.743C251.387 246.464 249.248 246.579 247.123 247.149" stroke="#002755" stroke-width="11.6792" stroke-linecap="round"/>
<path d="M235.768 266.817C236.373 269.077 237.432 271.096 238.821 272.8C242.694 277.553 249.13 279.862 255.436 278.172" stroke="#002755" stroke-width="11.6792" stroke-linecap="round"/>
<path d="M72.6797 249.824C72.0739 252.085 71.0147 254.104 69.6262 255.808C65.7531 260.561 59.3176 262.87 53.0115 261.18C44.4446 258.884 39.3606 250.079 41.6561 241.512C43.3824 235.069 48.7902 230.597 55.0095 229.751C57.0605 229.472 59.1997 229.587 61.3243 230.156" stroke="#002755" stroke-width="12" stroke-linecap="round"/>
<path fill-rule="evenodd" clip-rule="evenodd" d="M50.2382 254.019C54.65 256.309 56.3703 261.742 54.0807 266.154C51.1563 271.788 49.5 278.191 49.5 285.008C49.5 301.782 59.573 316.203 73.9999 322.552C79.0485 324.774 84.6302 326.008 90.5 326.008C113.144 326.008 131.5 307.651 131.5 285.008C131.5 280.037 135.529 276.008 140.5 276.008C145.471 276.008 149.5 280.037 149.5 285.008C149.5 317.593 123.085 344.008 90.5 344.008C83.1031 344.008 76.0241 342.647 69.4999 340.161C47.2837 331.697 31.5 310.196 31.5 285.008C31.5 275.238 33.8818 265.998 38.1041 257.862C40.3938 253.45 45.8264 251.73 50.2382 254.019Z" fill="#B6D7FF"/>
<path d="M49.7775 254.907C53.6991 256.942 55.2283 261.771 53.1931 265.693C50.1966 271.467 48.5 278.027 48.5 285.008C48.5 308.204 67.304 327.008 90.5 327.008C113.696 327.008 132.5 308.204 132.5 285.008C132.5 280.589 136.082 277.008 140.5 277.008C144.918 277.008 148.5 280.589 148.5 285.008C148.5 317.04 122.533 343.008 90.5 343.008C58.4675 343.008 32.5 317.04 32.5 285.008C32.5 275.402 34.8415 266.319 38.9917 258.323C41.0269 254.401 45.8559 252.872 49.7775 254.907Z" stroke="#002755" stroke-width="2" stroke-linecap="round" stroke-linejoin="round"/>
<path d="M40.5 285.008C40.5 276.715 42.519 268.893 46.0924 262.008" stroke="#002755" stroke-width="18" stroke-linecap="round" stroke-linejoin="round"/>
<path d="M155.473 241C155.473 232.701 162.201 225.973 170.5 225.973C178.799 225.973 185.527 232.701 185.527 241V264.027H155.473V241Z" fill="#A4CDFF" stroke="#002755" stroke-width="1.94654"/>
<path fill-rule="evenodd" clip-rule="evenodd" d="M170.5 225C161.663 225 154.5 232.163 154.5 241V249.163C156.353 248.413 158.378 248 160.5 248C169.337 248 176.5 255.163 176.5 264V265H186.5V241C186.5 232.163 179.337 225 170.5 225Z" fill="#80B9FF"/>
<path d="M155.5 231C155.5 222.716 162.216 216 170.5 216C178.784 216 185.5 222.716 185.5 231V264H155.5V231Z" stroke="#002755" stroke-width="2"/>
<path d="M101.556 185.999C101.556 168.909 115.41 155.055 132.5 155.055H208.5C225.59 155.055 239.444 168.909 239.444 185.999V213.999C239.444 231.089 225.59 244.943 208.5 244.943H132.5C115.41 244.943 101.556 231.089 101.556 213.999V185.999Z" fill="#A4CDFF" stroke="#002755" stroke-width="2.11139"/>
<path d="M110 176.546C111.794 170.835 116.08 166.228 121.584 164" stroke="white" stroke-opacity="0.4" stroke-width="4" stroke-linecap="round" stroke-linejoin="round" style="mix-blend-mode:overlay"/>
<path fill-rule="evenodd" clip-rule="evenodd" d="M200.5 245.999H208.5C226.173 245.999 240.5 231.672 240.5 213.999V185.999C240.5 168.326 226.173 153.999 208.5 153.999H200.5C218.173 153.999 232.5 168.326 232.5 185.999V213.999C232.5 231.672 218.173 245.999 200.5 245.999Z" fill="#80B9FF"/>
<path d="M101.5 185.999C101.5 168.878 115.379 154.999 132.5 154.999H208.5C225.621 154.999 239.5 168.878 239.5 185.999V213.999C239.5 231.12 225.621 244.999 208.5 244.999H132.5C115.379 244.999 101.5 231.12 101.5 213.999V185.999Z" stroke="#002755" stroke-width="2"/>
<rect width="40" height="40" rx="20" transform="matrix(1 0 0 -1 174.5 207.999)" fill="#80B9FF"/>
<rect width="40" height="40" rx="20" transform="matrix(1 0 0 -1 122.5 207.999)" fill="#80B9FF"/>
<rect x="1" y="-1" width="38" height="38" rx="19" transform="matrix(1 0 0 -1 176.5 207.999)" fill="white" stroke="#002755" stroke-width="2"/>
<rect x="1" y="-1" width="10" height="18" rx="5" transform="matrix(1 0 0 -1 164.5 228)" fill="#002755" stroke="#002755" stroke-width="2"/>
<path fill-rule="evenodd" clip-rule="evenodd" d="M176.5 213.999V215.999C176.5 212.685 173.814 209.999 170.5 209.999C167.186 209.999 164.5 212.685 164.5 215.999V213.999C164.5 210.685 167.186 207.999 170.5 207.999C173.814 207.999 176.5 210.685 176.5 213.999Z" fill="#80B9FF"/>
<rect x="1" y="-1" width="38" height="38" rx="19" transform="matrix(1 0 0 -1 124.5 207.999)" fill="white" stroke="#002755" stroke-width="2"/>
<path d="M87.5557 193.999C87.5557 190.164 90.6648 187.055 94.5 187.055H101.444V214.943H94.5C90.6648 214.943 87.5557 211.834 87.5557 207.999V193.999Z" fill="#002755" stroke="#002755" stroke-width="2.11139"/>
<path d="M91.2045 195.969C91.2044 192.969 93.2045 190.969 96.2045 190.97" stroke="white" stroke-opacity="0.6" stroke-width="4" stroke-linecap="round" style="mix-blend-mode:overlay"/>
<path d="M253.444 206.999C253.444 210.834 250.335 213.943 246.5 213.943L239.556 213.943L239.556 186.055L246.5 186.055C250.335 186.055 253.444 189.164 253.444 192.999L253.444 206.999Z" fill="#002755" stroke="#002755" stroke-width="2.11139"/>
<path d="M188.5 187.999C188.5 186.894 189.395 185.999 190.5 185.999C191.605 185.999 192.5 186.894 192.5 187.999V199.999C192.5 201.104 191.605 201.999 190.5 201.999C189.395 201.999 188.5 201.104 188.5 199.999V187.999Z" fill="#002755"/>
<path d="M136.5 187.999C136.5 186.894 137.395 185.999 138.5 185.999C139.605 185.999 140.5 186.894 140.5 187.999V199.999C140.5 201.104 139.605 201.999 138.5 201.999C137.395 201.999 136.5 201.104 136.5 199.999V187.999Z" fill="#002755"/>
<path d="M170.5 126.999C170.5 126.447 170.948 125.999 171.5 125.999C172.052 125.999 172.5 126.447 172.5 126.999V155.999H170.5V126.999Z" fill="#002755"/>
<circle cx="171" cy="125.999" r="10.9443" fill="#002755" stroke="#002755" stroke-width="2.11139"/>
<circle cx="167" cy="122" r="4" fill="#002755"/>
<circle cx="167" cy="122" r="4" fill="#D1D4D7" fill-opacity="0.8" style="mix-blend-mode:overlay"/>
<path fill-rule="evenodd" clip-rule="evenodd" d="M62.1227 115.501C63.5028 117.226 63.2231 119.744 61.498 121.124C45.5474 133.884 32.0422 149.676 29.9404 170.596C27.8398 191.505 37.0128 218.799 69.4705 254.823C82.1149 268.856 88.8117 283.324 91.4318 296.844C106.694 296.921 119.163 306.641 130.543 315.513L130.81 315.72C143.731 325.792 155.615 335 170.499 335C185.407 335 199.548 326.175 213.766 317.303L214.382 316.918C221.382 312.551 228.449 308.198 235.279 305.531C236.423 305.085 237.575 304.679 238.734 304.325C237.083 281.775 242.215 257.806 261.954 246.062C272.738 239.647 283.715 238.526 293.506 241.326C303.22 244.104 311.492 250.657 317.195 259.144C328.617 276.141 330.063 301.425 311.983 321.664C310.511 323.312 307.982 323.454 306.335 321.983C304.687 320.511 304.545 317.982 306.017 316.335C321.436 299.074 320.132 277.858 310.555 263.606C305.757 256.467 298.967 251.208 291.306 249.017C283.721 246.848 275.011 247.603 266.045 252.937C250.454 262.213 245.269 281.853 246.645 302.843C249.893 302.66 253.155 303.053 256.386 304.248C262.746 306.598 267.953 311.809 271.948 317.808C271.612 318.954 271.144 319.928 270.585 320.747C269.774 321.936 268.526 323.161 266.521 324.194C266.418 324.022 266.314 323.851 266.21 323.682C262.531 317.703 258.166 313.434 253.613 311.752C251.679 311.037 249.642 310.735 247.469 310.814C249.106 322.505 252.552 333.758 256.782 342.629C258.9 347.071 261.178 350.838 263.464 353.74C265.782 356.682 267.941 358.52 269.753 359.404C271.775 360.391 272.659 360.187 272.879 360.106C273.062 360.038 273.592 359.757 274.115 358.391C275.235 355.463 275.32 350.007 273.898 343.262C273.786 342.729 273.665 342.192 273.536 341.653C276.165 340.481 278.558 339.042 280.685 337.348C281.083 338.783 281.43 340.209 281.726 341.612C283.242 348.805 283.545 356.129 281.587 361.249C280.571 363.906 278.737 366.465 275.661 367.606C272.621 368.734 269.349 368.108 266.246 366.595C262.933 364.979 259.889 362.129 257.18 358.691C254.439 355.212 251.865 350.905 249.561 346.073C245.026 336.562 241.394 324.72 239.621 312.452C239.15 312.617 238.673 312.794 238.189 312.983C232.175 315.332 225.742 319.26 218.617 323.706C218.128 324.01 217.636 324.318 217.141 324.627C203.63 333.071 187.744 343 170.499 343C152.774 343 138.915 332.189 126.696 322.658L125.891 322.03C114.257 312.961 104.153 305.384 92.5328 304.87C93.2426 313.657 92.2835 321.891 90.222 329.154C87.3722 339.195 82.3795 347.493 76.663 352.761C71.1275 357.863 63.7974 360.965 57.1699 357.557C51.2725 354.524 48.4553 348.846 47.8878 342.712C47.4568 338.054 48.2782 332.961 50.0673 327.97C52.155 329.935 54.3859 331.75 56.7428 333.397C55.9126 336.498 55.6181 339.429 55.8537 341.975C56.2404 346.153 57.9761 348.975 60.8287 350.442C62.9511 351.534 66.621 351.137 71.2416 346.878C75.6813 342.787 80.001 335.866 82.526 326.97C84.3153 320.666 85.1858 313.424 84.5668 305.613C76.913 307.349 70.3614 311.813 65.4357 317.451C63.3212 315.816 61.3709 313.978 59.6139 311.967C65.6126 305.18 73.7169 299.696 83.4388 297.669C80.9949 285.743 74.9542 272.86 63.5271 260.178C30.3825 223.391 19.5554 193.935 21.9805 169.796C24.4045 145.669 39.9506 128.116 56.5005 114.877C58.2256 113.497 60.7427 113.776 62.1227 115.501Z" fill="#FFAA00"/>
<path fill-rule="evenodd" clip-rule="evenodd" d="M62.1227 115.501C63.5028 117.226 63.2231 119.744 61.498 121.124C45.5474 133.884 32.0422 149.676 29.9404 170.596C27.8398 191.505 37.0128 218.799 69.4705 254.823C82.1149 268.856 88.8117 283.324 91.4318 296.844C106.694 296.921 119.163 306.641 130.543 315.513L130.81 315.72C143.731 325.792 155.615 335 170.499 335C185.407 335 199.548 326.175 213.766 317.303L214.382 316.918C221.382 312.551 228.449 308.198 235.279 305.531C236.423 305.085 237.575 304.679 238.734 304.325C237.083 281.775 242.215 257.806 261.954 246.062C272.738 239.647 283.715 238.526 293.506 241.326C303.22 244.104 311.492 250.657 317.195 259.144C328.617 276.141 330.063 301.425 311.983 321.664C310.511 323.312 307.982 323.454 306.335 321.983C304.687 320.511 304.545 317.982 306.017 316.335C321.436 299.074 320.132 277.858 310.555 263.606C305.757 256.467 298.967 251.208 291.306 249.017C283.721 246.848 275.011 247.603 266.045 252.937C250.454 262.213 245.269 281.853 246.645 302.843C249.893 302.66 253.155 303.053 256.386 304.248C262.746 306.598 267.953 311.809 271.948 317.808C271.612 318.954 271.144 319.928 270.585 320.747C269.774 321.936 268.526 323.161 266.521 324.194C266.418 324.022 266.314 323.851 266.21 323.682C262.531 317.703 258.166 313.434 253.613 311.752C251.679 311.037 249.642 310.735 247.469 310.814C249.106 322.505 252.552 333.758 256.782 342.629C258.9 347.071 261.178 350.838 263.464 353.74C265.782 356.682 267.941 358.52 269.753 359.404C271.775 360.391 272.659 360.187 272.879 360.106C273.062 360.038 273.592 359.757 274.115 358.391C275.235 355.463 275.32 350.007 273.898 343.262C273.786 342.729 273.665 342.192 273.536 341.653C276.165 340.481 278.558 339.042 280.685 337.348C281.083 338.783 281.43 340.209 281.726 341.612C283.242 348.805 283.545 356.129 281.587 361.249C280.571 363.906 278.737 366.465 275.661 367.606C272.621 368.734 269.349 368.108 266.246 366.595C262.933 364.979 259.889 362.129 257.18 358.691C254.439 355.212 251.865 350.905 249.561 346.073C245.026 336.562 241.394 324.72 239.621 312.452C239.15 312.617 238.673 312.794 238.189 312.983C232.175 315.332 225.742 319.26 218.617 323.706C218.128 324.01 217.636 324.318 217.141 324.627C203.63 333.071 187.744 343 170.499 343C152.774 343 138.915 332.189 126.696 322.658L125.891 322.03C114.257 312.961 104.153 305.384 92.5328 304.87C93.2426 313.657 92.2835 321.891 90.222 329.154C87.3722 339.195 82.3795 347.493 76.663 352.761C71.1275 357.863 63.7974 360.965 57.1699 357.557C51.2725 354.524 48.4553 348.846 47.8878 342.712C47.4568 338.054 48.2782 332.961 50.0673 327.97C52.155 329.935 54.3859 331.75 56.7428 333.397C55.9126 336.498 55.6181 339.429 55.8537 341.975C56.2404 346.153 57.9761 348.975 60.8287 350.442C62.9511 351.534 66.621 351.137 71.2416 346.878C75.6813 342.787 80.001 335.866 82.526 326.97C84.3153 320.666 85.1858 313.424 84.5668 305.613C76.913 307.349 70.3614 311.813 65.4357 317.451C63.3212 315.816 61.3709 313.978 59.6139 311.967C65.6126 305.18 73.7169 299.696 83.4388 297.669C80.9949 285.743 74.9542 272.86 63.5271 260.178C30.3825 223.391 19.5554 193.935 21.9805 169.796C24.4045 145.669 39.9506 128.116 56.5005 114.877C58.2256 113.497 60.7427 113.776 62.1227 115.501Z" fill="white" fill-opacity="0.2"/>
<path d="M95.8561 135.572C81.732 140.678 65.9794 134.925 58.4701 121.919L55.262 116.362C47.7527 103.355 50.6468 86.8368 62.1307 77.158L84.2286 58.5336L123.034 125.747L95.8561 135.572Z" fill="#335277" stroke="#002755" stroke-width="2"/>
<path d="M120.534 127.415C112.403 132.11 102.006 129.324 97.3113 121.193L75.3113 83.0877C70.6169 74.9567 73.4028 64.5597 81.5338 59.8652L92.7921 53.3652L131.792 120.915L120.534 127.415Z" fill="#335277" stroke="#002755" stroke-width="2"/>
<path d="M132.657 120.415C125.483 124.557 116.309 122.099 112.167 114.925L88.1668 73.3556C84.0247 66.1812 86.4828 57.0074 93.6572 52.8652C100.832 48.7231 110.005 51.1812 114.148 58.3556L138.148 99.9249C142.29 107.099 139.832 116.273 132.657 120.415Z" fill="#002755" stroke="#002755" stroke-width="2"/>
<path d="M125.39 103.826C122.998 105.207 119.94 104.388 118.559 101.996C117.179 99.6048 117.998 96.5468 120.39 95.1661L151.566 77.1661C153.958 75.7854 157.016 76.6048 158.397 78.9962C159.777 81.3877 158.958 84.4457 156.566 85.8264L125.39 103.826Z" fill="white" stroke="#002755" stroke-width="2"/>
<path d="M109.39 76.1144C106.998 77.4951 103.94 76.6758 102.559 74.2843C101.179 71.8929 101.998 68.8349 104.39 67.4542L135.566 49.4542C137.958 48.0735 141.016 48.8929 142.397 51.2843C143.777 53.6758 142.958 56.7337 140.566 58.1144L109.39 76.1144Z" fill="white" stroke="#002755" stroke-width="2"/>
<path fill-rule="evenodd" clip-rule="evenodd" d="M197.857 31.4455C199.77 30.3409 202.216 30.9964 203.321 32.9096C204.425 34.8227 203.77 37.2691 201.857 38.3737L174.144 54.3737C172.231 55.4782 169.784 54.8227 168.68 52.9096C167.575 50.9964 168.231 48.55 170.144 47.4454L197.857 31.4455ZM166 11.1967C167.105 9.28356 169.551 8.62806 171.464 9.73263C173.377 10.8372 174.033 13.2836 172.928 15.1967L160.928 35.9813C159.824 37.8945 157.377 38.55 155.464 37.4454C153.551 36.3409 152.896 33.8945 154 31.9813L166 11.1967ZM207.464 72.0865C207.464 69.8773 205.673 68.0865 203.464 68.0865L179.464 68.0865C177.255 68.0865 175.464 69.8773 175.464 72.0865C175.464 74.2956 177.255 76.0865 179.464 76.0865L203.464 76.0865C205.673 76.0865 207.464 74.2956 207.464 72.0865Z" fill="#FFAA00"/>
<path fill-rule="evenodd" clip-rule="evenodd" d="M197.857 31.4455C199.77 30.3409 202.216 30.9964 203.321 32.9096C204.425 34.8227 203.77 37.2691 201.857 38.3737L174.144 54.3737C172.231 55.4782 169.784 54.8227 168.68 52.9096C167.575 50.9964 168.231 48.55 170.144 47.4454L197.857 31.4455ZM166 11.1967C167.105 9.28356 169.551 8.62806 171.464 9.73263C173.377 10.8372 174.033 13.2836 172.928 15.1967L160.928 35.9813C159.824 37.8945 157.377 38.55 155.464 37.4454C153.551 36.3409 152.896 33.8945 154 31.9813L166 11.1967ZM207.464 72.0865C207.464 69.8773 205.673 68.0865 203.464 68.0865L179.464 68.0865C177.255 68.0865 175.464 69.8773 175.464 72.0865C175.464 74.2956 177.255 76.0865 179.464 76.0865L203.464 76.0865C205.673 76.0865 207.464 74.2956 207.464 72.0865Z" fill="white" fill-opacity="0.2"/>
<path d="M53.0115 261.18C44.4446 258.884 39.3606 250.079 41.6561 241.512C43.3824 235.069 48.7902 230.597 55.0095 229.751C57.0605 229.472 59.1997 229.587 61.3243 230.156" stroke="#002755" stroke-width="12" stroke-linecap="round"/>
<path d="M40.9991 240.293C42.3402 235.288 45.9034 231.471 50.3429 229.621" stroke="white" stroke-opacity="0.6" stroke-width="4" stroke-linecap="round" style="mix-blend-mode:overlay"/>
<path d="M235.768 266.817C236.373 269.077 237.432 271.096 238.821 272.8C242.694 277.553 249.13 279.862 255.436 278.172" stroke="#002755" stroke-width="11.6792" stroke-linecap="round"/>
<path d="M131.473 292C131.473 270.446 148.946 252.973 170.5 252.973C192.054 252.973 209.527 270.446 209.527 292V328.535C209.527 338.748 201.248 347.027 191.035 347.027H149.965C139.752 347.027 131.473 338.748 131.473 328.535V292Z" fill="#A4CDFF" stroke="#002755" stroke-width="1.94654"/>
<path fill-rule="evenodd" clip-rule="evenodd" d="M204.5 342.591C208.198 339.048 210.5 334.06 210.5 328.535V292C210.5 269.909 192.591 252 170.5 252C169.491 252 168.49 252.037 167.5 252.111C188.19 253.645 204.5 270.918 204.5 292V342.591Z" fill="#80B9FF"/>
<path d="M131.5 292C131.5 270.461 148.961 253 170.5 253C192.039 253 209.5 270.461 209.5 292V328.535C209.5 338.733 201.233 347 191.035 347H149.965C139.767 347 131.5 338.733 131.5 328.535V292Z" stroke="#002755" stroke-width="2"/>
<path d="M144.5 293C144.5 290.791 146.291 289 148.5 289H156.5C158.709 289 160.5 290.791 160.5 293V297C160.5 299.209 158.709 301 156.5 301H148.5C146.291 301 144.5 299.209 144.5 297V293Z" fill="#80B9FF"/>
<path d="M144.5 308C144.5 305.791 146.291 304 148.5 304H156.5C158.709 304 160.5 305.791 160.5 308V312C160.5 314.209 158.709 316 156.5 316H148.5C146.291 316 144.5 314.209 144.5 312V308Z" fill="#80B9FF"/>
<path d="M164.5 308C164.5 305.791 166.291 304 168.5 304H176.5C178.709 304 180.5 305.791 180.5 308V312C180.5 314.209 178.709 316 176.5 316H168.5C166.291 316 164.5 314.209 164.5 312V308Z" fill="#80B9FF"/>
<path d="M184.5 308C184.5 305.791 186.291 304 188.5 304H196.5C198.709 304 200.5 305.791 200.5 308V312C200.5 314.209 198.709 316 196.5 316H188.5C186.291 316 184.5 314.209 184.5 312V308Z" fill="#80B9FF"/>
<path d="M164.5 293C164.5 290.791 166.291 289 168.5 289H176.5C178.709 289 180.5 290.791 180.5 293V297C180.5 299.209 178.709 301 176.5 301H168.5C166.291 301 164.5 299.209 164.5 297V293Z" fill="#80B9FF"/>
<path d="M184.5 293C184.5 290.791 186.291 289 188.5 289H196.5C198.709 289 200.5 290.791 200.5 293V297C200.5 299.209 198.709 301 196.5 301H188.5C186.291 301 184.5 299.209 184.5 297V293Z" fill="#80B9FF"/>
<path d="M143.473 291C143.473 289.328 144.828 287.973 146.5 287.973H154.5C156.172 287.973 157.527 289.328 157.527 291V295C157.527 296.672 156.172 298.027 154.5 298.027H146.5C144.828 298.027 143.473 296.672 143.473 295V291Z" fill="#002755" stroke="#002755" stroke-width="1.94654"/>
<path d="M143.5 306C143.5 304.343 144.843 303 146.5 303H154.5C156.157 303 157.5 304.343 157.5 306V310C157.5 311.657 156.157 313 154.5 313H146.5C144.843 313 143.5 311.657 143.5 310V306Z" fill="#0068E4" stroke="#002755" stroke-width="2"/>
<path d="M163.5 291C163.5 289.343 164.843 288 166.5 288H174.5C176.157 288 177.5 289.343 177.5 291V295C177.5 296.657 176.157 298 174.5 298H166.5C164.843 298 163.5 296.657 163.5 295V291Z" fill="#0068E4" stroke="#002755" stroke-width="2"/>
<path d="M163.473 306C163.473 304.328 164.828 302.973 166.5 302.973H174.5C176.172 302.973 177.527 304.328 177.527 306V310C177.527 311.672 176.172 313.027 174.5 313.027H166.5C164.828 313.027 163.473 311.672 163.473 310V306Z" fill="#002755" stroke="#002755" stroke-width="1.94654"/>
<path d="M183.473 291C183.473 289.328 184.828 287.973 186.5 287.973H194.5C196.172 287.973 197.527 289.328 197.527 291V295C197.527 296.672 196.172 298.027 194.5 298.027H186.5C184.828 298.027 183.473 296.672 183.473 295V291Z" fill="#002755" stroke="#002755" stroke-width="1.94654"/>
<path d="M183.5 306C183.5 304.343 184.843 303 186.5 303H194.5C196.157 303 197.5 304.343 197.5 306V310C197.5 311.657 196.157 313 194.5 313H186.5C184.843 313 183.5 311.657 183.5 310V306Z" fill="#0068E4" stroke="#002755" stroke-width="2"/>
</g>
</svg>
