<svg width="393" height="316" viewBox="0 0 393 316" fill="none" xmlns="http://www.w3.org/2000/svg">
<g opacity="0.8">
<path d="M166.344 234.752C170.501 237.227 171.864 242.603 169.39 246.76C163.405 256.812 151.948 271.138 138.522 282.196C131.785 287.744 124.245 292.727 116.359 295.85C108.465 298.976 99.6986 300.436 90.9835 298.101C82.8939 295.934 76.5449 291.637 72.4588 285.459C68.4358 279.377 67.1379 272.282 67.5699 265.349C68.4192 251.722 75.9716 237.133 86.7745 225.855C90.1209 222.362 95.6658 222.243 99.1594 225.589C102.653 228.935 102.772 234.48 99.4258 237.974C90.643 247.143 85.5798 258.016 85.0549 266.439C84.7997 270.534 85.626 273.611 87.0703 275.794C88.4512 277.882 90.9138 279.946 95.5177 281.179C99.493 282.244 104.274 281.794 109.908 279.562C115.549 277.328 121.514 273.508 127.384 268.673C139.169 258.967 149.328 246.211 154.336 237.798C156.811 233.641 162.187 232.278 166.344 234.752Z" fill="#A4CDFF" stroke="#002755" stroke-width="1.94654" stroke-linecap="round" stroke-linejoin="round"/>
<path fill-rule="evenodd" clip-rule="evenodd" d="M86.3231 271.386C86.028 269.986 85.9097 268.364 86.0259 266.5C86.5328 258.366 91.4581 247.698 100.128 238.647C103.846 234.765 103.714 228.604 99.8322 224.886C99.6481 224.71 99.4589 224.542 99.265 224.383C99.7394 227.297 98.8874 230.391 96.6879 232.687C88.0178 241.738 83.0925 252.405 82.5855 260.539C82.3402 264.475 83.1397 267.329 84.4413 269.297C84.9045 269.997 85.5114 270.708 86.3231 271.386ZM69.1638 281.397C69.8434 282.976 70.6663 284.514 71.6466 285.996C75.8834 292.401 82.4485 296.822 90.7312 299.041C99.71 301.447 108.698 299.931 116.717 296.755C124.728 293.582 132.356 288.535 139.14 282.947C152.658 271.814 164.186 257.401 170.225 247.258C172.724 243.06 171.701 237.744 168.027 234.746C168.386 236.929 168.006 239.247 166.785 241.297C160.746 251.441 149.217 265.854 135.7 276.987C128.915 282.575 121.288 287.622 113.277 290.795C105.258 293.971 96.2697 295.487 87.2908 293.081C79.6084 291.023 73.4036 287.07 69.1638 281.397Z" fill="#80B9FF"/>
<path d="M166.344 234.752C170.501 237.227 171.864 242.603 169.39 246.76C163.405 256.812 151.948 271.138 138.522 282.196C131.785 287.744 124.245 292.727 116.359 295.85C108.465 298.976 99.6986 300.436 90.9835 298.101C82.8939 295.934 76.5449 291.637 72.4588 285.459C68.4358 279.377 67.1379 272.282 67.5699 265.349C68.4192 251.722 75.9716 237.133 86.7745 225.855C90.1209 222.362 95.6658 222.243 99.1594 225.589C102.653 228.935 102.772 234.48 99.4258 237.974C90.643 247.143 85.5798 258.016 85.0549 266.439C84.7997 270.534 85.626 273.611 87.0703 275.794C88.4512 277.882 90.9138 279.946 95.5177 281.179C99.493 282.244 104.274 281.794 109.908 279.562C115.549 277.328 121.514 273.508 127.384 268.673C139.169 258.967 149.328 246.211 154.336 237.798C156.811 233.641 162.187 232.278 166.344 234.752Z" stroke="#002755" stroke-width="1.94654" stroke-linecap="round" stroke-linejoin="round"/>
<path d="M93.1005 231.915C87.5679 237.69 83.1476 244.267 80.2248 250.884" stroke="#002755" stroke-width="19.4654" stroke-linecap="round" stroke-linejoin="round"/>
<path d="M122.547 221.668C121.942 223.929 120.882 225.947 119.494 227.651C115.621 232.404 109.185 234.713 102.879 233.023C94.3123 230.728 89.2283 221.922 91.5238 213.355C93.25 206.913 98.6579 202.44 104.877 201.594C106.928 201.315 109.067 201.431 111.192 202" stroke="#002755" stroke-width="11.6792" stroke-linecap="round"/>
<path d="M122.547 221.668C121.941 223.929 120.882 225.947 119.493 227.651C115.62 232.404 109.185 234.713 102.879 233.023" stroke="#002755" stroke-width="11.6792" stroke-linecap="round"/>
<path d="M216.471 234.752C212.314 237.227 210.95 242.603 213.425 246.76C219.41 256.812 230.866 271.138 244.293 282.196C251.029 287.744 258.569 292.727 266.455 295.85C274.349 298.976 283.116 300.436 291.831 298.101C299.921 295.934 306.27 291.637 310.356 285.459C314.379 279.377 315.677 272.282 315.245 265.349C314.395 251.722 306.843 237.133 296.04 225.855C292.694 222.362 287.149 222.243 283.655 225.589C280.162 228.935 280.042 234.48 283.389 237.974C292.171 247.143 297.235 258.016 297.76 266.439C298.015 270.534 297.188 273.611 295.744 275.794C294.363 277.882 291.901 279.946 287.297 281.179C283.321 282.244 278.54 281.794 272.906 279.562C267.265 277.328 261.3 273.508 255.43 268.673C243.645 258.967 233.487 246.211 228.478 237.798C226.003 233.641 220.627 232.278 216.471 234.752Z" fill="#A4CDFF" stroke="#002755" stroke-width="1.94654" stroke-linecap="round" stroke-linejoin="round"/>
<path fill-rule="evenodd" clip-rule="evenodd" d="M296.492 271.387C296.788 269.987 296.906 268.365 296.79 266.5C296.283 258.365 291.357 247.698 282.687 238.647C278.969 234.765 279.102 228.604 282.983 224.886C283.168 224.709 283.357 224.541 283.552 224.382C283.077 227.296 283.929 230.391 286.129 232.687C294.799 241.738 299.724 252.405 300.231 260.54C300.476 264.475 299.677 267.329 298.375 269.297C297.912 269.998 297.305 270.709 296.492 271.387ZM313.65 281.401C312.971 282.978 312.148 284.515 311.169 285.996C306.932 292.401 300.367 296.822 292.084 299.041C283.106 301.447 274.117 299.931 266.098 296.755C258.088 293.582 250.46 288.535 243.676 282.947C230.158 271.814 218.629 257.401 212.59 247.257C210.091 243.06 211.115 237.743 214.789 234.745C214.43 236.929 214.81 239.247 216.031 241.297C222.07 251.441 233.599 265.854 247.117 276.987C253.901 282.575 261.529 287.622 269.54 290.795C277.559 293.971 286.547 295.487 295.526 293.081C303.207 291.023 309.41 287.072 313.65 281.401Z" fill="#80B9FF"/>
<path d="M216.471 234.752C212.314 237.227 210.95 242.603 213.425 246.76C219.41 256.812 230.866 271.138 244.293 282.196C251.029 287.744 258.569 292.727 266.455 295.85C274.349 298.976 283.116 300.436 291.831 298.101C299.921 295.934 306.27 291.637 310.356 285.459C314.379 279.377 315.677 272.282 315.245 265.349C314.395 251.722 306.843 237.133 296.04 225.855C292.694 222.362 287.149 222.243 283.655 225.589C280.162 228.935 280.042 234.48 283.389 237.974C292.171 247.143 297.235 258.016 297.76 266.439C298.015 270.534 297.188 273.611 295.744 275.794C294.363 277.882 291.901 279.946 287.297 281.179C283.321 282.244 278.54 281.794 272.906 279.562C267.265 277.328 261.3 273.508 255.43 268.673C243.645 258.967 233.487 246.211 228.478 237.798C226.003 233.641 220.627 232.278 216.471 234.752Z" stroke="#002755" stroke-width="1.94654" stroke-linecap="round" stroke-linejoin="round"/>
<path d="M289.714 231.914C295.247 237.69 299.667 244.266 302.59 250.883" stroke="#002755" stroke-width="19.4654" stroke-linecap="round" stroke-linejoin="round"/>
<path d="M260.267 221.668C260.873 223.929 261.932 225.947 263.321 227.651C267.194 232.404 273.629 234.713 279.935 233.023C288.502 230.728 293.586 221.922 291.291 213.355C289.564 206.913 284.157 202.44 277.937 201.594C275.886 201.315 273.747 201.431 271.623 202" stroke="#002755" stroke-width="11.6792" stroke-linecap="round"/>
<path d="M260.268 221.668C260.873 223.929 261.932 225.947 263.321 227.651C267.194 232.404 273.63 234.713 279.936 233.023" stroke="#002755" stroke-width="11.6792" stroke-linecap="round"/>
<path d="M177.393 186.091C177.393 178.029 183.929 171.492 191.992 171.492C200.055 171.492 206.591 178.029 206.591 186.091V213.343H177.393V186.091Z" fill="#A4CDFF" stroke="#002755" stroke-width="1.94654"/>
<path fill-rule="evenodd" clip-rule="evenodd" d="M191.992 170.519C183.391 170.519 176.419 177.491 176.419 186.091V195.983C178.223 195.253 180.194 194.851 182.259 194.851C190.859 194.851 197.831 201.823 197.831 210.423V214.316H207.564V186.091C207.564 177.491 200.592 170.519 191.992 170.519Z" fill="#80B9FF"/>
<path d="M177.393 186.091C177.393 178.029 183.929 171.492 191.992 171.492C200.055 171.492 206.591 178.029 206.591 186.091V213.343H177.393V186.091Z" stroke="#002755" stroke-width="1.94654"/>
<path d="M151.83 248.867C151.83 226.829 169.696 208.963 191.734 208.963C213.773 208.963 231.638 226.829 231.638 248.867V285.852C231.638 296.065 223.359 304.344 213.146 304.344H170.322C160.109 304.344 151.83 296.065 151.83 285.852V248.867Z" fill="#A4CDFF" stroke="#002755" stroke-width="1.94654"/>
<path fill-rule="evenodd" clip-rule="evenodd" d="M222.879 302.713C228.697 299.347 232.611 293.057 232.611 285.852V248.868C232.611 226.292 214.31 207.99 191.734 207.99C190.087 207.99 188.463 208.088 186.868 208.277C207.15 210.683 222.879 227.938 222.879 248.868V302.713Z" fill="#80B9FF"/>
<path d="M151.83 248.867C151.83 226.829 169.696 208.963 191.734 208.963C213.773 208.963 231.638 226.829 231.638 248.867V285.852C231.638 296.065 223.359 304.344 213.146 304.344H170.322C160.109 304.344 151.83 296.065 151.83 285.852V248.867Z" stroke="#002755" stroke-width="1.94654"/>
<path d="M165.943 247.408C165.943 245.258 167.686 243.515 169.836 243.515H177.622C179.772 243.515 181.515 245.258 181.515 247.408V251.301C181.515 253.451 179.772 255.194 177.622 255.194H169.836C167.686 255.194 165.943 253.451 165.943 251.301V247.408Z" fill="#80B9FF"/>
<path d="M165.943 263.467C165.943 261.317 167.686 259.574 169.836 259.574H177.622C179.772 259.574 181.515 261.317 181.515 263.467V267.36C181.515 269.51 179.772 271.253 177.622 271.253H169.836C167.686 271.253 165.943 269.51 165.943 267.36V263.467Z" fill="#80B9FF"/>
<path d="M185.409 263.467C185.409 261.317 187.152 259.574 189.302 259.574H197.088C199.238 259.574 200.981 261.317 200.981 263.467V267.36C200.981 269.51 199.238 271.253 197.088 271.253H189.302C187.152 271.253 185.409 269.51 185.409 267.36V263.467Z" fill="#80B9FF"/>
<path d="M204.874 263.467C204.874 261.317 206.617 259.574 208.767 259.574H216.553C218.703 259.574 220.446 261.317 220.446 263.467V267.36C220.446 269.51 218.703 271.253 216.553 271.253H208.767C206.617 271.253 204.874 269.51 204.874 267.36V263.467Z" fill="#80B9FF"/>
<path d="M185.409 247.408C185.409 245.258 187.152 243.515 189.302 243.515H197.088C199.238 243.515 200.981 245.258 200.981 247.408V251.301C200.981 253.451 199.238 255.194 197.088 255.194H189.302C187.152 255.194 185.409 253.451 185.409 251.301V247.408Z" fill="#80B9FF"/>
<path d="M204.874 247.408C204.874 245.258 206.617 243.515 208.767 243.515H216.553C218.703 243.515 220.446 245.258 220.446 247.408V251.301C220.446 253.451 218.703 255.194 216.553 255.194H208.767C206.617 255.194 204.874 253.451 204.874 251.301V247.408Z" fill="#80B9FF"/>
<path d="M165.456 245.948C165.456 244.335 166.763 243.028 168.376 243.028H176.162C177.774 243.028 179.081 244.335 179.081 245.948V249.841C179.081 251.454 177.774 252.761 176.162 252.761H168.376C166.763 252.761 165.456 251.454 165.456 249.841V245.948Z" fill="#002755" stroke="#002755" stroke-width="1.94654"/>
<path d="M165.456 261.52C165.456 259.907 166.763 258.6 168.376 258.6H176.162C177.774 258.6 179.081 259.907 179.081 261.52V265.413C179.081 267.026 177.774 268.333 176.162 268.333H168.376C166.763 268.333 165.456 267.026 165.456 265.413V261.52Z" fill="#0068E4" stroke="#002755" stroke-width="1.94654"/>
<path d="M184.921 245.948C184.921 244.335 186.228 243.028 187.841 243.028H195.627C197.24 243.028 198.547 244.335 198.547 245.948V249.841C198.547 251.454 197.24 252.761 195.627 252.761H187.841C186.228 252.761 184.921 251.454 184.921 249.841V245.948Z" fill="#0068E4" stroke="#002755" stroke-width="1.94654"/>
<path d="M184.921 261.52C184.921 259.907 186.228 258.6 187.841 258.6H195.627C197.24 258.6 198.547 259.907 198.547 261.52V265.413C198.547 267.026 197.24 268.333 195.627 268.333H187.841C186.228 268.333 184.921 267.026 184.921 265.413V261.52Z" fill="#002755" stroke="#002755" stroke-width="1.94654"/>
<path d="M204.386 245.948C204.386 244.335 205.694 243.028 207.306 243.028H215.092C216.705 243.028 218.012 244.335 218.012 245.948V249.841C218.012 251.454 216.705 252.761 215.092 252.761H207.306C205.694 252.761 204.386 251.454 204.386 249.841V245.948Z" fill="#002755" stroke="#002755" stroke-width="1.94654"/>
<path d="M204.386 261.52C204.386 259.907 205.694 258.6 207.306 258.6H215.092C216.705 258.6 218.012 259.907 218.012 261.52V265.413C218.012 267.026 216.705 268.333 215.092 268.333H207.306C205.694 268.333 204.386 267.026 204.386 265.413V261.52Z" fill="#0068E4" stroke="#002755" stroke-width="1.94654"/>
<path d="M127.499 143.267C127.499 126.604 141.007 113.096 157.67 113.096H225.799C242.462 113.096 255.97 126.604 255.97 143.267V166.139C255.97 182.802 242.462 196.311 225.799 196.311H157.67C141.007 196.311 127.499 182.802 127.499 166.139V143.267Z" fill="#A4CDFF" stroke="#002755" stroke-width="1.94654"/>
<path fill-rule="evenodd" clip-rule="evenodd" d="M216.066 197.284H225.799C243 197.284 256.944 183.34 256.944 166.139V143.267C256.944 126.066 243 112.123 225.799 112.123H216.066C233.267 112.123 247.211 126.066 247.211 143.267V166.139C247.211 183.34 233.267 197.284 216.066 197.284Z" fill="#80B9FF"/>
<path d="M127.499 143.267C127.499 126.604 141.007 113.096 157.67 113.096H225.799C242.462 113.096 255.97 126.604 255.97 143.267V166.139C255.97 182.802 242.462 196.311 225.799 196.311H157.67C141.007 196.311 127.499 182.802 127.499 166.139V143.267Z" stroke="#002755" stroke-width="1.94654"/>
<path d="M113.873 149.107C113.873 145.344 116.923 142.294 120.686 142.294H127.498V167.599H120.686C116.923 167.599 113.873 164.549 113.873 160.786V149.107Z" fill="#002755" stroke="#002755" stroke-width="1.94654"/>
<path d="M269.596 160.3C269.596 164.062 266.545 167.113 262.783 167.113L255.97 167.113L255.97 141.808L262.783 141.808C266.545 141.808 269.596 144.858 269.596 148.621L269.596 160.3Z" fill="#002755" stroke="#002755" stroke-width="1.94654"/>
<path fill-rule="evenodd" clip-rule="evenodd" d="M215.166 155.779C217.933 160.388 216.439 166.366 211.83 169.133C206.466 172.353 199.566 174.414 191.07 174.414C182.581 174.414 175.732 172.354 170.457 169.002C165.92 166.12 164.579 160.105 167.462 155.568C170.345 151.031 176.36 149.691 180.897 152.573C182.668 153.699 185.798 154.948 191.07 154.948C196.333 154.948 199.718 153.7 201.812 152.443C206.421 149.677 212.4 151.17 215.166 155.779Z" fill="#80B9FF"/>
<path fill-rule="evenodd" clip-rule="evenodd" d="M215.652 158.697C218.418 163.306 216.925 169.285 212.316 172.051C206.951 175.271 200.051 177.332 191.555 177.332C183.067 177.332 176.217 175.273 170.942 171.921C166.406 169.038 165.065 163.023 167.948 158.486C170.831 153.95 176.845 152.609 181.382 155.492C183.153 156.617 186.283 157.867 191.555 157.867C196.818 157.867 200.204 156.619 202.298 155.362C206.907 152.595 212.885 154.089 215.652 158.697Z" fill="#002755"/>
<path fill-rule="evenodd" clip-rule="evenodd" d="M160.645 134.883C159.9 134.108 159.925 132.876 160.701 132.131C163.355 129.582 167.039 127.695 171.894 127.695C176.754 127.695 180.362 129.588 182.902 132.17C183.656 132.936 183.646 134.169 182.879 134.923C182.113 135.677 180.88 135.666 180.127 134.9C178.263 133.005 175.634 131.588 171.894 131.588C168.149 131.588 165.405 133.011 163.397 134.939C162.622 135.683 161.39 135.659 160.645 134.883Z" fill="#80B9FF"/>
<path fill-rule="evenodd" clip-rule="evenodd" d="M199.576 134.883C198.831 134.108 198.856 132.876 199.631 132.131C202.285 129.582 205.97 127.695 210.825 127.695C215.685 127.695 219.293 129.588 221.833 132.17C222.587 132.936 222.576 134.169 221.81 134.923C221.044 135.677 219.811 135.666 219.057 134.9C217.194 133.005 214.564 131.588 210.825 131.588C207.079 131.588 204.336 133.011 202.328 134.939C201.553 135.683 200.32 135.659 199.576 134.883Z" fill="#80B9FF"/>
<path fill-rule="evenodd" clip-rule="evenodd" d="M161.132 137.803C160.387 137.028 160.412 135.796 161.187 135.051C163.841 132.502 167.526 130.615 172.381 130.615C177.241 130.615 180.849 132.508 183.389 135.09C184.143 135.856 184.133 137.089 183.366 137.843C182.6 138.596 181.367 138.586 180.613 137.82C178.75 135.925 176.121 134.508 172.381 134.508C168.636 134.508 165.892 135.931 163.884 137.859C163.109 138.603 161.877 138.579 161.132 137.803Z" fill="#002755"/>
<path fill-rule="evenodd" clip-rule="evenodd" d="M200.063 137.803C199.318 137.028 199.343 135.796 200.119 135.051C202.772 132.502 206.457 130.615 211.312 130.615C216.172 130.615 219.78 132.508 222.32 135.09C223.074 135.856 223.064 137.089 222.297 137.843C221.531 138.596 220.298 138.586 219.545 137.82C217.681 135.925 215.052 134.508 211.312 134.508C207.567 134.508 204.823 135.931 202.815 137.859C202.04 138.603 200.808 138.579 200.063 137.803Z" fill="#002755"/>
<path d="M191.019 91.1974C191.019 90.6599 191.454 90.2241 191.992 90.2241C192.529 90.2241 192.965 90.6599 192.965 91.1974V113.583H191.019V91.1974Z" fill="#002755"/>
<circle cx="191.992" cy="81.4649" r="8.75943" fill="#002755" stroke="#002755" stroke-width="1.94654"/>
<path fill-rule="evenodd" clip-rule="evenodd" d="M76.122 11.3367C75.6028 11.1975 75.0691 11.5057 74.93 12.0249L68.3805 36.4676C68.2414 36.9869 68.5495 37.5205 69.0688 37.6597C69.588 37.7988 70.1216 37.4907 70.2608 36.9714L76.8102 12.5287C76.9493 12.0095 76.6412 11.4758 76.122 11.3367ZM62.0096 69.2466C61.4904 69.1075 60.9568 69.4156 60.8176 69.9348L54.2682 94.3776C54.1291 94.8968 54.4372 95.4305 54.9564 95.5696C55.4756 95.7087 56.0093 95.4006 56.1484 94.8814L62.6978 70.4386C62.837 69.9194 62.5288 69.3857 62.0096 69.2466ZM105.562 63.4257C106.081 63.5648 106.39 64.0985 106.25 64.6177C106.111 65.1369 105.578 65.445 105.058 65.3059L80.6157 58.7565C80.0965 58.6174 79.7884 58.0837 79.9275 57.5645C80.0666 57.0453 80.6003 56.7371 81.1195 56.8763L105.562 63.4257ZM48.9599 48.7628C49.099 48.2436 48.7909 47.71 48.2717 47.5708L23.8289 41.0214C23.3097 40.8823 22.7761 41.1904 22.6369 41.7096C22.4978 42.2288 22.8059 42.7625 23.3251 42.9016L47.7679 49.451C48.2871 49.5902 48.8208 49.282 48.9599 48.7628ZM97.0287 35.4164C97.4942 35.1476 98.0894 35.3071 98.3582 35.7726C98.627 36.2381 98.4675 36.8334 98.002 37.1021L82.5971 45.9961C82.1316 46.2649 81.5363 46.1054 81.2676 45.6399C80.9988 45.1744 81.1583 44.5791 81.6238 44.3104L97.0287 35.4164ZM83.274 83.7828C82.8085 84.0516 82.2133 83.8921 81.9445 83.4266L74.9416 71.2971C74.6729 70.8316 74.8323 70.2364 75.2979 69.9676C75.7634 69.6989 76.3586 69.8584 76.6274 70.3239L83.6303 82.4533C83.899 82.9188 83.7395 83.514 83.274 83.7828ZM47.2038 25.5534C46.9351 25.0879 47.0946 24.4926 47.5601 24.2239C48.0256 23.9551 48.6208 24.1146 48.8896 24.5801L55.7661 36.4906C56.0349 36.9561 55.8754 37.5513 55.4099 37.8201C54.9443 38.0888 54.3491 37.9293 54.0803 37.4638L47.2038 25.5534ZM32.1178 73.7405C31.849 73.275 32.0085 72.6797 32.474 72.411L47.6633 63.6415C48.1288 63.3727 48.724 63.5322 48.9928 63.9977C49.2615 64.4632 49.102 65.0584 48.6365 65.3272L33.4473 74.0967C32.9818 74.3655 32.3865 74.206 32.1178 73.7405Z" fill="#FFAA00"/>
<path d="M320.478 39.6018L325.891 59.8022" stroke="#FF3D71" stroke-width="1.74275" stroke-linecap="round"/>
<path d="M331.304 80.0027L336.716 100.203" stroke="#FF3D71" stroke-width="1.74275" stroke-linecap="round"/>
<path d="M318.918 72.4965L298.297 78.022" stroke="#FF3D71" stroke-width="1.74275" stroke-linecap="round"/>
<path d="M359.319 61.6708L338.698 67.1963" stroke="#FF3D71" stroke-width="1.74275" stroke-linecap="round"/>
<path d="M343.385 44.2891L333.947 61.2517" stroke="#FF3D71" stroke-width="1.74275" stroke-linecap="round"/>
<path d="M313.81 95.5151L323.36 78.9733" stroke="#FF3D71" stroke-width="1.74275" stroke-linecap="round"/>
<path d="M349.941 82.2255L338.202 75.4478" stroke="#FF3D71" stroke-width="1.74275" stroke-linecap="round"/>
<path d="M320.059 64.9727L307.253 57.5789" stroke="#FF3D71" stroke-width="1.74275" stroke-linecap="round"/>
<path d="M246.567 52.3067C248.686 50.1876 252.304 51.1572 253.08 54.052L256.57 67.0785C257.346 69.9732 254.697 72.6222 251.802 71.8465L238.776 68.3561C235.881 67.5804 234.911 63.9619 237.031 61.8428L246.567 52.3067Z" fill="#3993FF"/>
<path opacity="0.56" d="M375.07 262.029C377.189 259.91 380.808 260.88 381.583 263.774L384.201 273.544C384.977 276.439 382.328 279.088 379.433 278.312L369.663 275.695C366.769 274.919 365.799 271.3 367.918 269.181L375.07 262.029Z" fill="#3993FF"/>
<path d="M124.281 75.5793C124.669 74.1319 126.478 73.6471 127.538 74.7067L137.074 84.2427C138.133 85.3023 137.649 87.1115 136.201 87.4994L123.175 90.9898C121.727 91.3776 120.403 90.0532 120.791 88.6058L124.281 75.5793Z" fill="#00D68F"/>
<rect opacity="0.56" x="62.4946" y="156.407" width="23.3585" height="23.3585" rx="3.89308" transform="rotate(15 62.4946 156.407)" fill="#3993FF"/>
<path d="M6.98047 170.023C8.07396 167.805 10.9615 163.052 16.3777 163.924C21.7939 164.795 21.9391 169.152 27.3126 170.023C32.686 170.894 35.5137 165.864 36.6072 163.924" stroke="#00D68F" stroke-width="3.4855" stroke-linecap="round"/>
<path d="M358.879 136.525C359.361 134.1 360.92 128.762 366.377 128.201C371.834 127.641 373.102 131.812 378.518 131.263C383.934 130.714 385.364 125.123 385.917 122.966" stroke="#00D68F" stroke-width="3.4855" stroke-linecap="round"/>
<rect x="315.617" y="125.75" width="23.3585" height="23.3585" rx="3.89308" transform="rotate(60 315.617 125.75)" fill="#BB6BD9"/>
<rect x="61.877" y="120.532" width="11.1926" height="11.1926" rx="1.94654" transform="rotate(-15 61.877 120.532)" fill="#BB6BD9"/>
<circle cx="362.853" cy="178.112" r="11.6792" fill="#FFAA00"/>
<circle cx="11.6792" cy="259.574" r="11.6792" fill="#00D68F"/>
<circle opacity="0.4" cx="374.709" cy="121.856" r="5.83962" fill="white"/>
<circle cx="16.3054" cy="133.061" r="5.83962" fill="#FF3D71"/>
<circle cx="341.132" cy="227.942" r="11.883" stroke="#FF3D71" stroke-width="3.4855"/>
<circle cx="166.915" cy="40.1011" r="7.98995" stroke="#BB6BD9" stroke-width="3.4855"/>
<circle cx="31.1443" cy="206.531" r="7.98995" stroke="#3993FF" stroke-width="3.4855"/>
</g>
</svg>
