<svg width="406" height="308" viewBox="0 0 406 308" fill="none" xmlns="http://www.w3.org/2000/svg">
<g opacity="0.8">
<path d="M224.99 201.901C220.833 204.376 219.47 209.752 221.944 213.909C227.929 223.961 239.386 238.287 252.812 249.345C259.549 254.893 267.089 259.876 274.975 262.999C282.869 266.125 291.635 267.585 300.351 265.25C308.44 263.083 314.789 258.785 318.875 252.608C322.898 246.526 324.196 239.431 323.764 232.498C322.915 218.871 315.362 204.282 304.559 193.004C301.213 189.511 295.668 189.392 292.175 192.738C288.681 196.084 288.562 201.629 291.908 205.123C300.691 214.292 305.754 225.165 306.279 233.588C306.534 237.683 305.708 240.76 304.264 242.943C302.883 245.031 300.42 247.095 295.816 248.328C291.841 249.393 287.06 248.943 281.426 246.711C275.785 244.477 269.82 240.657 263.95 235.822C252.165 226.116 242.006 213.36 236.998 204.947C234.523 200.79 229.147 199.426 224.99 201.901Z" fill="#A4CDFF" stroke="#002755" stroke-width="1.94654" stroke-linecap="round" stroke-linejoin="round"/>
<path fill-rule="evenodd" clip-rule="evenodd" d="M305.011 238.537C305.307 237.137 305.425 235.515 305.309 233.649C304.802 225.515 299.876 214.848 291.206 205.797C287.488 201.915 287.621 195.754 291.502 192.036C291.687 191.859 291.876 191.691 292.071 191.532C291.596 194.446 292.448 197.54 294.648 199.837C303.318 208.888 308.243 219.555 308.75 227.689C308.995 231.625 308.196 234.479 306.894 236.447C306.431 237.147 305.824 237.859 305.011 238.537ZM322.169 248.55C321.49 250.128 320.667 251.665 319.688 253.146C315.451 259.551 308.886 263.972 300.603 266.191C291.625 268.597 282.636 267.081 274.617 263.905C266.607 260.732 258.979 255.685 252.195 250.097C238.677 238.964 227.148 224.551 221.109 214.407C218.61 210.21 219.634 204.893 223.309 201.895C222.949 204.079 223.33 206.397 224.55 208.447C230.59 218.591 242.118 233.004 255.636 244.137C262.42 249.725 270.048 254.772 278.059 257.945C286.078 261.121 295.066 262.637 304.045 260.231C311.726 258.173 317.93 254.222 322.169 248.55Z" fill="#80B9FF"/>
<path d="M225.004 201.924C220.86 204.391 219.5 209.751 221.967 213.895C227.951 223.945 239.405 238.268 252.829 249.324C259.564 254.871 267.102 259.852 274.985 262.974C282.875 266.099 291.636 267.558 300.344 265.224C308.428 263.058 314.771 258.764 318.853 252.593C322.872 246.517 324.169 239.428 323.737 232.5C322.889 218.881 315.34 204.298 304.54 193.023C301.204 189.54 295.676 189.421 292.193 192.757C288.71 196.093 288.591 201.621 291.928 205.104C300.713 214.276 305.78 225.156 306.306 233.586C306.561 237.686 305.734 240.768 304.286 242.958C302.901 245.051 300.432 247.119 295.823 248.354C291.841 249.421 287.054 248.969 281.416 246.736C275.772 244.501 269.804 240.678 263.933 235.843C252.145 226.134 241.985 213.376 236.975 204.961C234.507 200.816 229.148 199.457 225.004 201.924Z" stroke="#002755" stroke-width="2" stroke-linecap="round" stroke-linejoin="round"/>
<path d="M298.233 199.063C303.766 204.839 308.186 211.416 311.109 218.033" stroke="#002755" stroke-width="19.4654" stroke-linecap="round" stroke-linejoin="round"/>
<path d="M268.786 188.817C269.392 191.077 270.451 193.096 271.84 194.8C275.713 199.553 282.148 201.862 288.454 200.172C297.021 197.877 302.105 189.071 299.81 180.504C298.083 174.062 292.676 169.589 286.456 168.743C284.405 168.464 282.266 168.579 280.142 169.149" stroke="#002755" stroke-width="11.6792" stroke-linecap="round"/>
<path d="M268.786 188.817C269.392 191.077 270.451 193.096 271.84 194.8C275.713 199.553 282.148 201.862 288.454 200.172" stroke="#002755" stroke-width="11.6792" stroke-linecap="round"/>
<path d="M155.199 281.183C154.593 278.923 153.534 276.904 152.146 275.2C148.273 270.447 141.837 268.138 135.531 269.828C126.964 272.123 121.88 280.929 124.176 289.496C125.902 295.938 131.31 300.411 137.529 301.257C139.58 301.536 141.719 301.421 143.844 300.851" stroke="#002755" stroke-width="12" stroke-linecap="round"/>
<path d="M123.52 290.715C124.861 295.72 128.424 299.536 132.863 301.387" stroke="white" stroke-opacity="0.6" stroke-width="4" stroke-linecap="round" style="mix-blend-mode:overlay"/>
<path fill-rule="evenodd" clip-rule="evenodd" d="M132.758 276.988C137.169 274.699 138.89 269.266 136.6 264.854C133.676 259.22 132.02 252.816 132.02 246C132.02 229.226 142.093 214.805 156.519 208.456C161.568 206.234 167.15 205 173.02 205C195.663 205 214.02 223.356 214.02 246C214.02 250.971 218.049 255 223.02 255C227.99 255 232.02 250.971 232.02 246C232.02 213.415 205.604 187 173.02 187C165.623 187 158.544 188.361 152.019 190.847C129.803 199.311 114.02 220.812 114.02 246C114.02 255.77 116.401 265.01 120.624 273.146C122.913 277.558 128.346 279.278 132.758 276.988Z" fill="#B6D7FF"/>
<path d="M132.297 276.101C136.219 274.066 137.748 269.237 135.713 265.315C132.716 259.541 131.02 252.981 131.02 246C131.02 222.804 149.824 204 173.02 204C196.215 204 215.02 222.804 215.02 246C215.02 250.418 218.601 254 223.02 254C227.438 254 231.02 250.418 231.02 246C231.02 213.968 205.052 188 173.02 188C140.987 188 115.02 213.968 115.02 246C115.02 255.606 117.361 264.688 121.511 272.685C123.546 276.607 128.375 278.136 132.297 276.101Z" stroke="#002755" stroke-width="2" stroke-linecap="round" stroke-linejoin="round"/>
<path d="M123.02 246C123.02 254.293 125.039 262.115 128.612 269" stroke="#002755" stroke-width="18" stroke-linecap="round" stroke-linejoin="round"/>
<path d="M188.493 163C188.493 154.701 195.22 147.973 203.52 147.973C211.819 147.973 218.546 154.701 218.546 163V186.027H188.493V163Z" fill="#A4CDFF" stroke="#002755" stroke-width="1.94654"/>
<path fill-rule="evenodd" clip-rule="evenodd" d="M203.52 147C194.683 147 187.52 154.163 187.52 163V171.163C189.372 170.413 191.398 170 193.52 170C202.356 170 209.52 177.163 209.52 186V187H219.52V163C219.52 154.163 212.356 147 203.52 147Z" fill="#80B9FF"/>
<path d="M188.52 153C188.52 144.716 195.235 138 203.52 138C211.804 138 218.52 144.716 218.52 153V186H188.52V153Z" stroke="#002755" stroke-width="2"/>
<path d="M134.075 108C134.075 90.9099 147.929 77.0557 165.02 77.0557H241.02C258.11 77.0557 271.964 90.9099 271.964 108V136C271.964 153.09 258.11 166.944 241.02 166.944H165.02C147.929 166.944 134.075 153.09 134.075 136V108Z" fill="#A4CDFF" stroke="#002755" stroke-width="2.11139"/>
<rect width="40" height="40" rx="20" transform="matrix(1 0 0 -1 155.02 131)" fill="#80B9FF"/>
<rect width="40" height="40" rx="20" transform="matrix(1 0 0 -1 209.02 131)" fill="#80B9FF"/>
<rect x="1" y="-1" width="38" height="38" rx="19" transform="matrix(1 0 0 -1 157.02 131)" fill="white" stroke="#002755" stroke-width="2"/>
<rect x="1" y="-1" width="38" height="38" rx="19" transform="matrix(1 0 0 -1 211.02 131)" fill="white" stroke="#002755" stroke-width="2"/>
<path d="M175.02 107C175.02 105.895 175.915 105 177.02 105C178.124 105 179.02 105.895 179.02 107V119C179.02 120.105 178.124 121 177.02 121C175.915 121 175.02 120.105 175.02 119V107Z" fill="#002755"/>
<path d="M229.02 107C229.02 105.895 229.915 105 231.02 105C232.124 105 233.02 105.895 233.02 107V119C233.02 120.105 232.124 121 231.02 121C229.915 121 229.02 120.105 229.02 119V107Z" fill="#002755"/>
<path d="M189.095 144.016C192.937 147.14 197.77 149 203.02 149C208.269 149 213.102 147.14 216.944 144.016C218.266 142.942 217.409 141 215.706 141H190.333C188.63 141 187.773 142.942 189.095 144.016Z" fill="#002755" stroke="#002755" stroke-width="2" stroke-linecap="round" stroke-linejoin="round"/>
<path d="M143.02 98.5462C144.813 92.8351 149.1 88.228 154.604 86" stroke="white" stroke-opacity="0.4" stroke-width="4" stroke-linecap="round" stroke-linejoin="round" style="mix-blend-mode:overlay"/>
<path fill-rule="evenodd" clip-rule="evenodd" d="M233.52 168H241.52C259.193 168 273.52 153.673 273.52 136V108C273.52 90.3269 259.193 76 241.52 76H233.52C251.193 76 265.52 90.3269 265.52 108V136C265.52 153.673 251.193 168 233.52 168Z" fill="#80B9FF"/>
<path d="M134.52 108C134.52 90.8792 148.399 77 165.52 77H241.52C258.64 77 272.52 90.8792 272.52 108V136C272.52 153.121 258.64 167 241.52 167H165.52C148.399 167 134.52 153.121 134.52 136V108Z" stroke="#002755" stroke-width="2"/>
<path d="M120.575 116C120.575 112.165 123.684 109.056 127.52 109.056H134.464V136.944H127.52C123.684 136.944 120.575 133.835 120.575 130V116Z" fill="#002755" stroke="#002755" stroke-width="2.11139"/>
<path d="M124.223 117.969C124.223 114.969 126.223 112.969 129.223 112.97" stroke="white" stroke-opacity="0.6" stroke-width="4" stroke-linecap="round" style="mix-blend-mode:overlay"/>
<path d="M286.464 129C286.464 132.835 283.355 135.944 279.52 135.944L272.575 135.944L272.575 108.056L279.52 108.056C283.355 108.056 286.464 111.165 286.464 115L286.464 129Z" fill="#002755" stroke="#002755" stroke-width="2.11139"/>
<path d="M203.52 49C203.52 48.4477 203.967 48 204.52 48C205.072 48 205.52 48.4477 205.52 49V78H203.52V49Z" fill="#002755"/>
<circle cx="204.02" cy="48" r="10.9443" fill="#002755" stroke="#002755" stroke-width="2.11139"/>
<circle cx="200.02" cy="44" r="4" fill="#002755"/>
<circle cx="200.02" cy="44" r="4" fill="#D1D4D7" fill-opacity="0.8" style="mix-blend-mode:overlay"/>
<path fill-rule="evenodd" clip-rule="evenodd" d="M111.804 11.3367C111.285 11.1975 110.751 11.5057 110.612 12.0249L104.063 36.4676C103.924 36.9869 104.232 37.5205 104.751 37.6597C105.27 37.7988 105.804 37.4907 105.943 36.9714L112.492 12.5287C112.631 12.0095 112.323 11.4758 111.804 11.3367ZM97.6918 69.2466C97.1726 69.1075 96.6389 69.4156 96.4998 69.9348L89.9503 94.3776C89.8112 94.8968 90.1193 95.4305 90.6385 95.5696C91.1577 95.7087 91.6914 95.4006 91.8305 94.8814L98.38 70.4386C98.5191 69.9194 98.211 69.3857 97.6918 69.2466ZM141.244 63.4257C141.764 63.5648 142.072 64.0985 141.933 64.6177C141.793 65.1369 141.26 65.445 140.741 65.3059L116.298 58.7565C115.779 58.6174 115.47 58.0837 115.61 57.5645C115.749 57.0453 116.282 56.7371 116.802 56.8763L141.244 63.4257ZM84.6421 48.7628C84.7812 48.2436 84.4731 47.71 83.9538 47.5708L59.5111 41.0214C58.9919 40.8823 58.4582 41.1904 58.3191 41.7096C58.1799 42.2288 58.4881 42.7625 59.0073 42.9016L83.45 49.451C83.9693 49.5902 84.5029 49.282 84.6421 48.7628ZM132.711 35.4164C133.176 35.1476 133.772 35.3071 134.04 35.7726C134.309 36.2381 134.15 36.8334 133.684 37.1021L118.279 45.9961C117.814 46.2649 117.218 46.1054 116.95 45.6399C116.681 45.1744 116.84 44.5791 117.306 44.3104L132.711 35.4164ZM118.956 83.7828C118.491 84.0516 117.895 83.8921 117.627 83.4266L110.624 71.2971C110.355 70.8316 110.514 70.2364 110.98 69.9676C111.445 69.6989 112.041 69.8584 112.309 70.3239L119.312 82.4533C119.581 82.9188 119.422 83.514 118.956 83.7828ZM82.886 25.5534C82.6172 25.0879 82.7767 24.4926 83.2422 24.2239C83.7077 23.9551 84.303 24.1146 84.5717 24.5801L91.4482 36.4906C91.717 36.9561 91.5575 37.5513 91.092 37.8201C90.6265 38.0888 90.0312 37.9293 89.7625 37.4638L82.886 25.5534ZM67.7999 73.7405C67.5312 73.275 67.6907 72.6797 68.1562 72.411L83.3454 63.6415C83.8109 63.3727 84.4061 63.5322 84.6749 63.9977C84.9437 64.4632 84.7842 65.0584 84.3187 65.3272L69.1294 74.0967C68.6639 74.3655 68.0687 74.206 67.7999 73.7405Z" fill="#FFAA00"/>
<path fill-rule="evenodd" clip-rule="evenodd" d="M111.804 11.3367C111.285 11.1975 110.751 11.5057 110.612 12.0249L104.063 36.4676C103.924 36.9869 104.232 37.5205 104.751 37.6597C105.27 37.7988 105.804 37.4907 105.943 36.9714L112.492 12.5287C112.631 12.0095 112.323 11.4758 111.804 11.3367ZM97.6918 69.2466C97.1726 69.1075 96.6389 69.4156 96.4998 69.9348L89.9503 94.3776C89.8112 94.8968 90.1193 95.4305 90.6385 95.5696C91.1577 95.7087 91.6914 95.4006 91.8305 94.8814L98.38 70.4386C98.5191 69.9194 98.211 69.3857 97.6918 69.2466ZM141.244 63.4257C141.764 63.5648 142.072 64.0985 141.933 64.6177C141.793 65.1369 141.26 65.445 140.741 65.3059L116.298 58.7565C115.779 58.6174 115.47 58.0837 115.61 57.5645C115.749 57.0453 116.282 56.7371 116.802 56.8763L141.244 63.4257ZM84.6421 48.7628C84.7812 48.2436 84.4731 47.71 83.9538 47.5708L59.5111 41.0214C58.9919 40.8823 58.4582 41.1904 58.3191 41.7096C58.1799 42.2288 58.4881 42.7625 59.0073 42.9016L83.45 49.451C83.9693 49.5902 84.5029 49.282 84.6421 48.7628ZM132.711 35.4164C133.176 35.1476 133.772 35.3071 134.04 35.7726C134.309 36.2381 134.15 36.8334 133.684 37.1021L118.279 45.9961C117.814 46.2649 117.218 46.1054 116.95 45.6399C116.681 45.1744 116.84 44.5791 117.306 44.3104L132.711 35.4164ZM118.956 83.7828C118.491 84.0516 117.895 83.8921 117.627 83.4266L110.624 71.2971C110.355 70.8316 110.514 70.2364 110.98 69.9676C111.445 69.6989 112.041 69.8584 112.309 70.3239L119.312 82.4533C119.581 82.9188 119.422 83.514 118.956 83.7828ZM82.886 25.5534C82.6172 25.0879 82.7767 24.4926 83.2422 24.2239C83.7077 23.9551 84.303 24.1146 84.5717 24.5801L91.4482 36.4906C91.717 36.9561 91.5575 37.5513 91.092 37.8201C90.6265 38.0888 90.0312 37.9293 89.7625 37.4638L82.886 25.5534ZM67.7999 73.7405C67.5312 73.275 67.6907 72.6797 68.1562 72.411L83.3454 63.6415C83.8109 63.3727 84.4061 63.5322 84.6749 63.9977C84.9437 64.4632 84.7842 65.0584 84.3187 65.3272L69.1294 74.0967C68.6639 74.3655 68.0687 74.206 67.7999 73.7405Z" fill="white" fill-opacity="0.2"/>
<path opacity="0.56" d="M370.09 249.029C372.209 246.91 375.827 247.879 376.603 250.774L379.221 260.544C379.996 263.439 377.348 266.088 374.453 265.312L364.683 262.694C361.788 261.919 360.819 258.3 362.938 256.181L370.09 249.029Z" fill="#3993FF"/>
<rect opacity="0.56" x="87.5146" y="143.406" width="23.3585" height="23.3585" rx="3.89308" transform="rotate(15 87.5146 143.406)" fill="#3993FF"/>
<path d="M2 157.023C3.09349 154.805 5.98099 150.052 11.3972 150.924C16.8134 151.795 16.9586 156.152 22.3321 157.023C27.7056 157.895 30.5333 152.865 31.6268 150.924" stroke="#00D68F" stroke-width="3.4855" stroke-linecap="round"/>
<path d="M373.899 123.525C374.381 121.099 375.94 115.761 381.397 115.201C386.854 114.641 388.122 118.812 393.538 118.262C398.954 117.713 400.384 112.123 400.938 109.965" stroke="#00D68F" stroke-width="3.4855" stroke-linecap="round"/>
<rect x="260.249" y="21" width="23.3585" height="23.3585" rx="3.89308" transform="rotate(60 260.249 21)" fill="#BB6BD9"/>
<rect x="260.249" y="21" width="23.3585" height="23.3585" rx="3.89308" transform="rotate(60 260.249 21)" fill="white" fill-opacity="0.2"/>
<rect x="86.8965" y="207.896" width="11.1926" height="11.1926" rx="1.94654" transform="rotate(-15 86.8965 207.896)" fill="#BB6BD9"/>
<rect x="86.8965" y="207.896" width="11.1926" height="11.1926" rx="1.94654" transform="rotate(-15 86.8965 207.896)" fill="white" fill-opacity="0.2"/>
<circle cx="377.873" cy="165.113" r="11.6792" fill="#FFAA00"/>
<circle cx="377.873" cy="165.113" r="11.6792" fill="white" fill-opacity="0.2"/>
<circle cx="36.6988" cy="246.574" r="11.6792" fill="#00D68F"/>
<circle opacity="0.4" cx="399.728" cy="108.855" r="5.83962" fill="white"/>
<circle cx="41.325" cy="120.06" r="5.83962" fill="#FF3D71"/>
<circle cx="366.151" cy="214.942" r="11.883" stroke="#FF3D71" stroke-width="3.4855"/>
<circle cx="56.1643" cy="193.53" r="7.98995" stroke="#3993FF" stroke-width="3.4855"/>
<circle cx="335.752" cy="167.733" r="7.98995" stroke="#3993FF" stroke-width="3.4855"/>
<path d="M84.0195 261.493C90.3529 275.493 105.52 290.986 134.52 286.993C163.52 283.001 184.02 239.986 247.52 261.493C311.02 283.001 260.02 206.001 290.02 179.493C320.02 152.986 329.02 145.5 329.02 115" stroke="#FFAA00" stroke-width="8" stroke-linecap="round" stroke-linejoin="round"/>
<path d="M84.0195 261.493C90.3529 275.493 105.52 290.986 134.52 286.993C163.52 283.001 184.02 239.986 247.52 261.493C311.02 283.001 260.02 206.001 290.02 179.493C320.02 152.986 329.02 145.5 329.02 115" stroke="white" stroke-opacity="0.2" stroke-width="8" stroke-linecap="round" stroke-linejoin="round"/>
<path d="M155.331 281.144C154.725 278.884 153.666 276.865 152.278 275.161C148.405 270.408 141.969 268.099 135.663 269.789" stroke="#002755" stroke-width="12" stroke-linecap="round"/>
<path d="M362.745 96.4495C360.105 111.234 347.246 122 332.228 122L325.811 122C310.793 122 297.934 111.234 295.294 96.4495L290.214 68L367.825 68L362.745 96.4495Z" fill="#335277" stroke="#002755" stroke-width="2"/>
<path d="M368.02 71C368.02 80.3888 360.408 88 351.02 88L307.02 88C297.631 88 290.02 80.3888 290.02 71L290.02 58L368.02 58L368.02 71Z" fill="#335277" stroke="#002755" stroke-width="2"/>
<path d="M368.02 57C368.02 65.2842 361.304 71.9999 353.02 71.9999L305.02 72C296.735 72 290.02 65.2843 290.02 57C290.02 48.7157 296.735 42 305.02 42L353.02 42C361.304 42 368.02 48.7157 368.02 57Z" fill="#002755" stroke="#002755" stroke-width="2"/>
<path d="M350.02 54.9999C350.02 57.7613 347.781 59.9999 345.02 59.9999C342.258 60 340.02 57.7614 340.02 54.9999L340.02 19C340.02 16.2386 342.258 14 345.02 14C347.781 14 350.02 16.2386 350.02 19L350.02 54.9999Z" fill="white" stroke="#002755" stroke-width="2"/>
<path d="M318.02 54.9999C318.02 57.7613 315.781 59.9999 313.02 59.9999C310.258 60 308.02 57.7614 308.02 54.9999L308.02 19C308.02 16.2386 310.258 14 313.02 14C315.781 14 318.02 16.2386 318.02 19L318.02 54.9999Z" fill="white" stroke="#002755" stroke-width="2"/>
<path d="M268.787 188.817C269.393 191.077 270.452 193.096 271.841 194.8C275.714 199.553 282.149 201.862 288.455 200.172" stroke="#002755" stroke-width="11.6792" stroke-linecap="round"/>
<path d="M164.493 214C164.493 192.446 181.966 174.973 203.52 174.973C225.073 174.973 242.546 192.446 242.546 214V250.535C242.546 260.748 234.267 269.027 224.054 269.027H182.985C172.772 269.027 164.493 260.748 164.493 250.535V214Z" fill="#A4CDFF" stroke="#002755" stroke-width="1.94654"/>
<path fill-rule="evenodd" clip-rule="evenodd" d="M237.52 264.591C241.217 261.048 243.52 256.06 243.52 250.535V214C243.52 191.909 225.611 174 203.52 174C202.51 174 201.51 174.037 200.52 174.111C221.21 175.645 237.52 192.918 237.52 214V264.591Z" fill="#80B9FF"/>
<path d="M164.52 214C164.52 192.461 181.98 175 203.52 175C225.059 175 242.52 192.461 242.52 214V250.535C242.52 260.733 234.252 269 224.054 269H182.985C172.787 269 164.52 260.733 164.52 250.535V214Z" stroke="#002755" stroke-width="2"/>
<path d="M177.52 215C177.52 212.791 179.31 211 181.52 211H189.52C191.729 211 193.52 212.791 193.52 215V219C193.52 221.209 191.729 223 189.52 223H181.52C179.31 223 177.52 221.209 177.52 219V215Z" fill="#80B9FF"/>
<path d="M177.52 230C177.52 227.791 179.31 226 181.52 226H189.52C191.729 226 193.52 227.791 193.52 230V234C193.52 236.209 191.729 238 189.52 238H181.52C179.31 238 177.52 236.209 177.52 234V230Z" fill="#80B9FF"/>
<path d="M197.52 230C197.52 227.791 199.31 226 201.52 226H209.52C211.729 226 213.52 227.791 213.52 230V234C213.52 236.209 211.729 238 209.52 238H201.52C199.31 238 197.52 236.209 197.52 234V230Z" fill="#80B9FF"/>
<path d="M217.52 230C217.52 227.791 219.31 226 221.52 226H229.52C231.729 226 233.52 227.791 233.52 230V234C233.52 236.209 231.729 238 229.52 238H221.52C219.31 238 217.52 236.209 217.52 234V230Z" fill="#80B9FF"/>
<path d="M197.52 215C197.52 212.791 199.31 211 201.52 211H209.52C211.729 211 213.52 212.791 213.52 215V219C213.52 221.209 211.729 223 209.52 223H201.52C199.31 223 197.52 221.209 197.52 219V215Z" fill="#80B9FF"/>
<path d="M217.52 215C217.52 212.791 219.31 211 221.52 211H229.52C231.729 211 233.52 212.791 233.52 215V219C233.52 221.209 231.729 223 229.52 223H221.52C219.31 223 217.52 221.209 217.52 219V215Z" fill="#80B9FF"/>
<path d="M176.493 213C176.493 211.328 177.848 209.973 179.52 209.973H187.52C189.191 209.973 190.546 211.328 190.546 213V217C190.546 218.672 189.191 220.027 187.52 220.027H179.52C177.848 220.027 176.493 218.672 176.493 217V213Z" fill="#002755" stroke="#002755" stroke-width="1.94654"/>
<path d="M176.52 228C176.52 226.343 177.863 225 179.52 225H187.52C189.176 225 190.52 226.343 190.52 228V232C190.52 233.657 189.176 235 187.52 235H179.52C177.863 235 176.52 233.657 176.52 232V228Z" fill="#0068E4" stroke="#002755" stroke-width="2"/>
<path d="M196.52 213C196.52 211.343 197.863 210 199.52 210H207.52C209.176 210 210.52 211.343 210.52 213V217C210.52 218.657 209.176 220 207.52 220H199.52C197.863 220 196.52 218.657 196.52 217V213Z" fill="#0068E4" stroke="#002755" stroke-width="2"/>
<path d="M196.493 228C196.493 226.328 197.848 224.973 199.52 224.973H207.52C209.191 224.973 210.546 226.328 210.546 228V232C210.546 233.672 209.191 235.027 207.52 235.027H199.52C197.848 235.027 196.493 233.672 196.493 232V228Z" fill="#002755" stroke="#002755" stroke-width="1.94654"/>
<path d="M216.493 213C216.493 211.328 217.848 209.973 219.52 209.973H227.52C229.191 209.973 230.546 211.328 230.546 213V217C230.546 218.672 229.191 220.027 227.52 220.027H219.52C217.848 220.027 216.493 218.672 216.493 217V213Z" fill="#002755" stroke="#002755" stroke-width="1.94654"/>
<path d="M216.52 228C216.52 226.343 217.863 225 219.52 225H227.52C229.176 225 230.52 226.343 230.52 228V232C230.52 233.657 229.176 235 227.52 235H219.52C217.863 235 216.52 233.657 216.52 232V228Z" fill="#0068E4" stroke="#002755" stroke-width="2"/>
</g>
</svg>
