<svg width="25" height="26" viewBox="0 0 25 26" fill="none" xmlns="http://www.w3.org/2000/svg"> <path fill-rule="evenodd" clip-rule="evenodd" d="M0.585787 14.4139C-0.195261 13.6329 -0.195263 12.3665 0.585786 11.5855L2.97918 9.19209V5.80703C2.97918 4.70246 3.87461 3.80702 4.97918 3.80702H8.36425L10.7574 1.41391C11.5384 0.632864 12.8047 0.632862 13.5858 1.41391L15.9789 3.80702H19.364C20.4685 3.80702 21.364 4.70246 21.364 5.80702V9.19208L23.7574 11.5855C24.5384 12.3665 24.5384 13.6329 23.7574 14.4139L21.364 16.8073V20.1918C21.364 21.2964 20.4685 22.1918 19.364 22.1918H15.9795L13.5858 24.5855C12.8047 25.3665 11.5384 25.3665 10.7574 24.5855L8.36368 22.1918H4.97919C3.87462 22.1918 2.97918 21.2964 2.97918 20.1918V16.8073L0.585787 14.4139ZM16.8787 9.70662C17.2692 9.31609 17.2692 8.68293 16.8787 8.29241C16.4882 7.90188 15.855 7.90188 15.4645 8.29241L7.46447 16.2924C7.07394 16.6829 7.07394 17.3161 7.46447 17.7066C7.85499 18.0971 8.48816 18.0971 8.87868 17.7066L16.8787 9.70662ZM7 9.49951C7 8.67108 7.67157 7.99951 8.5 7.99951C9.32843 7.99951 10 8.67108 10 9.49951C10 10.3279 9.32843 10.9995 8.5 10.9995C7.67157 10.9995 7 10.3279 7 9.49951ZM15.5 14.9995C14.6716 14.9995 14 15.6711 14 16.4995C14 17.3279 14.6716 17.9995 15.5 17.9995C16.3284 17.9995 17 17.3279 17 16.4995C17 15.6711 16.3284 14.9995 15.5 14.9995Z" fill="#00D68F"/> </svg>
