<svg width="32" height="26" viewBox="0 0 32 26" fill="none" xmlns="http://www.w3.org/2000/svg"> <path d="M3.33317 13.3333C3.33317 10.756 5.42251 8.66667 7.99984 8.66667H23.9998C26.5772 8.66667 28.6665 10.756 28.6665 13.3333V20C28.6665 22.5773 26.5772 24.6667 23.9998 24.6667H7.99983C5.42251 24.6667 3.33317 22.5773 3.33317 20V13.3333Z" fill="#A4CDFF" stroke="#002755" stroke-width="1.33333"/> <path d="M18.6668 21.8085C16.6668 20.9711 15.0002 21.3044 13.3335 22.3038" stroke="#002755" stroke-width="1.33333" stroke-linecap="round"/> <path fill-rule="evenodd" clip-rule="evenodd" d="M22.667 23.9997H24.0003C26.2095 23.9997 28.0003 22.2088 28.0003 19.9997V13.333C28.0003 11.1239 26.2095 9.33301 24.0003 9.33301H22.667C24.8761 9.33301 26.667 11.1239 26.667 13.333V19.9997C26.667 22.2088 24.8761 23.9997 22.667 23.9997Z" fill="#80B9FF"/> <path d="M2.86815 13.3333C2.86815 10.4992 5.16568 8.20165 7.99984 8.20165H23.9998C26.834 8.20165 29.1315 10.4992 29.1315 13.3333V20C29.1315 22.8342 26.834 25.1317 23.9998 25.1317H7.99983C5.16568 25.1317 2.86815 22.8342 2.86815 20V13.3333Z" stroke="#002755" stroke-width="0.403292"/> <path d="M6.6665 16.667C6.6665 18.8761 8.45736 20.667 10.6665 20.667H11.9998C14.209 20.667 15.9998 18.8761 15.9998 16.667C15.9998 14.4579 14.209 12.667 11.9998 12.667H10.6665C8.45736 12.667 6.6665 14.4579 6.6665 16.667Z" fill="#80B9FF"/> <path d="M6.66667 16C6.66667 17.8409 8.15905 19.3333 10 19.3333H11.3333C13.1743 19.3333 14.6667 17.8409 14.6667 16C14.6667 14.1591 13.1743 12.6667 11.3333 12.6667H10C8.15905 12.6667 6.66667 14.1591 6.66667 16Z" fill="white" stroke="#002755" stroke-width="1.33333"/> <rect width="9.33333" height="9.33333" rx="4.66667" transform="matrix(1 0 0 -1 17.3335 20.667)" fill="#80B9FF"/> <rect x="0.666667" y="-0.666667" width="8" height="8" rx="4" transform="matrix(1 0 0 -1 16.6665 18.6667)" fill="white" stroke="#002755" stroke-width="1.33333"/> <path d="M31.7984 18.6667C31.7984 19.2917 31.2917 19.7984 30.6667 19.7984L29.535 19.7984L29.535 13.535L30.6667 13.535C31.2917 13.535 31.7984 14.0417 31.7984 14.6667L31.7984 18.6667Z" fill="#002755" stroke="#002755" stroke-width="0.403292"/> <path d="M2.46486 19.7984L1.33317 19.7984C0.708157 19.7984 0.201483 19.2917 0.201483 18.6667L0.201484 14.6667C0.201484 14.0417 0.708157 13.535 1.33317 13.535L2.46486 13.535L2.46486 19.7984Z" fill="#002755" stroke="#002755" stroke-width="0.403292"/> <path d="M21.3335 13.667C21.3335 13.1147 21.7812 12.667 22.3335 12.667C22.8858 12.667 23.3335 13.1147 23.3335 13.667V15.0003C23.3335 15.5526 22.8858 16.0003 22.3335 16.0003C21.7812 16.0003 21.3335 15.5526 21.3335 15.0003V13.667Z" fill="#002755"/> <path d="M15.3335 3.99968C15.3335 3.63149 15.632 3.33301 16.0002 3.33301C16.3684 3.33301 16.6668 3.63148 16.6668 3.99967V7.99967C16.6668 8.36786 16.3684 8.66634 16.0002 8.66634C15.632 8.66634 15.3335 8.36786 15.3335 7.99967V3.99968Z" fill="#002755"/> <path d="M10.6665 13.667C10.6665 13.1147 11.1142 12.667 11.6665 12.667C12.2188 12.667 12.6665 13.1147 12.6665 13.667V15.0003C12.6665 15.5526 12.2188 16.0003 11.6665 16.0003C11.1142 16.0003 10.6665 15.5526 10.6665 15.0003V13.667Z" fill="#002755"/> <circle cx="16.0002" cy="2.66667" r="2.46502" fill="#002755" stroke="#002755" stroke-width="0.403292"/> </svg>
