<svg width="32" height="26" viewBox="0 0 32 26" fill="none" xmlns="http://www.w3.org/2000/svg"> <path d="M3.33317 13.3334C3.33317 10.756 5.42252 8.66667 7.99987 8.66667H24C26.5773 8.66667 28.6666 10.756 28.6666 13.3334V20.0001C28.6666 22.5774 26.5773 24.6668 23.9999 24.6668H7.99986C5.42252 24.6668 3.33317 22.5774 3.33317 20.0001V13.3334Z" fill="#A4CDFF" stroke="#002755" stroke-width="1.33334"/> <path fill-rule="evenodd" clip-rule="evenodd" d="M22.6665 24.0017H23.9998C26.209 24.0017 27.9999 22.2108 27.9999 20.0017V13.335C27.9999 11.1258 26.209 9.33496 23.9998 9.33496H22.6665C24.8757 9.33496 26.6665 11.1258 26.6665 13.335V20.0017C26.6665 22.2108 24.8757 24.0017 22.6665 24.0017Z" fill="#80B9FF"/> <path d="M2.86815 13.3334C2.86815 10.4992 5.1657 8.20165 7.99987 8.20165H24C26.8341 8.20165 29.1317 10.4992 29.1317 13.3334V20.0001C29.1317 22.8342 26.8341 25.1318 23.9999 25.1318H7.99986C5.1657 25.1318 2.86815 22.8342 2.86815 20.0001V13.3334Z" stroke="#002755" stroke-width="0.403294"/> <rect width="9.33338" height="9.33338" rx="4.66669" transform="matrix(1 0 0 -1 6.66699 20.667)" fill="#80B9FF"/> <rect x="0.66667" y="-0.66667" width="8.00004" height="8.00004" rx="4.00002" transform="matrix(1 0 0 -1 6 18.6667)" fill="white" stroke="#002755" stroke-width="1.33334"/> <rect width="9.33338" height="9.33338" rx="4.66669" transform="matrix(1 0 0 -1 17.333 20.667)" fill="#80B9FF"/> <rect x="0.66667" y="-0.66667" width="8.00004" height="8.00004" rx="4.00002" transform="matrix(1 0 0 -1 16.6665 18.6667)" fill="white" stroke="#002755" stroke-width="1.33334"/> <path d="M31.7984 18.6667C31.7984 19.2917 31.2917 19.7984 30.6667 19.7984L29.535 19.7984L29.535 13.5349L30.6667 13.5349C31.2917 13.5349 31.7984 14.0416 31.7984 14.6666L31.7984 18.6667Z" fill="#002755" stroke="#002755" stroke-width="0.403294"/> <path d="M2.46486 19.7984L1.33316 19.7984C0.708147 19.7984 0.20147 19.2917 0.20147 18.6667L0.201471 14.6666C0.201471 14.0416 0.708147 13.5349 1.33316 13.5349L2.46486 13.5349L2.46486 19.7984Z" fill="#002755" stroke="#002755" stroke-width="0.403294"/> <path d="M13.333 21.334C13.6371 22.113 15.0845 21.334 15.9997 21.334C16.9149 21.334 18.3623 22.113 18.6664 21.334" stroke="#002755" stroke-width="1.33334" stroke-linecap="round" stroke-linejoin="round"/> <path d="M20.667 14.6667C20.667 14.2985 20.9655 14 21.3337 14C21.7019 14 22.0003 14.2985 22.0003 14.6667V16C22.0003 16.3682 21.7019 16.6667 21.3337 16.6667C20.9655 16.6667 20.667 16.3682 20.667 16V14.6667Z" fill="#002755"/> <path d="M15.333 4.00065C15.333 3.63246 15.6315 3.33398 15.9997 3.33398C16.3679 3.33398 16.6663 3.63246 16.6663 4.00065V8.00068C16.6663 8.36887 16.3679 8.66735 15.9997 8.66735C15.6315 8.66735 15.333 8.36887 15.333 8.00068V4.00065Z" fill="#002755"/> <path d="M10 14.6667C10 14.2985 10.2985 14 10.6667 14C11.0349 14 11.3333 14.2985 11.3333 14.6667V16C11.3333 16.3682 11.0349 16.6667 10.6667 16.6667C10.2985 16.6667 10 16.3682 10 16V14.6667Z" fill="#002755"/> <circle cx="15.9997" cy="2.66668" r="2.46503" fill="#002755" stroke="#002755" stroke-width="0.403294"/> </svg>
