<svg width="32" height="24" viewBox="0 0 32 24" fill="none" xmlns="http://www.w3.org/2000/svg"> <path d="M15.3335 3.99968C15.3335 3.63149 15.632 3.33301 16.0002 3.33301C16.3684 3.33301 16.6668 3.63148 16.6668 3.99967V7.99967C16.6668 8.36786 16.3684 8.66634 16.0002 8.66634C15.632 8.66634 15.3335 8.36786 15.3335 7.99967V3.99968Z" fill="#002755"/> <circle cx="16.0002" cy="2.66667" r="2.46502" fill="#002755" stroke="#002755" stroke-width="0.403292"/> <path d="M3.33317 12.0003C3.33317 9.423 5.42251 7.33366 7.99984 7.33366H23.9998C26.5772 7.33366 28.6665 9.423 28.6665 12.0003V18.667C28.6665 21.2443 26.5772 23.3337 23.9998 23.3337H7.99983C5.42251 23.3337 3.33317 21.2443 3.33317 18.667V12.0003Z" fill="#A4CDFF" stroke="#002755" stroke-width="1.33333"/> <path fill-rule="evenodd" clip-rule="evenodd" d="M22.667 22.6667H24.0003C26.2095 22.6667 28.0003 20.8758 28.0003 18.6667V12C28.0003 9.79086 26.2095 8 24.0003 8H22.667C24.8761 8 26.667 9.79086 26.667 12V18.6667C26.667 20.8758 24.8761 22.6667 22.667 22.6667Z" fill="#80B9FF"/> <path d="M2.86815 12.0003C2.86815 9.16617 5.16568 6.86864 7.99984 6.86864H23.9998C26.834 6.86864 29.1315 9.16617 29.1315 12.0003V18.667C29.1315 21.5011 26.834 23.7987 23.9998 23.7987H7.99983C5.16568 23.7987 2.86815 21.5011 2.86815 18.667V12.0003Z" stroke="#002755" stroke-width="0.403292"/> <rect width="9.33333" height="9.33333" rx="4.66667" transform="matrix(1 0 0 -1 6.6665 18)" fill="#80B9FF"/> <rect x="0.666667" y="-0.666667" width="8" height="8" rx="4" transform="matrix(1 0 0 -1 6 15.9997)" fill="white" stroke="#002755" stroke-width="1.33333"/> <rect width="9.33333" height="9.33333" rx="4.66667" transform="matrix(1 0 0 -1 17.3335 18)" fill="#80B9FF"/> <rect x="0.666667" y="-0.666667" width="8" height="8" rx="4" transform="matrix(1 0 0 -1 16.6665 15.9997)" fill="white" stroke="#002755" stroke-width="1.33333"/> <path d="M31.7984 17.3337C31.7984 17.9587 31.2917 18.4653 30.6667 18.4653L29.535 18.4653L29.535 12.202L30.6667 12.202C31.2917 12.202 31.7984 12.7086 31.7984 13.3337L31.7984 17.3337Z" fill="#002755" stroke="#002755" stroke-width="0.403292"/> <path d="M2.46486 18.4653L1.33317 18.4653C0.708157 18.4653 0.201483 17.9587 0.201483 17.3337L0.201484 13.3337C0.201484 12.7086 0.708157 12.202 1.33317 12.202L2.46486 12.202L2.46486 18.4653Z" fill="#002755" stroke="#002755" stroke-width="0.403292"/> <path d="M12.461 19.5245C13.2292 20.6162 14.5276 21.3337 16 21.3337C17.4724 21.3337 18.7708 20.6162 19.539 19.5245C19.809 19.1407 19.4934 18.667 19.0241 18.667H12.9759C12.5066 18.667 12.191 19.1407 12.461 19.5245Z" fill="#002755" stroke="#002755" stroke-width="1.33333" stroke-linecap="round" stroke-linejoin="round"/> <path d="M20.6665 11.667C20.6665 11.1147 21.1142 10.667 21.6665 10.667C22.2188 10.667 22.6665 11.1147 22.6665 11.667V13.667C22.6665 14.2193 22.2188 14.667 21.6665 14.667C21.1142 14.667 20.6665 14.2193 20.6665 13.667V11.667Z" fill="#002755"/> <path d="M9.3335 11.667C9.3335 11.1147 9.78121 10.667 10.3335 10.667C10.8858 10.667 11.3335 11.1147 11.3335 11.667V13.667C11.3335 14.2193 10.8858 14.667 10.3335 14.667C9.78121 14.667 9.3335 14.2193 9.3335 13.667V11.667Z" fill="#002755"/> </svg>
