<svg width="32" height="26" viewBox="0 0 32 26" fill="none" xmlns="http://www.w3.org/2000/svg"> <path d="M3.33317 13.3333C3.33317 10.756 5.42251 8.66667 7.99984 8.66667H23.9998C26.5772 8.66667 28.6665 10.756 28.6665 13.3333V20C28.6665 22.5773 26.5772 24.6667 23.9998 24.6667H7.99983C5.42251 24.6667 3.33317 22.5773 3.33317 20V13.3333Z" fill="#A4CDFF" stroke="#002755" stroke-width="1.33333"/> <path fill-rule="evenodd" clip-rule="evenodd" d="M22.667 23.9997H24.0003C26.2095 23.9997 28.0003 22.2088 28.0003 19.9997V13.333C28.0003 11.1239 26.2095 9.33301 24.0003 9.33301H22.667C24.8761 9.33301 26.667 11.1239 26.667 13.333V19.9997C26.667 22.2088 24.8761 23.9997 22.667 23.9997Z" fill="#80B9FF"/> <path d="M2.86815 13.3333C2.86815 10.4992 5.16568 8.20165 7.99984 8.20165H23.9998C26.834 8.20165 29.1315 10.4992 29.1315 13.3333V20C29.1315 22.8342 26.834 25.1317 23.9998 25.1317H7.99983C5.16568 25.1317 2.86815 22.8342 2.86815 20V13.3333Z" stroke="#002755" stroke-width="0.403292"/> <rect width="9.33333" height="9.33333" rx="4.66667" transform="matrix(1 0 0 -1 6.6665 20.667)" fill="#80B9FF"/> <rect x="0.666667" y="-0.666667" width="8" height="8" rx="4" transform="matrix(1 0 0 -1 6 18.6667)" fill="white" stroke="#002755" stroke-width="1.33333"/> <rect width="9.33333" height="9.33333" rx="4.66667" transform="matrix(1 0 0 -1 17.3335 20.667)" fill="#80B9FF"/> <rect x="0.666667" y="-0.666667" width="8" height="8" rx="4" transform="matrix(1 0 0 -1 16.6665 18.6667)" fill="white" stroke="#002755" stroke-width="1.33333"/> <path d="M31.7984 18.6667C31.7984 19.2917 31.2917 19.7984 30.6667 19.7984L29.535 19.7984L29.535 13.535L30.6667 13.535C31.2917 13.535 31.7984 14.0417 31.7984 14.6667L31.7984 18.6667Z" fill="#002755" stroke="#002755" stroke-width="0.403292"/> <path d="M2.46486 19.7984L1.33317 19.7984C0.708157 19.7984 0.201483 19.2917 0.201483 18.6667L0.201484 14.6667C0.201484 14.0417 0.708157 13.535 1.33317 13.535L2.46486 13.535L2.46486 19.7984Z" fill="#002755" stroke="#002755" stroke-width="0.403292"/> <path d="M14 21.333C14.3041 22.112 15.0848 22.6663 16 22.6663C16.9152 22.6663 17.6959 22.112 18 21.333H14Z" fill="#002755" stroke="#002755" stroke-width="1.33333" stroke-linecap="round" stroke-linejoin="round"/> <path d="M20.6665 13.9997C20.6665 13.6315 20.965 13.333 21.3332 13.333C21.7014 13.333 21.9998 13.6315 21.9998 13.9997V16.6663C21.9998 17.0345 21.7014 17.333 21.3332 17.333C20.965 17.333 20.6665 17.0345 20.6665 16.6663V13.9997Z" fill="#002755"/> <path d="M15.3335 3.99968C15.3335 3.63149 15.632 3.33301 16.0002 3.33301C16.3684 3.33301 16.6668 3.63148 16.6668 3.99967V7.99967C16.6668 8.36786 16.3684 8.66634 16.0002 8.66634C15.632 8.66634 15.3335 8.36786 15.3335 7.99967V3.99968Z" fill="#002755"/> <path d="M10 13.9997C10 13.6315 10.2985 13.333 10.6667 13.333C11.0349 13.333 11.3333 13.6315 11.3333 13.9997V16.6663C11.3333 17.0345 11.0349 17.333 10.6667 17.333C10.2985 17.333 10 17.0345 10 16.6663V13.9997Z" fill="#002755"/> <circle cx="16.0002" cy="2.66667" r="2.46502" fill="#002755" stroke="#002755" stroke-width="0.403292"/> </svg>
