<svg width="110" height="40" viewBox="0 0 110 40" fill="none" xmlns="http://www.w3.org/2000/svg"> <rect width="110" height="40" fill="white"/> <path d="M102.344 27.1206C102.344 25.5651 103.602 24.3032 105.151 24.3032C106.701 24.3032 107.957 25.5651 107.957 27.1206C107.957 28.676 106.701 29.9371 105.151 29.9371C103.602 29.9371 102.344 28.676 102.344 27.1206Z" fill="#A8AEB2"/> <path d="M12.8208 19.6589C12.8208 17.8744 12.4773 16.5505 11.7901 15.688C11.1021 14.8263 10.0599 14.3959 8.65876 14.3959H7.16828V25.3084H8.30863C9.86493 25.3084 11.0054 24.8454 11.7316 23.916C12.4569 22.9883 12.8208 21.569 12.8208 19.6589ZM18.1363 19.4731C18.1363 22.7242 17.2655 25.2293 15.524 26.9878C13.7825 28.747 11.3344 29.6266 8.1787 29.6266H2.04688V10.1453H8.60673C11.6495 10.1453 13.9985 10.945 15.6539 12.5437C17.3086 14.1432 18.1363 16.4519 18.1363 19.4731Z" fill="#A8AEB2"/> <path d="M35.1211 29.6267H40.0004V10.0639H35.1211V29.6267Z" fill="#A8AEB2"/> <path d="M46.8572 22.3296C46.8572 23.5769 47.0196 24.5283 47.3437 25.1821C47.6686 25.8367 48.2128 26.1636 48.978 26.1636C49.735 26.1636 50.2703 25.8367 50.5822 25.1821C50.8941 24.5283 51.0492 23.5769 51.0492 22.3296C51.0492 21.0889 50.8916 20.153 50.5757 19.5212C50.2589 18.8878 49.7188 18.5706 48.9529 18.5706C48.204 18.5706 47.6686 18.8861 47.3437 19.5139C47.0196 20.1424 46.8572 21.0807 46.8572 22.3296ZM56.0155 22.3296C56.0155 24.706 55.3948 26.5598 54.1504 27.8886C52.9069 29.2182 51.1662 29.8834 48.9285 29.8834C46.7824 29.8834 45.0742 29.2035 43.8063 27.8438C42.5367 26.484 41.9023 24.6465 41.9023 22.3296C41.9023 19.9606 42.5238 18.1198 43.7682 16.8073C45.0125 15.4948 46.7572 14.8386 49.004 14.8386C50.3922 14.8386 51.6203 15.1427 52.6844 15.75C53.7492 16.3573 54.5713 17.2272 55.1488 18.3603C55.7271 19.4919 56.0155 20.8158 56.0155 22.3296Z" fill="#A8AEB2"/> <path d="M57.9531 29.6268H62.8332V22.1398V15.0955H57.9531V29.6268Z" fill="#A8AEB2"/> <path d="M57.9531 13.3377H62.8332V10.063H57.9531V13.3377Z" fill="#A8AEB2"/> <path d="M72.7175 25.9204C73.3763 25.9204 74.1609 25.7525 75.0763 25.4191V29.0753C74.4183 29.3655 73.793 29.5734 73.1984 29.6965C72.6038 29.8212 71.906 29.8832 71.1076 29.8832C69.4692 29.8832 68.2882 29.4699 67.5628 28.6449C66.8407 27.8199 66.4785 26.553 66.4785 24.8435V18.8533H64.7695V15.0967H66.4785V11.3859L71.396 10.5274V15.0967H74.5094V18.8533H71.396V24.5093C71.396 25.45 71.837 25.9204 72.7175 25.9204Z" fill="#A8AEB2"/> <path d="M84.0074 25.9204C84.6662 25.9204 85.4509 25.7525 86.3663 25.4191V29.0753C85.7092 29.3655 85.0828 29.5734 84.4882 29.6965C83.8929 29.8212 83.1976 29.8832 82.3974 29.8832C80.7591 29.8832 79.5782 29.4699 78.8544 28.6449C78.1307 27.8199 77.7685 26.553 77.7685 24.8435V18.8533H76.0586V15.0967H77.7685V11.3296L82.6851 10.5274V15.0967H85.8001V18.8533H82.6851V24.5093C82.6851 25.45 83.1261 25.9204 84.0074 25.9204Z" fill="#A8AEB2"/> <path d="M92.5256 20.5594C92.5923 19.7637 92.819 19.1809 93.2056 18.8083C93.5939 18.4366 94.0731 18.2507 94.6466 18.2507C95.272 18.2507 95.7691 18.4594 96.1379 18.88C96.509 19.2982 96.7024 19.8583 96.7179 20.5594H92.5256ZM99.4072 16.5518C98.2473 15.4105 96.6016 14.839 94.4727 14.839C92.2349 14.839 90.513 15.4952 89.3059 16.8077C88.0997 18.1202 87.4961 20.0034 87.4961 22.4572C87.4961 24.8336 88.1484 26.6662 89.4497 27.9526C90.7517 29.239 92.58 29.8831 94.9348 29.8831C96.0655 29.8831 97.0387 29.8056 97.8542 29.6516C98.6649 29.4991 99.4495 29.2235 100.211 28.8257L99.4609 25.551C98.9077 25.7776 98.3813 25.9521 97.8842 26.067C97.1662 26.2341 96.3784 26.3181 95.5206 26.3181C94.58 26.3181 93.8376 26.0874 93.2933 25.626C92.7491 25.1637 92.4591 24.5263 92.4259 23.7143H101.148V21.483C101.148 19.3366 100.568 17.6923 99.4072 16.5518Z" fill="#A8AEB2"/> <path d="M24.6116 20.5594C24.6782 19.7637 24.9048 19.1809 25.2914 18.8083C25.6789 18.4366 26.159 18.2507 26.7333 18.2507C27.3571 18.2507 27.8542 18.4594 28.2238 18.88C28.595 19.2982 28.7875 19.8583 28.8046 20.5594H24.6116ZM31.494 16.5518C30.3333 15.4105 28.6883 14.839 26.5586 14.839C24.32 14.839 22.5987 15.4952 21.3925 16.8077C20.1863 18.1202 19.582 20.0034 19.582 22.4572C19.582 24.8336 20.2335 26.6662 21.5364 27.9526C22.8376 29.239 24.666 29.8831 27.0208 29.8831C28.1515 29.8831 29.1245 29.8056 29.94 29.6516C30.7507 29.4991 31.5354 29.2235 32.2973 28.8257L31.5468 25.551C30.9936 25.7776 30.4672 25.9521 29.971 26.067C29.2513 26.2341 28.4642 26.3181 27.6063 26.3181C26.6666 26.3181 25.9235 26.0874 25.3793 25.626C24.8342 25.1637 24.5451 24.5263 24.5118 23.7143H33.2338V21.483C33.2338 19.3366 32.6539 17.6923 31.494 16.5518Z" fill="#A8AEB2"/> </svg>
