<svg width="113" height="40" viewBox="0 0 113 40" fill="none" xmlns="http://www.w3.org/2000/svg"> <rect width="113" height="40" fill="white"/> <g clip-path="url(#clip0_4030:53968)"> <path d="M46.9945 12.8V27.2H44.4841V15.9H44.4507L39.9655 27.2H38.2919L33.7063 15.9H33.6728V27.2H31.3633V12.8H34.9782L39.1287 23.4667H39.1956L43.5804 12.8H46.9945ZM49.0697 13.9C49.0697 13.5 49.2036 13.1667 49.5049 12.9C49.8061 12.6333 50.1408 12.5 50.5425 12.5C50.9776 12.5 51.3458 12.6333 51.6136 12.9C51.8813 13.1667 52.0487 13.5 52.0487 13.9C52.0487 14.3 51.9148 14.6333 51.6136 14.9C51.3123 15.1667 50.9776 15.3 50.5425 15.3C50.1074 15.3 49.7726 15.1667 49.5049 14.9C49.2371 14.6 49.0697 14.2667 49.0697 13.9ZM51.7809 16.8667V27.2H49.3375V16.8667H51.7809ZM59.1782 25.4333C59.5463 25.4333 59.948 25.3667 60.3831 25.1667C60.8183 25 61.2199 24.7667 61.5881 24.5V26.7667C61.1864 27 60.7513 27.1667 60.2492 27.2667C59.7472 27.3667 59.2116 27.4333 58.6091 27.4333C57.0694 27.4333 55.831 26.9667 54.8938 26C53.9231 25.0333 53.4545 23.8 53.4545 22.3333C53.4545 20.6667 53.9566 19.3 54.9273 18.2333C55.8979 17.1667 57.2703 16.6333 59.0777 16.6333C59.5463 16.6333 60.0149 16.7 60.4501 16.8C60.9187 16.9 61.2869 17.0667 61.5546 17.2V19.5333C61.1864 19.2667 60.7848 19.0333 60.4166 18.9C60.0149 18.7667 59.6133 18.6667 59.2116 18.6667C58.2409 18.6667 57.4711 18.9667 56.8686 19.6C56.2661 20.2333 55.9984 21.0667 55.9984 22.1333C55.9984 23.1667 56.2996 24 56.8686 24.5667C57.4376 25.1333 58.2075 25.4333 59.1782 25.4333ZM68.5167 16.7C68.7175 16.7 68.8849 16.7 69.0523 16.7333C69.2196 16.7667 69.3535 16.8 69.4539 16.8333V19.3C69.32 19.2 69.1527 19.1 68.8849 19.0333C68.6171 18.9667 68.3494 18.9 67.9812 18.9C67.3787 18.9 66.8766 19.1667 66.475 19.6667C66.0733 20.1667 65.839 20.9333 65.839 22V27.2H63.3956V16.8667H65.839V18.5H65.8725C66.1068 17.9333 66.4415 17.5 66.8766 17.1667C67.3452 16.8667 67.8808 16.7 68.5167 16.7ZM69.5878 22.2C69.5878 20.5 70.0899 19.1333 71.0271 18.1333C71.9978 17.1333 73.3366 16.6333 75.0437 16.6333C76.6503 16.6333 77.9222 17.1 78.826 18.0667C79.7297 19.0333 80.1983 20.3333 80.1983 21.9667C80.1983 23.6333 79.6962 24.9667 78.759 25.9667C77.7883 26.9667 76.4829 27.4667 74.8094 27.4667C73.2027 27.4667 71.9308 27 70.9936 26.0667C70.0564 25.1 69.5878 23.8 69.5878 22.2ZM72.1316 22.1C72.1316 23.1667 72.3659 24 72.868 24.5667C73.3701 25.1333 74.073 25.4333 74.9767 25.4333C75.847 25.4333 76.5499 25.1667 77.0185 24.5667C77.4871 24 77.7214 23.1667 77.7214 22.0333C77.7214 20.9333 77.4871 20.1 77.0185 19.5C76.5499 18.9333 75.847 18.6333 75.0102 18.6333C74.1065 18.6333 73.437 18.9333 72.935 19.5333C72.3659 20.1667 72.1316 21 72.1316 22.1ZM83.8467 19.6C83.8467 19.9333 83.9471 20.2333 84.1814 20.4333C84.4157 20.6333 84.8843 20.8667 85.6542 21.1667C86.6248 21.5667 87.3277 22 87.6959 22.4667C88.0976 22.9667 88.2984 23.5333 88.2984 24.2333C88.2984 25.2 87.9302 25.9667 87.1604 26.5667C86.424 27.1667 85.3864 27.4333 84.1145 27.4333C83.6793 27.4333 83.2107 27.3667 82.6752 27.2667C82.1396 27.1667 81.7045 27.0333 81.3363 26.8667V24.4667C81.7715 24.7667 82.2735 25.0333 82.7756 25.2C83.2777 25.3667 83.7463 25.4667 84.1814 25.4667C84.717 25.4667 85.1521 25.4 85.3864 25.2333C85.6542 25.0667 85.788 24.8333 85.788 24.4667C85.788 24.1333 85.6542 23.8667 85.3864 23.6C85.1186 23.3667 84.5831 23.1 83.8467 22.8C82.943 22.4333 82.307 22 81.9388 21.5333C81.5706 21.0667 81.3698 20.4667 81.3698 19.7333C81.3698 18.8 81.738 18.0333 82.4744 17.4333C83.2107 16.8333 84.1814 16.5333 85.3529 16.5333C85.7211 16.5333 86.1228 16.5667 86.5579 16.6667C86.993 16.7667 87.3947 16.8667 87.6959 16.9667V19.3333C87.3612 19.1333 86.993 18.9333 86.5579 18.7667C86.1228 18.6 85.6876 18.5333 85.286 18.5333C84.8174 18.5333 84.4492 18.6333 84.2149 18.8C83.9806 19.0333 83.8467 19.2667 83.8467 19.6ZM89.336 22.2C89.336 20.5 89.8381 19.1333 90.7753 18.1333C91.746 17.1333 93.0849 16.6333 94.7919 16.6333C96.3985 16.6333 97.6704 17.1 98.5742 18.0667C99.4779 19.0333 99.9465 20.3333 99.9465 21.9667C99.9465 23.6333 99.4444 24.9667 98.5072 25.9667C97.5366 26.9667 96.2312 27.4667 94.5576 27.4667C92.951 27.4667 91.679 27 90.7418 26.0667C89.8381 25.1 89.336 23.8 89.336 22.2ZM91.8799 22.1C91.8799 23.1667 92.1142 24 92.6162 24.5667C93.1183 25.1333 93.8212 25.4333 94.725 25.4333C95.5952 25.4333 96.2981 25.1667 96.7667 24.5667C97.2353 24 97.4696 23.1667 97.4696 22.0333C97.4696 20.9333 97.2353 20.1 96.7667 19.5C96.2981 18.9333 95.5952 18.6333 94.7584 18.6333C93.8547 18.6333 93.1853 18.9333 92.6832 19.5333C92.1476 20.1667 91.8799 21 91.8799 22.1ZM108.08 18.8667H104.432V27.2H101.955V18.8667H100.214V16.8667H101.955V15.4333C101.955 14.3667 102.323 13.4667 103.026 12.7667C103.729 12.0667 104.633 11.7333 105.737 11.7333C106.038 11.7333 106.306 11.7667 106.54 11.7667C106.775 11.7667 106.976 11.8333 107.143 11.9V14C107.076 13.9667 106.909 13.9 106.708 13.8333C106.507 13.7667 106.273 13.7333 106.005 13.7333C105.503 13.7333 105.101 13.9 104.833 14.2C104.566 14.5 104.432 15 104.432 15.6V16.8333H108.08V14.5L110.524 13.7667V16.8333H113V18.8333H110.524V23.6667C110.524 24.3 110.657 24.7333 110.858 25C111.093 25.2667 111.461 25.4 111.963 25.4C112.097 25.4 112.264 25.3667 112.465 25.3C112.666 25.2333 112.833 25.1667 112.967 25.0667V27.0667C112.8 27.1667 112.565 27.2333 112.197 27.3C111.829 27.3667 111.494 27.4 111.126 27.4C110.088 27.4 109.319 27.1333 108.816 26.6C108.314 26.0667 108.047 25.2333 108.047 24.1333L108.08 18.8667Z" fill="#A8AEB2"/> <path d="M11.4473 8H0V19.4H11.4473V8Z" fill="#A8AEB2"/> <path d="M24.0996 8H12.6523V19.4H24.0996V8Z" fill="#A8AEB2"/> <path d="M11.4473 20.6001H0V32.0001H11.4473V20.6001Z" fill="#A8AEB2"/> <path d="M24.0996 20.6001H12.6523V32.0001H24.0996V20.6001Z" fill="#A8AEB2"/> </g> <defs> <clipPath id="clip0_4030:53968"> <rect width="113" height="24" fill="white" transform="translate(0 8)"/> </clipPath> </defs> </svg>
