<svg width="33" height="32" viewBox="0 0 33 32" fill="none" xmlns="http://www.w3.org/2000/svg"> <path d="M15.3335 11.9997C15.3335 11.6315 15.632 11.333 16.0002 11.333C16.3684 11.333 16.6668 11.6315 16.6668 11.9997V15.9997C16.6668 16.3679 16.3684 16.6663 16.0002 16.6663C15.632 16.6663 15.3335 16.3679 15.3335 15.9997V11.9997Z" fill="#002755"/> <circle cx="16.0002" cy="10.6667" r="2.46502" fill="#002755" stroke="#002755" stroke-width="0.403292"/> <path d="M3.33317 20.0003C3.33317 17.423 5.42251 15.3337 7.99984 15.3337H23.9998C26.5772 15.3337 28.6665 17.423 28.6665 20.0003V26.667C28.6665 29.2443 26.5772 31.3337 23.9998 31.3337H7.99983C5.4225 31.3337 3.33317 29.2443 3.33317 26.667V20.0003Z" fill="#A4CDFF" stroke="#002755" stroke-width="1.33333"/> <path d="M8.146 19.8194C8.7572 19.1135 9.65991 18.667 10.6669 18.667C11.6739 18.667 12.5766 19.1135 13.1878 19.8194" stroke="#002755" stroke-width="1.33333" stroke-linecap="round"/> <path d="M18.6665 19.8194C19.2777 19.1135 20.1804 18.667 21.1874 18.667C22.1944 18.667 23.0971 19.1135 23.7083 19.8194" stroke="#002755" stroke-width="1.33333" stroke-linecap="round"/> <path fill-rule="evenodd" clip-rule="evenodd" d="M22.667 30.6667H24.0003C26.2095 30.6667 28.0003 28.8758 28.0003 26.6667V20C28.0003 17.7909 26.2095 16 24.0003 16H22.667C24.8761 16 26.667 17.7909 26.667 20V26.6667C26.667 28.8758 24.8761 30.6667 22.667 30.6667Z" fill="#80B9FF"/> <path d="M2.86815 20.0003C2.86815 17.1662 5.16568 14.8686 7.99984 14.8686H23.9998C26.834 14.8686 29.1315 17.1662 29.1315 20.0003V26.667C29.1315 29.5011 26.834 31.7987 23.9998 31.7987H7.99983C5.16568 31.7987 2.86815 29.5011 2.86815 26.667V20.0003Z" stroke="#002755" stroke-width="0.403292"/> <path d="M31.7984 25.3337C31.7984 25.9587 31.2917 26.4653 30.6667 26.4653L29.535 26.4653L29.535 20.202L30.6667 20.202C31.2917 20.202 31.7984 20.7086 31.7984 21.3337L31.7984 25.3337Z" fill="#002755" stroke="#002755" stroke-width="0.403292"/> <path d="M2.46486 26.4653L1.33317 26.4653C0.708158 26.4653 0.201484 25.9587 0.201484 25.3337L0.201485 21.3337C0.201485 20.7086 0.708158 20.202 1.33317 20.202L2.46486 20.202L2.46486 26.4653Z" fill="#002755" stroke="#002755" stroke-width="0.403292"/> <path d="M10.9877 25.6739C12.1618 27.0916 13.9708 28 16 28C18.0292 28 19.8382 27.0916 21.0123 25.6739C21.6109 24.9511 20.9867 24 20.0482 24H11.9518C11.0133 24 10.3891 24.9511 10.9877 25.6739Z" fill="#002755" stroke="#002755" stroke-width="1.33333" stroke-linecap="round" stroke-linejoin="round"/> <path d="M14.9343 2.07005C15.0144 1.60112 15.5457 1.36454 15.9478 1.61881L18.1129 2.98805C18.5629 3.27265 18.5141 3.94396 18.0277 4.16053L15.4314 5.31646C14.945 5.53304 14.4135 5.12009 14.5031 4.59522L14.9343 2.07005Z" fill="#00D68F"/> <path d="M5.34079 5.7969C5.61101 5.73547 6.24201 5.65581 6.69395 6.23802C7.14588 6.82024 6.83401 7.15984 7.28187 7.73798C7.72973 8.31612 8.37574 8.21002 8.62524 8.16931" stroke="#FFAA00" stroke-width="1.33333" stroke-linecap="round"/> <path d="M5.34079 5.7969C5.61101 5.73547 6.24201 5.65581 6.69395 6.23802C7.14588 6.82024 6.83401 7.15984 7.28187 7.73798C7.72973 8.31612 8.37574 8.21002 8.62524 8.16931" stroke="white" stroke-opacity="0.2" stroke-width="1.33333" stroke-linecap="round"/> <path d="M28.0073 11.5019C28.2775 11.5634 28.9085 11.643 29.3604 11.0608C29.8124 10.4786 29.5005 10.139 29.9484 9.56085C30.3962 8.98271 31.0422 9.08881 31.2917 9.12952" stroke="#0095FF" stroke-width="1.33333" stroke-linecap="round"/> <path d="M28.0073 11.5019C28.2775 11.5634 28.9085 11.643 29.3604 11.0608C29.8124 10.4786 29.5005 10.139 29.9484 9.56085C30.3962 8.98271 31.0422 9.08881 31.2917 9.12952" stroke="white" stroke-opacity="0.3" stroke-width="1.33333" stroke-linecap="round"/> <rect x="22.6665" y="4.66602" width="4" height="4" rx="0.666666" transform="rotate(30 22.6665 4.66602)" fill="#BB6BD9"/> <rect x="22.6665" y="4.66602" width="4" height="4" rx="0.666666" transform="rotate(30 22.6665 4.66602)" fill="white" fill-opacity="0.2"/> <circle cx="30.6668" cy="16.6663" r="1.33333" fill="#FF3D71"/> <circle cx="22.0002" cy="11.9997" r="0.666666" fill="#FFAA00"/> <circle cx="22.0002" cy="11.9997" r="0.666666" fill="white" fill-opacity="0.2"/> <circle cx="10.6667" cy="3.99967" r="0.666666" fill="#FF3D71"/> <circle cx="8.00016" cy="11.9997" r="0.666666" fill="#00D68F"/> <circle cx="2.66667" cy="13.3327" r="2" stroke="#0095FF" stroke-width="1.33333"/> <circle cx="2.66667" cy="13.3327" r="2" stroke="white" stroke-opacity="0.3" stroke-width="1.33333"/> </svg>
