<svg width="302" height="312" viewBox="0 0 302 312" fill="none" xmlns="http://www.w3.org/2000/svg"> <g clip-path="url(#clip0)"> <path d="M96.2658 44.6217C96.2658 44.6217 114.414 5.74737 148.5 13.5001C182.586 21.2529 177.382 45.2105 196.5 60.0001C215.618 74.7898 222.5 74.0001 233.5 84.5001C244.5 95.0001 242.348 109.906 239.826 119.652C237.304 129.398 239.826 136.963 261.466 140.567C283.105 144.171 279.867 162.931 277.337 174.832C274.807 186.734 276.979 187.849 289.963 193.234C302.947 198.62 311.213 222.405 282 232.5C252.787 242.596 282.747 265.002 256.056 280.158C229.364 295.313 104 268.668 124.5 227.5C145 186.332 110.519 183.437 104 153.5C97.481 123.563 115.375 113.518 111.771 99.8103C86.886 98.6957 69.2165 58.6547 96.2658 44.6217Z" fill="#327ACF"/> <path d="M167.324 179.851C167.324 179.851 160.816 233.6 133.775 222.056C106.734 210.512 106.002 162.182 119.71 152.436C125.119 148.108 126.567 153.16 127.283 157.846C127.999 162.532 133.059 158.212 131.977 152.802C130.895 147.392 128.365 144.862 128.365 144.862C134.141 149.914 132.693 155.682 136.663 156.764C140.633 157.846 139.551 146.31 134.499 141.616C143.879 146.668 143.513 154.966 147.515 153.884C151.518 152.802 147.157 135.482 132.368 131.52C117.578 127.559 93.4087 132.236 85.477 168.673C77.5452 205.111 97.7366 267.108 167.715 254.906C183.554 205.827 167.324 179.851 167.324 179.851Z" fill="#F6A502"/> <path d="M135.937 292.222C144.959 291.864 144.235 295.476 144.235 297.989C144.235 300.503 144.593 302.325 136.303 301.959C128.014 301.593 25.202 300.161 20.1582 300.161C15.1144 300.161 1.04066 201.328 0.316631 193.03C-0.407394 184.732 -0.0413088 185.456 2.83852 184.732C5.71835 184.008 6.45052 186.538 7.16641 191.24C7.8823 195.942 20.1826 288.634 28.4479 289.35C36.7132 290.066 135.937 292.222 135.937 292.222Z" fill="#2D60AA"/> <path d="M198.341 131.878C225.39 158.928 257.492 205.095 266.513 298.884C267.953 326.658 232.964 300.69 214.213 301.772C195.461 302.854 162.27 321.606 156.502 287.34C164.27 223.5 152.001 244.5 144 219C136 193.5 164.27 177.5 164.271 152.159" fill="white"/> <path d="M164.271 211.952C161.223 225.28 159.176 238.816 158.145 252.449C115.582 243.785 62.7202 242.256 51.1765 261.731C39.6327 281.206 47.9224 281.206 52.9743 273.633C58.0262 266.059 59.8322 266.059 59.8322 266.059C59.8322 266.059 54.0563 274.357 54.0563 281.206C54.0563 288.056 60.7352 286.437 62.7202 277.952C64.7052 269.467 68.488 268.036 68.488 268.036C68.488 268.036 65.6 272.364 67.406 280.482C69.212 288.601 75.1588 287.153 74.8008 282.825C74.4429 278.498 74.8009 273.625 77.8678 271.103C82.0167 273.804 91.3884 268.939 91.3884 268.939C91.3884 268.939 163.734 293.645 180.688 281.198C197.641 268.752 203.588 214.287 203.588 214.287L164.271 211.952Z" fill="#FFBE3D"/> <path d="M187.361 158.569C187.361 158.569 163.915 174.84 157.781 212.676C180.869 228.19 205.933 226.018 205.933 226.018L208.642 185.627L187.361 158.569Z" fill="white"/> <path d="M7.89091 50.0883C7.89091 50.0883 6.54049 30.3443 28.725 29.5308C50.9094 28.7173 63.6165 52.2522 57.4012 64.4305C51.186 76.6088 44.686 77.162 38.1942 79.6025C41.1635 85.8259 47.6554 100.428 47.6554 100.428" stroke="#78B6FF" stroke-width="5.69458" stroke-linecap="round" stroke-linejoin="round"/> <path d="M220.607 6.16649C220.607 6.16649 227.172 -1.36664 235.388 6.2641C243.605 13.8948 239.732 26.8378 233.167 28.9611C226.602 31.0844 224.089 28.9611 220.9 27.513C219.736 30.7671 216.832 38.3328 216.832 38.3328" stroke="#78B6FF" stroke-width="5.69458" stroke-linecap="round" stroke-linejoin="round"/> <path d="M278.056 63.8608C278.056 63.8608 286.647 58.7519 292.065 68.571C297.483 78.3901 289.771 89.4701 282.864 89.4376C275.957 89.405 274.241 86.6065 271.662 84.2311C269.539 86.9889 264.43 93.2448 264.43 93.2448" stroke="#78B6FF" stroke-width="5.69458" stroke-linecap="round" stroke-linejoin="round"/> <path d="M51.9858 112.582C53.377 109.328 58.2092 110.687 58.7543 113.664C59.2993 116.641 59.0227 119.074 54.6867 118.805C50.3507 118.537 51.1805 114.478 51.9858 112.582Z" fill="#78B6FF"/> <path d="M208.895 46.8423C210.278 43.5882 215.118 44.9468 215.655 47.9243C216.192 50.9017 215.923 53.3341 211.587 53.0656C207.251 52.7972 208.081 48.7377 208.895 46.8423Z" fill="#78B6FF"/> <path d="M253.799 98.5166C255.182 95.2626 260.023 96.6211 260.56 99.5985C261.096 102.576 260.836 105.008 256.492 104.74C252.148 104.472 252.986 100.404 253.799 98.5166Z" fill="#78B6FF"/> <path d="M198.344 131.879C171.295 104.83 172.735 97.2558 172.735 97.2558C154.341 96.8897 156.863 122.865 156.863 122.865C161.011 133.128 163.599 143.954 164.542 154.983C164.542 154.983 169.489 158.237 179.95 151.729C190.412 145.221 198.344 131.879 198.344 131.879Z" fill="#F6A502"/> <path d="M118.983 46.3948C96.8963 49.055 98.4257 96.8894 122.237 123.947C146.049 151.004 168.388 139.802 166.354 98.3131C164.32 56.824 148.928 42.7828 118.983 46.3948Z" fill="#FFBE3D"/> <path d="M100.594 50.7231C100.594 50.7231 125.3 103.658 164.796 76.3406C178.87 65.1548 162.632 39.1793 142.831 36.6574C123.03 34.1356 100.594 50.7231 100.594 50.7231Z" fill="#327ACF"/> <path d="M160.836 79.2202C160.836 79.2202 166.246 62.9499 173.462 69.458C180.678 75.9661 180.499 111.866 165.88 101.185C155.874 93.9122 160.836 79.2202 160.836 79.2202Z" fill="#FFBE3D"/> </g> <defs> <clipPath id="clip0"> <rect width="302" height="311.762" fill="white"/> </clipPath> </defs> </svg>
