<svg width="214" height="113" viewBox="0 0 214 113" fill="none" xmlns="http://www.w3.org/2000/svg"> <path d="M213.946 110.54C214.2 111.615 213.535 112.693 212.46 112.946C211.385 113.2 210.307 112.535 210.054 111.46L213.946 110.54ZM0.926721 19.0075C-0.0053277 18.4148 -0.280379 17.1787 0.312377 16.2466L9.97189 1.05802C10.5646 0.125969 11.8007 -0.149078 12.7328 0.44368C13.6648 1.03643 13.9399 2.27253 13.3471 3.20458L4.7609 16.7056L18.2619 25.2918C19.1939 25.8846 19.469 27.1207 18.8762 28.0527C18.2835 28.9847 17.0474 29.2598 16.1153 28.667L0.926721 19.0075ZM210.054 111.46C200.229 69.8675 171.474 41.7392 133.569 26.5177C95.6173 11.2777 48.5391 9.01315 2.43441 19.2722L1.56559 15.3677C48.2978 4.96901 96.2196 7.20911 135.059 22.8058C173.945 38.4211 203.771 67.4617 213.946 110.54L210.054 111.46Z" fill="#D7E9FF"/> </svg>
