<svg width="41" height="40" viewBox="0 0 41 40" fill="none" xmlns="http://www.w3.org/2000/svg"> <rect x="1" width="40" height="40" fill="white"/> <path d="M20.9969 40.0008C20.8117 40.0008 20.5956 40.0008 20.4104 40.0008L24.4847 28.7658H30.1022C31.0899 28.7658 32.1701 27.9942 32.5097 27.0682L36.9543 14.8764C37.6951 12.8701 36.5222 11.2343 34.4233 11.2343H26.6144L20.0709 29.2597L16.3671 39.4761C7.57042 37.3773 0.996094 29.4757 0.996094 20C0.996094 10.833 7.16917 3.08581 15.5954 0.740036L11.7681 11.2651L5.40985 28.7658H9.6384L15.0398 13.8887H18.219L12.8175 28.7658H17.0461L22.108 14.9073C22.8488 12.901 21.7068 11.2651 19.5771 11.2651H15.9967L20.1018 0.0301325C20.4104 0.0301325 20.6882 -0.000732422 20.9969 -0.000732422C32.0467 -0.000732422 40.9977 8.95023 40.9977 20C40.9977 31.0499 32.0467 40.0008 20.9969 40.0008ZM33.0961 13.8887H29.917L25.4415 26.1423H28.6206L33.0961 13.8887Z" fill="#A8AEB2"/> </svg>
