<svg width="97" height="40" viewBox="0 0 97 40" fill="none" xmlns="http://www.w3.org/2000/svg">
<rect width="97" height="40" fill="white"/>
<path d="M54.0282 25.4575V30.0539C51.4309 31.3515 48.9893 32 46.5484 32C39.7777 32 35.7086 28.0503 35.7086 23.0285C35.7086 17.6164 40.3649 13.1484 46.288 13.1484C47.7533 13.1484 48.8607 13.409 50.0211 13.7901C50.8533 14.0493 51.3666 14.3462 51.8871 14.3462C52.3442 14.3462 52.4712 13.5902 52.5366 13.1484H53.1823L53.7695 19.3667H52.9869C52.6669 18.1362 52.0814 17.1267 51.2999 16.4193C50.0844 15.1881 48.4042 14.5393 46.4841 14.5393C42.4147 14.5393 40.0402 17.7472 40.0402 22.5756C40.0402 27.3371 42.9376 30.574 46.8075 30.574C47.9473 30.574 48.9897 30.3148 50.265 29.7307V25.0018C50.265 23.4818 50.0207 22.8974 47.818 22.8974V22.1859H55.9927V22.8974C53.9632 22.8974 54.0282 23.5462 54.0282 25.4575ZM31.513 17.8766V31.6774H30.4402L16.573 17.422C16.638 17.8119 16.638 18.1358 16.638 18.5237V27.2074C16.638 29.8601 16.638 30.8314 19.0789 30.8314V31.5443H12.5696V30.8314C15.0365 30.8314 15.0365 29.6653 15.0365 27.2074V17.3079C15.0365 15.8369 15.0365 14.2226 12.4392 14.2226V13.5415H18.5796L29.9837 25.197C29.9187 24.8738 29.9187 24.68 29.9187 24.2256V17.8766C29.9187 15.3172 29.9837 14.2226 27.5359 14.2226V13.5415H34.0439V14.2226C31.6413 14.2226 31.513 15.2546 31.513 17.8766ZM0 31.5443V30.8314C1.56418 30.8314 2.67154 30.702 2.67154 28.4488V16.6131C2.67154 14.2805 1.82425 14.2226 0 14.2226V13.5415H9.1685V14.2226C7.29018 14.2226 6.50962 14.2805 6.50962 16.6131V28.4488C6.50962 30.702 7.48797 30.8314 9.1685 30.8314V31.5443H0Z" fill="#A8AEB2"/>
<path d="M72.0038 31.5443C71.6777 30.9626 71.6124 30.054 71.6124 29.8605C71.6124 29.5373 71.6124 29.0816 71.8081 28.7696L71.0919 28.9045C70.8968 29.1473 70.8315 29.2805 70.8315 29.4052L71.1576 29.2808C71.2226 29.2808 71.288 29.4052 71.3516 29.5376C71.2876 29.8608 70.8965 29.8608 70.7661 29.9906C70.5718 30.6384 71.1576 31.0273 71.2226 31.5447H72.0038V31.5443ZM96.999 23.223C96.999 20.4034 95.829 17.5538 93.7413 15.5117C92.8372 14.6041 91.8462 14.1688 91.0625 13.2755C90.6728 12.8893 90.3734 12.5007 90.1133 11.982C89.7858 11.6574 89.5894 11.4637 89.1996 11.2699C89.266 11.4637 89.332 11.6574 89.3981 11.8522H89.332C89.0059 11.8522 88.6791 11.6571 88.4225 11.4633L88.6791 11.2028C88.6134 11.0822 88.4225 11.0822 88.2877 11.0822C87.2467 10.9072 86.2947 11.4633 85.2835 11.6571V11.7879C85.9323 11.9817 86.0534 12.7599 86.4138 13.1481C86.4757 13.1481 86.5377 13.1481 86.7899 13.1481C86.9202 13.1481 87.1167 13.2752 87.247 13.2752C87.247 13.1481 87.1167 12.889 87.1167 12.889C87.247 12.7602 87.3784 12.7602 87.5068 12.889C87.8315 13.0841 88.288 12.7602 88.6134 13.2752C88.224 13.2752 87.8315 13.2752 87.5068 13.4751C87.5068 13.5412 87.7046 13.6563 87.6385 13.7894C87.3148 13.6559 86.9202 13.7894 86.7902 13.5412L86.7259 13.5899C87.1173 14.049 87.7049 14.4106 88.2883 14.6041C89.1356 14.7349 89.8525 14.3463 90.6738 14.5394C93.6126 15.9681 95.6986 19.3027 95.6986 22.6386C95.6986 27.4012 92.9631 29.2805 91.2607 29.2805C90.9346 29.2805 90.437 29.0816 90.244 28.9045C90.4367 28.2421 90.5551 27.4683 90.5551 26.2995C90.5551 23.5466 89.4628 20.5648 87.9643 19.0435C87.2474 18.33 86.4761 17.7476 85.6757 17.7476C85.2842 17.7476 84.8917 17.7476 84.6333 18.0712C84.3079 18.3303 84.1105 18.8487 84.1768 19.1726C83.656 19.5619 82.8115 19.755 82.1603 19.755C81.4423 19.755 80.5335 19.4965 79.731 18.8483C79.731 18.5892 79.731 18.266 79.731 17.877C79.5428 17.8123 78.8943 17.4227 79.2177 17.1267C79.4138 17.1935 79.5428 17.3079 79.6092 17.3607C79.5431 16.9381 79.5431 16.419 79.2177 16.0297C79.0863 16.0297 78.8943 16.0297 78.6986 15.9C78.5029 15.7076 78.3037 15.4484 78.3037 15.1238C78.5029 15.4484 78.8259 15.3176 79.0213 15.5121C78.6989 14.7352 78.8262 14.4113 78.2414 13.2759C78.11 12.6959 77.5245 12.3713 77.1354 11.9823C76.94 11.8529 76.8761 11.6578 76.6372 11.6578C76.3795 11.5941 76.3795 11.2702 76.3795 11.0829C76.4439 11.0829 76.6372 11.2035 76.7655 11.2702C76.3795 10.3895 76.1177 9.42463 75.2735 8.90491L75.0751 9.03331C74.7507 9.03331 74.3602 9.03331 74.0341 9.03331C74.1628 8.90491 74.4239 8.83986 74.6206 8.71078C74.4239 8.51563 74.2962 8.45024 73.9095 8.45024C73.7309 8.51563 73.4921 8.71078 73.2426 8.71078H73.18C73.18 8.51563 73.1126 8.25679 73.4921 8.12772C73.1126 8.06164 72.7864 8.06164 72.33 8.12772C72.2649 8.45058 72.0713 8.64573 72.0713 8.90491C71.8776 9.03331 71.8095 9.22846 71.6137 9.42463C71.6137 9.03331 71.8095 8.64539 71.8776 8.25679C71.6137 8.32082 71.2897 8.51597 71.1593 8.51597C70.6385 8.25679 69.9866 8 69.7258 8C70.1173 8.25679 69.9243 8.71078 69.9869 9.03331L69.7258 8.90491C69.6632 8.64539 69.335 8.45058 69.2735 8.12772C68.881 8.12772 68.6192 8.25679 68.2944 8.45058V8.51597C68.4885 8.51597 68.7509 8.71112 68.881 8.90525C68.4258 8.90525 68.0994 8.71112 67.6429 8.71112C67.6429 8.71112 67.6429 8.64573 67.5833 8.64573C67.4075 8.71112 67.2295 8.90525 67.1111 9.03365C66.6543 9.42497 66.3299 9.74715 66.1345 10.3244C66.2649 10.3244 66.4599 10.3244 66.5266 10.3898C66.2649 10.4538 66.1345 10.7781 65.8744 10.8438C65.8744 11.0829 65.8744 11.464 65.8744 11.7886C65.679 11.9823 65.4193 12.1761 65.2889 12.5647C64.9635 13.5902 64.8967 14.7352 64.8967 16.0297C64.8328 16.2903 64.7041 16.355 64.5727 16.4194V17.4227C64.5727 17.4227 64.9635 17.061 65.1585 16.9384C65.1585 17.1938 65.1585 17.5542 65.1585 17.7476C64.8967 17.7476 64.7041 18.0712 64.7041 18.266C64.7041 18.5245 64.7691 18.7843 64.7691 19.0435C64.7691 19.1726 64.7691 19.1726 64.8331 19.3027C64.8331 19.1726 64.9635 19.0435 65.1585 18.9791C65.1585 18.9791 65.2889 18.8483 65.5486 18.8483C65.3556 19.0435 65.2889 19.3027 65.1585 19.5619C64.9635 19.755 64.9635 19.755 64.9635 19.755C64.9635 19.755 64.8971 19.8851 64.8971 19.9504C65.1589 21.2777 65.5486 22.4441 66.0712 23.7135C65.549 24.5489 64.9638 26.1697 64.573 27.7234C64.2476 27.4012 63.7911 27.3368 63.3996 27.3368C63.0345 27.4009 62.6465 27.5306 62.3826 27.9196C61.9918 27.7234 61.4744 27.7884 61.2226 28.0503C60.6829 28.5139 60.6829 28.7693 60.6829 29.147C60.5512 29.2805 60.2891 29.6024 60.2891 30.054C60.2891 30.638 60.3541 31.0266 60.6829 31.5443H70.4441C70.3777 31.3515 70.2477 31.0934 70.1173 30.9626C69.9247 30.5737 70.0533 30.054 70.0533 29.6654C70.2473 29.2802 70.4441 28.9042 70.7049 28.5769C70.7682 28.3807 70.7049 28.3807 70.7682 28.3177L71.2247 28.2414C71.4837 28.2414 71.6791 28.05 72.0052 28.05C72.2016 28.3174 72.2016 27.8538 72.5291 27.7231C73.2426 27.5933 73.9095 27.7231 74.2962 28.2411C74.2962 28.3174 74.3606 28.3174 74.3606 28.38C74.2962 28.38 74.1631 28.38 74.0344 28.38C73.6704 28.2411 73.2429 28.0497 72.7868 28.2411C72.7868 28.38 72.7238 28.38 72.7238 28.5762C72.7238 28.7046 72.7238 28.7046 72.7238 28.9035C72.9805 28.9035 73.1803 29.1463 73.4325 29.2795C73.552 29.0806 73.9099 28.9035 74.1631 28.9035C74.4892 28.9035 74.9457 29.0809 74.9457 29.6017C74.9457 29.8598 74.9457 30.119 74.9457 30.3142C75.2075 30.5733 75.5316 30.6374 75.857 30.7658C75.7283 31.0263 75.5316 31.0263 75.3358 31.0263H74.8174C74.751 30.9623 74.621 30.9623 74.621 30.7658C74.4242 31.0263 74.2966 31.2865 74.1631 31.5436H81.7014C81.5744 31.2865 81.443 31.0927 81.378 30.9619C81.2476 30.573 81.2476 30.0533 81.2476 29.6647L81.9645 28.7046C82.3533 28.7046 82.6807 28.5762 83.3956 28.5132C83.528 28.317 83.3956 28.2407 83.9825 28.2407C84.4372 28.2407 84.764 28.317 84.8924 28.3797C84.9581 28.5132 84.9581 28.5132 84.8924 28.6402C84.764 28.7686 84.5036 28.5132 84.3086 28.5762C84.1775 28.7046 84.3746 28.7686 84.3746 28.9035C84.5036 29.0155 83.7881 28.7686 83.7881 28.7686C83.7881 28.7686 83.6564 29.146 83.5927 29.2795C83.5927 29.2795 83.8521 29.5363 83.9825 29.6647C84.1111 29.8595 83.7884 30.0533 83.7884 30.2484C83.6567 30.1844 83.3959 29.9892 83.3959 30.0533C83.2645 30.573 83.3959 31.026 83.3326 31.5436C83.5931 31.5436 83.7884 31.5436 84.0465 31.5436L84.1111 30.4436C84.1775 29.7944 84.9584 28.6406 85.4156 28.6406C85.6767 28.6406 85.8704 28.769 86.0552 28.9035C86.1739 29.1463 86.4771 29.2795 86.4771 29.4041C86.4771 29.5366 86.2964 29.6017 85.9936 29.6017C85.8704 29.6017 85.8704 29.4041 85.6763 29.2798L85.2849 29.665C85.2849 29.665 85.7386 30.0536 85.7386 30.3142C85.7386 30.6374 85.676 30.7658 85.4789 30.9619L85.0881 30.1844C84.892 30.1844 84.5683 30.5733 84.5683 30.7658C84.5683 31.0263 84.4366 31.1557 84.4366 31.5436H88.4232C88.8762 31.5436 89.267 31.4159 89.7215 31.1554C89.9839 31.1554 90.1766 31.1554 90.4989 31.1554C92.1055 31.1554 93.3522 30.7014 94.5266 29.5363C96.0884 28.0504 96.999 25.5883 96.999 23.223ZM83.0031 29.0816L82.3516 29.147C82.6154 29.2805 82.6154 29.6024 82.6154 29.6654C82.6154 29.8602 82.4826 30.054 82.3516 30.1847C82.2225 30.0536 82.2226 29.8602 82.0925 29.6654C81.9628 29.6654 81.8978 29.9899 81.8978 30.1193C81.8978 30.7021 82.1596 31.1561 82.3516 31.5443H82.9394C82.8744 31.0266 82.7417 30.5737 82.7417 29.9903C82.7417 29.6657 82.9394 29.2805 83.0031 29.0816ZM74.4879 29.8605C74.4879 29.6024 74.2952 29.5373 74.0331 29.5373C73.9085 29.5373 73.6108 29.7307 73.6108 29.8605C73.6108 30.1197 73.491 31.5443 73.491 31.5443H73.9085C74.0978 30.9626 74.4879 30.1851 74.4879 29.8605ZM73.1112 29.7948C73.0434 29.7948 73.1786 29.9259 72.5277 29.2802C72.3943 29.2802 72.2003 29.6654 72.2003 29.7948C72.2003 30.3145 72.3286 31.0266 72.5277 31.5443H73.0434C73.0434 30.9626 73.1112 30.3148 73.1112 29.7948ZM90.1133 13.5415C89.9829 13.2755 89.7208 13.1485 89.5254 13.1485C89.332 12.8893 89.0709 12.5647 88.8088 12.5647C89.0056 12.5647 89.266 12.3709 89.589 12.3709C89.7204 12.6955 89.9826 12.8893 90.0465 13.1485L90.1133 13.5415ZM88.1573 12.1758C87.8982 12.1758 87.7042 12.1758 87.4424 12.1758C87.3141 11.982 87.1163 12.1758 86.9863 12.1758C86.8545 12.1758 86.7895 12.1758 86.5373 11.982C86.9195 11.982 87.116 11.7882 87.4424 11.6574C87.7042 11.8522 87.9636 11.9176 88.1573 12.1758ZM86.5958 19.5615C86.1719 19.4335 85.9323 19.2386 85.5422 19.2386C85.4135 19.2386 84.8253 19.4331 84.7623 19.5615C84.5673 19.3023 84.8907 18.784 85.1531 18.6542C85.4139 18.5241 85.5425 18.5888 85.6746 18.6542C85.6746 19.0432 86.1137 18.848 86.3532 18.9788C86.4754 19.1722 86.5377 19.3023 86.5958 19.5615ZM86.5377 20.5001C86.1722 20.5001 86.114 20.448 85.8687 20.448C85.5426 20.448 85.1531 20.5645 84.9567 20.8881C84.8256 20.6302 84.891 20.5005 84.9567 20.3394C85.1531 20.147 85.4775 19.8854 85.7373 19.8854C86.1719 19.8851 86.5377 20.2096 86.5377 20.5001ZM88.0286 21.9275C87.5064 21.6046 86.7248 21.4061 86.2947 21.4061C86.0535 21.4061 85.2835 21.732 85.0234 21.9898L84.8907 21.4061C85.2832 21.3407 85.2832 21.0158 85.5422 21.0158C85.7369 21.0158 85.9915 20.9511 86.1718 20.9511C86.3532 20.9511 86.4754 20.8278 86.5373 20.8278C86.8545 20.8278 86.7248 21.1486 86.9195 21.1486C87.116 21.1486 87.2463 21.0158 87.3777 21.0158C87.7042 21.0161 87.9636 21.5389 88.0286 21.9275ZM88.2237 23.3511C87.7679 23.3511 87.3141 23.2227 87.2467 23.0282C87.1163 22.8974 87.2467 22.6383 86.9199 22.6383C86.7895 22.6383 86.5962 22.8331 86.5962 22.8331C86.4754 22.8971 86.114 22.6383 86.114 22.8331C86.114 23.1563 85.8687 23.286 85.5426 23.286C85.4139 23.286 85.2835 23.286 85.1531 23.2224C85.1531 23.0279 85.1531 22.7684 85.1531 22.5749C85.9919 22.5749 85.9323 22.3144 86.2947 22.3144C86.5377 22.3144 86.7252 22.4435 86.9199 22.4435C87.2467 22.4435 87.0527 22.3144 87.3781 22.3144C87.7042 22.3144 87.8312 22.5749 88.0286 22.6379C88.0286 22.8334 88.2237 23.094 88.2237 23.3511ZM87.6378 24.7427C87.4424 24.6797 86.9863 24.6143 86.9863 24.4205C86.9863 24.1613 86.8545 24.0959 86.5373 24.0959C86.2944 24.0959 86.1137 24.1613 85.7369 24.2897C85.7369 24.2897 85.5422 24.0305 85.4772 23.7775C85.6079 23.7135 86.1133 23.5902 86.3532 23.5902C86.7892 23.5902 87.2464 23.5902 87.2464 23.7775C87.2467 24.0309 87.6378 24.0959 87.6378 24.7427ZM76.3785 14.6695C76.3785 14.7349 76.2468 15.3176 76.2468 15.3176L75.7266 15.4484L76.0507 14.0493C76.1838 14.2805 76.3785 14.539 76.3785 14.6695ZM88.8756 27.0123C88.8756 27.4012 88.8755 27.5306 88.6791 27.8542L88.2877 27.2704C88.4225 27.078 88.4225 26.8188 88.6131 26.4943C88.6788 26.4943 88.8756 26.9459 88.8756 27.0123ZM87.3141 26.1697C86.8545 26.1697 87.1163 25.2624 86.1718 25.2624C85.9919 25.2624 85.8683 25.5883 85.6082 25.6513C85.6082 25.5883 85.6746 25.197 85.6746 25.197C85.6746 25.0676 85.7373 24.8084 85.9919 24.68C86.4754 24.68 86.3536 24.8735 86.7252 25.0019C86.9199 25.0673 87.0527 25.1967 87.3144 25.1967V26.1697H87.3141ZM83.2625 22.5095C82.679 22.1863 82.3516 21.605 81.8307 21.0161C82.3512 21.0161 82.4823 21.5389 82.8741 21.605C83.0031 21.732 83.1355 21.7967 83.2625 21.9898C83.2625 22.1863 83.2625 22.3151 83.2625 22.5095ZM77.7203 17.7473C77.3295 17.7473 77.1344 17.5535 76.939 17.1935C76.939 16.9987 76.875 16.7443 76.939 16.4194C77.068 16.6792 77.068 16.8093 77.1998 16.9381C77.4588 16.8093 77.4588 17.1267 77.5238 17.1935C77.5909 17.3607 77.7203 17.5535 77.7203 17.7473ZM88.4221 28.7053C88.2873 28.9042 88.2873 28.9042 88.2237 29.0813C88.2237 28.7693 87.8312 28.5769 87.5714 28.0503L87.8312 27.5936C88.0286 27.7234 88.2877 27.9196 88.2877 28.2414C88.2877 28.2414 88.2237 28.3804 88.2877 28.5139C88.2877 28.5769 88.4221 28.5769 88.4221 28.7053ZM87.1163 26.8832C87.1163 27.141 87.0523 27.2078 86.9863 27.531C86.5373 27.468 86.5373 26.9459 86.4754 26.8832C86.1718 26.4943 85.7373 26.8192 85.4135 26.8192C85.2832 26.4302 85.4775 26.4302 85.4775 26.17C85.6746 26.17 85.8687 26.0389 86.0534 26.17C86.3536 26.0389 86.5377 26.3648 86.8549 26.3648C86.9199 26.4943 87.0523 26.8188 87.1163 26.8832ZM83.8504 24.2257C83.8504 24.4862 83.72 24.68 83.7864 24.9392C83.6546 24.5489 83.3939 24.1617 83.2625 23.7778C83.2625 23.7138 83.1975 23.7138 83.3306 23.6494C83.3939 23.6494 83.6546 23.6494 83.6546 23.7135C83.72 23.8368 83.8504 24.0309 83.8504 24.2257ZM78.1754 19.1722C78.1093 19.4335 77.8493 19.1722 77.7873 19.1722C77.5909 19.1722 77.3295 19.1722 77.1994 19.1722C77.1344 19.0432 77.0677 18.9791 77.0677 18.848C77.3295 18.784 77.5235 18.6542 77.7199 18.784C77.8493 18.9791 77.9796 19.1722 78.1754 19.1722ZM79.6085 20.6299C79.4135 20.8281 78.8937 20.8877 78.5025 20.5645L79.0209 20.3394C79.217 20.5001 79.4785 20.5642 79.6085 20.6299ZM82.9394 24.2897C82.9394 24.68 82.8744 25.134 82.8744 25.588C82.6794 25.588 82.6794 25.4572 82.6794 25.1967C82.6154 24.8081 82.483 24.4859 82.3519 24.0959C82.2229 23.5905 81.8981 23.1566 81.6398 22.5756C81.5734 22.3151 81.2466 22.1863 80.9855 21.9898C81.3102 21.9898 81.6398 21.9898 81.8981 22.2504C81.8981 22.3791 81.9632 22.4441 82.1599 22.6386C82.6157 22.6386 82.483 23.223 82.8748 23.4822C82.6797 23.6494 82.6157 23.7778 82.483 23.9011C82.679 24.0309 82.8741 24.0959 82.9394 24.2897ZM80.3973 22.3791C80.3973 22.5753 80.2734 22.6383 80.1505 22.7687C80.1505 22.7687 79.9124 22.4441 79.9124 22.3151C79.9124 22.0535 79.9124 21.9275 79.9726 21.732C80.1505 21.9275 80.3973 22.1863 80.3973 22.3791ZM86.4754 28.2418C86.4754 28.2663 86.3536 28.3807 86.3536 28.3807C86.0534 28.2418 85.8687 28.1774 85.4775 28.1774C85.4775 27.9196 85.2835 27.5936 85.1531 27.5936C84.7623 27.5936 84.8256 27.8542 84.5023 27.8542L85.0871 27.2704C85.1531 27.1407 85.1531 27.1407 85.2835 27.1407C85.4775 27.2704 85.5426 27.3368 85.7373 27.3368C85.7373 27.468 85.7373 27.5306 85.6746 27.7234C85.8683 27.8542 85.9918 27.6594 86.1137 27.8542C86.2947 27.9199 86.4754 27.9839 86.4754 28.2418ZM81.2463 23.7775C81.2463 23.9008 81.0505 24.0305 80.9852 24.0305C80.9852 24.0305 80.6584 23.7131 80.5974 23.4165C80.5328 23.1563 80.7898 22.7023 80.7898 22.7023C80.8548 22.7023 80.9215 22.8331 80.9852 22.8331C81.0502 22.8971 80.9852 23.0936 81.0502 23.286C81.2463 23.4168 81.3766 23.6491 81.2463 23.7775ZM76.2468 17.5535C75.4655 17.1267 74.6193 16.809 73.6686 16.7443C73.6686 16.9381 73.6686 17.1267 73.6105 17.1935C74.3592 17.5538 75.0737 17.877 75.727 18.4591V19.0435C75.074 18.3961 74.3592 17.7476 73.5506 17.5538C73.491 17.6832 73.2416 17.8123 73.179 18.0712C72.7225 17.7476 72.2006 17.4227 71.6777 17.3611C71.4823 17.3611 71.3523 16.6792 71.3523 16.6792C71.6777 16.5495 71.8762 16.3553 72.0038 16.0301C72.0699 16.0301 72.2003 16.0301 72.2636 16.0301C72.4597 16.0301 72.4597 15.9003 72.4597 15.7079C72.4597 15.3179 71.6124 15.3179 71.2233 15.3179C70.7668 15.3179 70.4427 15.3179 70.1775 15.5121C70.052 15.5121 70.1156 15.7079 70.1156 15.8373C70.1156 15.9003 70.3096 16.0297 70.3096 16.0297C70.4424 16.0297 70.5721 15.9 70.7032 15.9C70.6368 16.2903 70.7665 16.4851 71.1576 16.6789L71.0919 17.3079C70.3096 17.3079 69.7891 17.6165 69.205 17.8767C69.0072 17.7473 68.8789 17.5535 68.7489 17.3604C67.9656 17.6161 66.6522 18.6542 66.6522 18.6542C66.6522 18.6542 66.6522 18.3957 66.6522 18.2013C67.2275 17.6829 67.9656 17.422 68.5514 17.1264V16.6785C68.2924 16.5488 68.032 16.6785 67.7729 16.6785C67.2275 16.7439 66.6526 16.998 66.2631 17.3076C66.2631 17.1264 66.1981 16.8733 66.1981 16.8733C66.9161 16.4848 67.7733 16.1602 68.6175 16.2896C68.6175 16.2256 68.6175 16.0291 68.6175 16.0291C68.5518 15.8993 68.5518 15.7069 68.4241 15.7069C68.0323 15.3169 67.6412 14.7342 67.6412 14.3456L67.9036 14.2223C67.7733 13.8548 67.6412 12.8886 67.9036 12.5641C67.5252 12.3703 67.1679 12.0457 67.0464 11.7879C66.9161 11.4633 66.7847 11.2695 66.7176 10.9072C66.9161 10.5182 67.0464 10.3888 67.2278 10.005C67.3472 10.005 67.5248 9.94128 67.5816 9.81118C67.9033 9.74579 68.0977 9.42361 68.4871 9.61876C68.7495 9.61876 69.0076 9.74579 69.2057 9.81118C69.2057 9.94128 69.2057 10.005 69.334 10.1347C69.7248 10.1347 69.7248 10.5182 69.9233 10.8431C70.1159 10.9072 70.3103 10.9072 70.4431 10.9072C70.8325 11.0267 71.1586 11.0267 71.289 11.2028C71.8091 10.9072 72.3293 10.8428 72.9158 10.9072C72.9798 10.712 73.1119 10.4532 73.1796 10.1347C73.2423 10.3234 73.2423 10.1347 73.3723 10.1347C73.6112 9.94162 73.9089 9.61876 74.3599 9.74579C74.6203 9.94128 75.0747 9.81118 75.3351 10.1347C75.5309 10.3888 75.6613 10.7771 75.8563 11.0822C75.6613 11.4633 75.8563 11.9817 75.4662 12.1755L75.0744 12.5641C74.9447 12.5641 74.9447 12.6948 74.75 12.6948C74.9447 13.1478 74.8164 13.7894 74.6199 14.2223C74.75 14.1682 74.9447 14.1682 74.9447 13.9839C75.0111 14.0486 74.9447 14.1682 74.9447 14.2223C74.9447 14.3456 74.9447 14.4103 74.9447 14.4103C74.9447 14.7342 74.75 15.0588 74.4882 15.3169C74.3595 15.7069 74.0334 16.2252 73.6112 16.2893V16.4183C74.5536 16.4183 75.3348 16.6782 76.2474 17.1261V17.5535H76.2468ZM78.8936 21.605L78.5662 21.732C77.8493 21.732 77.5238 21.5389 77.1998 21.278C77.4588 21.278 77.7877 20.9517 77.7877 20.9517C78.1093 21.2777 78.5662 21.5389 78.8936 21.605ZM77.068 20.1466C76.7015 20.1466 76.2471 20.339 76.051 19.9504C76.1838 19.8851 76.3128 19.6913 76.4432 19.5615L77.068 20.1466ZM82.3516 26.1697C82.3516 26.4943 81.9628 26.8832 81.8311 27.141C81.9632 26.8192 81.9632 26.1697 81.8311 26.1697C81.7 26.1057 81.4417 26.1697 81.4417 26.0386C81.4417 25.8438 81.5063 25.5883 81.5063 25.4576C81.5063 25.1967 81.3099 25.0673 81.3099 24.9392C81.3099 24.5489 81.7678 24.4862 81.8978 24.2257C81.9628 24.4862 81.9628 24.743 81.9628 25.0676C81.9628 25.197 82.1592 25.5883 81.9628 25.9105C81.9628 26.1053 82.3516 25.9759 82.3516 26.1697ZM80.8548 25.4576C80.8548 25.8438 80.5975 26.1697 80.5328 26.5593C80.5328 26.1694 80.4657 25.8434 80.2111 25.588C80.2111 25.4572 80.3976 25.4572 80.2737 25.2621C80.2737 25.2621 79.9127 25.0673 79.9127 24.8081C79.9127 24.5486 80.1509 24.3537 80.2737 24.1613C80.2737 24.0959 80.5331 24.2897 80.5331 24.6797C80.5331 24.7427 80.5331 24.9389 80.466 25.0673C80.3973 25.2624 80.8548 25.2624 80.8548 25.4576ZM75.5302 20.8877C75.2061 20.9514 74.9443 20.6299 74.6196 20.5001C74.4879 20.1466 74.4879 19.755 74.3592 19.5615C74.6196 19.7546 75.2061 19.7546 75.074 20.339C75.074 20.5001 75.3341 20.6299 75.5302 20.8877ZM77.3295 22.7026C77.0677 22.7026 76.6362 22.7026 76.3785 22.5095C75.9853 22.3151 75.8556 22.1863 75.6602 21.9898C75.9206 21.7967 76.2468 21.7967 76.3785 21.732C76.6362 21.9898 76.875 22.4441 77.3295 22.7026ZM66.4585 12.7602L66.0068 12.889L66.0695 12.5644C66.1985 12.3706 66.2635 12.1758 66.4589 11.982V12.7602H66.4585ZM74.7493 21.732C74.4875 21.7967 74.0327 21.9278 73.9082 21.605C73.5502 21.0161 73.7295 20.5001 73.9082 20.0812C74.0327 20.448 74.0978 20.8278 74.1614 21.1489C74.2288 21.4061 74.6193 21.5389 74.7493 21.732ZM72.9151 18.2013C72.8491 18.5888 72.7225 19.1722 72.3286 19.4331C72.3286 19.1719 72.2003 19.0428 72.0699 18.848C72.0039 18.848 72.0699 19.0432 72.0038 19.0432C72.0038 19.1722 71.8762 19.4335 71.8762 19.6909C71.7434 19.7546 71.4823 19.8847 71.2233 19.7546V19.5615C71.1583 19.4335 71.1583 19.1722 71.1583 19.0432L71.0926 18.9791C70.8975 19.0432 70.8975 19.1722 70.8975 19.3027C70.8325 19.4335 70.7042 19.5619 70.7042 19.755C70.4431 19.755 70.3107 19.6913 70.1163 19.5619V18.9795C70.1163 18.8487 70.1163 18.8487 70.0523 18.8487L69.7248 19.1729C69.4644 18.9798 69.3994 18.4594 69.3994 18.1369C70.4431 17.5545 71.7441 17.7479 72.5284 18.0715C72.6561 18.1359 72.7851 18.1359 72.9151 18.2013ZM76.2468 23.4168C76.2468 23.4168 76.1167 23.4168 76.051 23.4168C75.3341 23.6494 74.7493 23.223 74.1617 22.8334C74.4879 22.7026 74.9443 22.6386 75.3345 22.6386L75.5302 23.0286C75.727 23.094 76.051 23.2864 76.2468 23.4168ZM66.5899 13.6566L66.2635 14.0493C66.3282 14.6695 66.0695 15.1238 66.0695 15.7076L65.7427 14.6695C65.8077 14.411 65.873 14.1688 66.0695 13.8555L66.5899 13.6566ZM73.2412 21.9898C72.9151 21.7967 72.3286 21.732 72.4597 21.3407C72.5897 21.0161 72.7851 20.9514 72.9151 20.8281C72.9788 21.2777 73.0434 21.605 73.2412 21.9898ZM79.217 28.5769H79.1524C79.0206 28.3807 78.9556 28.2418 78.8256 28.2418C79.0206 27.531 78.6315 26.9459 78.5025 26.3645V26.1697C78.6983 26.4943 79.2174 26.8188 79.1524 27.141C79.217 27.7234 79.217 28.2418 79.217 28.5769ZM77.7203 26.1697C77.3935 26.1697 77.1344 26.1697 76.939 25.8438C76.875 25.8438 76.7645 25.6513 76.7015 25.7808C76.3788 26.0386 76.0514 25.5883 75.6606 25.651C75.4659 25.8434 75.2725 25.9756 74.9444 26.0386V25.9756C74.9444 25.7808 75.074 25.588 75.3345 25.4576C75.727 25.5883 76.0514 24.7427 76.4432 25.1967C76.6362 25.2621 76.8186 25.2621 76.939 25.2621C77.3935 25.4576 77.5238 25.8438 77.7203 26.1697ZM71.8085 20.9514C71.8085 21.4061 71.7438 21.9898 71.2883 22.1863L71.1579 21.5389C71.3523 21.4061 71.5474 21.2777 71.8085 20.9514ZM73.9684 23.7775C73.8473 23.9008 73.4907 24.0305 73.2412 24.0305C72.8491 23.7131 72.5897 23.3511 72.2003 22.8331L73.2412 23.0282C73.4312 23.1566 73.7908 23.5905 73.9684 23.7775ZM77.8493 27.468C77.5909 27.2704 77.1998 27.2704 77.068 26.9459C76.8186 26.8829 76.6362 26.8829 76.3128 26.8829C76.051 26.9459 75.727 26.9459 75.4655 26.9459C75.3981 26.9459 75.4655 26.8829 75.3341 26.8188C74.944 26.9459 74.5529 26.9459 74.1614 27.3368L74.4875 26.5593C74.7493 26.5593 74.944 26.4299 75.0737 26.4299C75.3341 26.3645 75.5299 26.3645 75.7266 26.3645V26.4299C76.4428 26.4299 77.2631 26.3645 77.787 26.9459L77.8493 27.468ZM70.4424 21.9898C70.0516 21.605 69.7241 21.2777 69.7241 20.8877C69.9226 20.8877 70.1156 20.8877 70.3096 21.0158C70.31 21.3407 70.4424 21.605 70.4424 21.9898ZM69.2054 20.1466L69.0076 20.9514C68.8142 20.5645 68.6175 20.2096 68.5518 19.755L69.2054 20.1466ZM78.5022 28.7696C78.4361 28.9045 78.303 29.2805 78.2404 29.5373C78.109 29.147 77.9793 28.5772 77.5235 28.5772C77.4585 28.318 77.3931 28.2421 77.1341 28.0507L76.6358 27.9843C76.7008 28.2421 77.0677 28.2421 76.8179 28.5772C77.0673 28.7696 77.2631 28.7696 77.3931 29.0816C77.5235 29.2805 77.3931 29.5373 77.4581 29.6657L77.0673 29.8605C77.0673 29.5373 77.1337 28.9042 76.7008 28.7696C76.3121 28.9045 76.2464 28.3807 75.9846 28.2418C75.8549 28.2418 75.8549 27.9199 75.6599 28.0503C75.3338 28.2418 74.9437 28.0504 74.6189 28.2418L74.9437 27.7237C75.2054 27.5313 75.4648 27.594 75.7263 27.5313L76.2464 27.4683C76.7642 27.4683 77.1991 27.7237 77.7199 27.9199C77.9793 28.0507 78.109 28.2418 78.109 28.5142C78.2404 28.5769 78.5022 28.5769 78.5022 28.7696ZM73.3716 25.7808H73.2412C73.1786 25.7808 72.7221 25.5883 72.5897 25.4576C72.5277 25.2624 72.5277 25.0673 72.5277 25.0673C72.7221 25.0673 72.8487 25.0673 73.0434 25.0673L73.3716 25.7808ZM68.3591 21.1489C67.9659 21.0161 67.5248 20.6299 67.3469 20.3394C67.2275 20.0816 67.1676 19.755 67.1676 19.5619C67.4057 19.5619 67.5816 19.755 67.6412 19.8854V19.9508C67.9659 20.339 68.2927 20.6299 68.3591 21.1489ZM71.482 23.4168C71.4194 23.7778 71.223 23.9011 70.8968 24.3541C70.7035 24.4862 70.3096 24.5489 69.9226 24.743C69.9852 24.5492 70.1772 24.4862 70.3096 24.2901C70.4424 24.0963 70.7032 23.7778 70.7665 23.5905C71.0922 23.4168 71.2233 23.4168 71.482 23.4168ZM76.2468 29.6657L76.051 29.8605C75.8556 29.6657 75.9853 29.147 75.6602 29.0816C75.3341 29.0816 75.0737 28.7696 74.944 28.7056L75.2058 28.5772C75.2058 28.5772 75.3341 28.5142 75.4655 28.5772C75.5952 28.7056 75.727 28.7696 75.727 28.9045C75.8556 29.082 76.051 28.9045 76.1838 29.082C76.2468 29.2805 76.3128 29.5373 76.2468 29.6657ZM70.31 22.8974C70.1159 23.2864 69.9229 23.6491 69.5304 23.7775C69.334 23.7775 69.0079 23.9008 68.6178 23.7775C68.8142 23.6491 69.0079 23.5902 69.2721 23.4165L69.7898 22.8974H70.31ZM71.6124 25.8438C71.352 26.0386 71.1579 26.0386 70.8318 25.9759L70.4424 25.4579C70.7665 25.4579 71.1579 25.4579 71.4194 25.4579L71.6124 25.8438ZM66.9161 20.9514C66.5899 21.2777 66.2635 21.4061 66.1331 21.7967C66.1331 21.605 66.0691 21.4061 66.0068 21.2777C66.0695 21.0158 66.2635 20.8877 66.3282 20.8278C66.5249 20.8877 66.6526 20.8877 66.9161 20.9514ZM67.6412 21.9275C67.6412 22.186 67.5248 22.5092 67.2278 22.8334C67.1676 22.8974 66.9811 23.0286 66.9811 23.0286C66.9811 22.6386 67.1676 22.3151 67.1676 21.9898C67.3469 21.9275 67.5248 21.7967 67.6412 21.9275ZM68.5518 22.7026L68.2927 23.6491C67.9659 23.9008 67.5248 23.7775 67.1676 23.7775C67.6412 23.6491 68.0323 23.0936 68.2927 22.7026C68.3591 22.6386 68.4241 22.7026 68.5518 22.7026ZM68.8792 25.9759C68.8792 26.1697 68.8142 26.9462 68.8142 26.9462C68.6842 26.4946 68.3594 26.0389 67.9659 26.0389C67.7733 25.8441 67.5816 25.6513 67.5248 25.4579C67.3469 25.2627 67.1676 25.4579 66.9161 25.2627C66.6526 25.2627 66.3282 25.2627 66.0691 25.4579V25.2627L66.5249 24.7434C66.9811 24.8088 67.5248 24.7434 67.6412 25.0679C67.9659 25.2627 68.2927 25.4582 68.3594 25.5887C68.3594 25.6517 68.3594 25.6517 68.3594 25.7811C68.4871 25.8438 68.7492 25.9102 68.8792 25.9759ZM68.5518 27.9839L68.0977 28.3807C67.9659 28.2418 68.0977 27.9196 67.9036 27.7234C67.9036 27.5936 68.0326 27.531 67.9663 27.468C67.9036 27.3368 67.1679 27.0777 67.1679 27.0777C66.9164 26.8829 66.5903 26.6853 66.3285 26.4299C66.0695 26.3645 65.873 26.4939 65.5473 26.5593C65.5473 26.4943 65.5473 26.4299 65.5473 26.4299C65.6776 26.1694 65.6776 25.8434 66.0695 25.8434C66.2635 25.8434 66.5253 25.8434 66.6529 26.0382C66.9164 26.0382 67.0464 26.2988 67.2281 26.3642C67.5252 26.685 67.7736 26.8185 67.9663 26.9455C67.9663 27.1403 68.0326 27.2701 68.1617 27.3365C68.5518 27.3372 68.4241 27.7234 68.5518 27.9839ZM67.5816 28.9042L67.4057 29.537L66.9811 28.3804C66.4585 27.9192 65.8727 27.8538 65.5469 27.5933C65.2872 27.5303 65.2872 27.7231 65.1568 27.5933C65.1568 27.4676 65.1568 27.2701 65.3536 27.0773H65.7423L66.1331 27.2698C66.3282 27.4673 66.7847 27.4673 66.7847 27.8535C66.7847 27.9189 66.7176 27.9833 66.9161 28.2411L67.5248 28.38L67.5816 28.9042ZM65.8073 29.5373C65.8073 30.0543 64.9614 30.7664 64.9614 30.7664C64.9614 30.4443 65.1565 30.054 65.1565 29.6657C65.1565 29.6657 64.8947 29.4048 64.6339 29.4048C64.4406 29.5373 64.4406 29.6657 64.3756 29.8605C64.1795 30.2494 63.7887 30.638 63.7251 31.027C63.66 31.027 63.66 30.9629 63.66 30.9629C63.66 30.3152 63.7251 29.2127 64.1145 28.77C64.4406 28.3811 64.7024 28.381 65.0908 28.3184L65.4176 28.3814L65.1568 28.7703C65.4176 28.9042 65.8073 29.147 65.8073 29.5373ZM63.5266 29.147C63.5266 29.4048 63.4626 29.6654 63.3356 29.8605C63.2689 29.6024 63.0848 29.2805 62.7714 29.2805C62.514 29.7951 62.4473 29.9903 62.7063 30.7664C62.514 30.9626 62.3809 31.027 62.1229 31.1564C61.9901 30.8972 61.9901 30.4443 61.9901 30.1851C61.9901 29.7307 62.0565 29.2805 62.1865 28.9042C62.3806 28.7053 62.514 28.3807 62.7063 28.2418H63.3979C63.0852 28.2418 63.0852 28.5142 63.0852 28.7053C63.2689 28.7696 63.5266 28.8364 63.5266 29.147ZM61.8625 29.8605C61.7961 29.8605 61.6 29.6657 61.406 29.6657C61.2209 30.0543 61.406 30.3148 61.406 30.7664C61.406 30.9626 61.34 31.1564 61.34 31.1564C61.2209 31.1564 60.9871 30.8972 60.9283 30.6384V29.6027L61.4727 28.9045C61.8625 29.147 61.9901 29.5373 61.8625 29.8605ZM75.2058 11.982C75.3341 11.6574 75.3341 11.0825 75.0737 10.7774C74.944 10.5189 74.6193 10.3891 74.2949 10.1351L73.8473 10.3891C73.6105 10.5186 73.4907 10.7774 73.4907 11.0825C73.9082 11.2699 74.3588 11.7882 74.5529 12.1758H74.7493C74.9443 11.982 75.074 12.1758 75.2058 11.982ZM73.0434 12.3706C73.0434 12.1758 72.9791 12.1758 72.9151 12.1758C72.5897 12.1758 72.5897 11.6574 72.3286 11.7882C72.2003 11.7882 72.0699 11.6574 71.8762 11.7882C71.8762 11.8522 71.8762 11.8522 72.0038 11.8522C72.3286 11.8522 72.2003 12.3045 72.4597 12.3706C72.5897 12.3706 72.8491 12.3706 73.0434 12.3706ZM74.0331 13.1481C74.0331 13.1481 74.1617 13.1481 74.0331 13.0841L72.6564 12.889C72.5281 13.0841 72.2006 13.0841 72.2006 13.2752H72.0702C72.2006 13.7898 72.2006 14.3459 72.2006 14.9283C72.46 14.9937 72.7225 15.1231 72.7225 15.5114C72.9791 15.6422 73.2416 15.7072 73.491 15.8996C73.6108 15.8366 73.669 15.6425 73.7296 15.448C73.491 15.1235 72.9151 15.3173 72.9151 14.7345L72.5277 14.6038C72.5277 14.2223 72.5277 13.8552 72.4597 13.5895L72.5277 13.5408C72.5277 13.5895 72.5897 13.6559 72.7221 13.7891C72.9788 13.7891 73.2412 13.8545 73.4907 13.6556C73.6105 13.5892 73.6105 13.2745 73.7292 13.2745C73.8476 13.2755 73.9684 13.2755 74.0331 13.1481ZM70.8318 11.7882C70.7035 11.6574 70.31 11.8522 70.1156 11.9176C69.8562 11.9817 69.6618 12.1758 69.6618 12.3706H70.376C70.4424 12.1758 70.7035 11.9176 70.8318 11.7882ZM69.399 11.0825C69.334 10.4535 68.6178 10.3891 68.2931 10.1351H68.0326C67.5252 10.3237 67.4061 10.8435 67.3472 11.2699C67.5252 11.8522 67.9036 11.4637 68.1617 11.8522C68.4241 11.6574 69.0746 11.2031 69.399 11.0825ZM73.2412 16.9983V16.6789H72.5897L72.5277 16.7443L73.2412 16.9983ZM70.31 13.2755C70.31 13.1485 70.1775 13.0191 69.9856 12.8893C69.4644 12.8893 69.0079 12.8893 68.5521 12.8893H68.4245C68.4245 13.1485 68.6178 13.2755 68.8146 13.2755C68.8146 13.5415 69.0079 13.5902 69.0753 13.6566C69.2724 13.7901 69.3344 13.7901 69.5308 13.6566C69.7248 13.7901 69.7902 13.5415 69.8569 13.6566C69.8569 14.0493 69.8569 14.223 69.7902 14.5394C69.7252 14.9941 69.3344 14.929 69.0083 15.1238C69.0083 15.3176 68.8149 15.6429 69.0083 15.8373C69.206 15.7079 69.3344 15.6429 69.6625 15.5121C69.6625 15.3179 69.8569 15.1238 70.1163 14.9944C70.1156 14.411 70.31 13.8555 70.31 13.2755ZM69.7895 16.6789C69.6619 16.419 69.3337 16.6789 69.0076 16.5491C69.0076 16.6789 69.0076 16.809 69.2054 16.9381C69.399 16.7443 69.7245 16.6789 69.7895 16.6789Z" fill="#A8AEB2"/>
</svg>
