<svg width="160" height="40" viewBox="0 0 160 40" fill="none" xmlns="http://www.w3.org/2000/svg"> <rect width="160" height="40" fill="white"/> <path d="M69.4826 26.0504V20.2068C69.4826 18.0058 68.0773 16.5255 65.8131 16.506C65.1681 16.4641 64.5237 16.5956 63.9469 16.8868C63.3702 17.178 62.8822 17.6183 62.534 18.1617C62.2166 17.6345 61.7627 17.2024 61.22 16.911C60.6772 16.6196 60.0658 16.4797 59.45 16.506C58.9133 16.4791 58.3789 16.5925 57.8996 16.8351C57.4203 17.0777 57.0129 17.441 56.7175 17.889V16.7397H54.6875V26.0504H56.7369V20.8885C56.7369 19.2719 57.6349 18.415 59.0206 18.415C60.3674 18.415 61.0506 19.2914 61.0506 20.8692V26.0504H63.1001V20.8885C63.1001 19.2719 64.037 18.415 65.3837 18.415C66.7695 18.415 67.4331 19.2914 67.4331 20.8692V26.0504H69.4826ZM99.8144 16.7397H96.4963V13.9155H94.4469V16.7397H92.5535V18.5902H94.4469V22.8364C94.4469 24.9986 95.2862 26.2842 97.6869 26.2842C98.5838 26.2868 99.4632 26.037 100.224 25.5634L99.6388 23.8298C99.0944 24.1539 98.4766 24.3348 97.843 24.3558C96.8281 24.3558 96.4963 23.7323 96.4963 22.7975V18.5902H99.8144V16.7397ZM117.127 16.506C116.632 16.4914 116.143 16.6104 115.71 16.8504C115.277 17.0904 114.917 17.4424 114.668 17.8695V16.7397H112.658V26.0504H114.688V20.8301C114.688 19.2914 115.351 18.4343 116.679 18.4343C117.113 18.4284 117.544 18.5078 117.947 18.6681L118.572 16.7593C118.108 16.5936 117.62 16.508 117.127 16.506ZM90.953 17.48C89.804 16.7981 88.4829 16.46 87.1469 16.506C84.7851 16.506 83.2627 17.6357 83.2627 19.4861C83.2627 21.0055 84.3948 21.9405 86.4831 22.2327L87.4397 22.369C88.5521 22.5247 89.0792 22.8169 89.0792 23.3429C89.0792 24.0636 88.3374 24.4726 86.9517 24.4726C85.837 24.5046 84.7439 24.1615 83.8481 23.4987L82.8918 25.0763C84.0742 25.9005 85.4905 26.3239 86.9322 26.2842C89.6256 26.2842 91.1871 25.0179 91.1871 23.2454C91.1871 21.6092 89.9576 20.7522 87.9276 20.46L86.9712 20.3237C86.0929 20.2068 85.3903 20.0316 85.3903 19.4084C85.3903 18.7265 86.0537 18.3175 87.1664 18.3175C88.1881 18.3329 89.189 18.6077 90.0747 19.1162L90.953 17.48ZM145.332 16.506C144.837 16.4914 144.347 16.6104 143.914 16.8504C143.482 17.0903 143.122 17.4424 142.872 17.8695V16.7397H140.862V26.0504H142.892V20.8301C142.892 19.2914 143.556 18.4343 144.883 18.4343C145.317 18.4284 145.748 18.5078 146.152 18.6681L146.776 16.7593C146.313 16.5936 145.824 16.508 145.332 16.506ZM119.177 21.395C119.177 24.2194 121.148 26.2842 124.154 26.2842C125.373 26.3452 126.57 25.9491 127.511 25.1738L126.535 23.5376C125.834 24.0715 124.978 24.3652 124.096 24.3751C122.476 24.3558 121.285 23.187 121.285 21.395C121.285 19.6031 122.476 18.4343 124.096 18.415C124.978 18.4249 125.834 18.7186 126.535 19.2525L127.511 17.6163C126.57 16.841 125.373 16.4449 124.154 16.506C121.148 16.506 119.177 18.5707 119.177 21.395ZM138.188 21.395V16.7397H136.158V17.8695C135.812 17.4239 135.363 17.0676 134.85 16.8304C134.338 16.5932 133.775 16.4819 133.211 16.506C130.595 16.506 128.546 18.5513 128.546 21.395C128.546 24.2388 130.595 26.2842 133.211 26.2842C133.775 26.3082 134.338 26.197 134.85 25.9598C135.363 25.7225 135.812 25.3662 136.158 24.9206V26.0504H138.188V21.395ZM130.634 21.395C130.634 19.7588 131.708 18.415 133.465 18.415C135.143 18.415 136.275 19.7004 136.275 21.395C136.275 23.0896 135.143 24.3751 133.465 24.3751C131.708 24.3751 130.634 23.0311 130.634 21.395ZM106.139 16.506C103.406 16.506 101.493 18.4927 101.493 21.395C101.493 24.3558 103.484 26.2842 106.275 26.2842C107.668 26.3329 109.03 25.8683 110.101 24.979L109.105 23.4792C108.334 24.0956 107.38 24.4383 106.392 24.4531C105.084 24.4531 103.894 23.8493 103.601 22.1741H110.53C110.55 21.9209 110.569 21.6678 110.569 21.395C110.55 18.4927 108.754 16.506 106.139 16.506ZM106.099 18.3175C107.407 18.3175 108.247 19.1355 108.461 20.577H103.621C103.835 19.233 104.655 18.3175 106.099 18.3175ZM157.023 21.395V13H154.993V17.8695C154.647 17.4239 154.199 17.0676 153.686 16.8304C153.173 16.5932 152.611 16.4819 152.046 16.506C149.431 16.506 147.381 18.5513 147.381 21.395C147.381 24.2388 149.431 26.2842 152.046 26.2842C152.611 26.3082 153.173 26.1969 153.686 25.9597C154.199 25.7225 154.647 25.3662 154.993 24.9206V26.0504H157.023V21.395ZM159.396 25.1912C159.476 25.1906 159.556 25.2064 159.63 25.2375C159.702 25.2673 159.767 25.3102 159.822 25.3642C159.877 25.4181 159.92 25.4821 159.951 25.5525C159.982 25.6249 159.998 25.7029 159.998 25.7817C159.998 25.8605 159.982 25.9385 159.951 26.0109C159.92 26.081 159.876 26.1447 159.822 26.1984C159.766 26.2524 159.701 26.2956 159.63 26.3258C159.556 26.3575 159.476 26.3735 159.396 26.3729C159.277 26.3741 159.161 26.3404 159.061 26.2761C158.962 26.2117 158.884 26.1194 158.836 26.0109C158.805 25.9384 158.789 25.8605 158.789 25.7817C158.789 25.7029 158.805 25.625 158.836 25.5525C158.898 25.4095 159.013 25.2963 159.157 25.2375C159.233 25.2063 159.314 25.1906 159.396 25.1912ZM159.396 26.2426C159.457 26.2431 159.518 26.2307 159.574 26.2064C159.628 26.1829 159.678 26.1495 159.719 26.1079C159.805 26.0211 159.854 25.904 159.854 25.782C159.854 25.6599 159.805 25.5428 159.719 25.4561C159.678 25.4146 159.629 25.3814 159.574 25.3584C159.518 25.3345 159.457 25.3224 159.396 25.3229C159.333 25.3225 159.271 25.3345 159.214 25.3584C159.144 25.388 159.083 25.434 159.035 25.4925C158.988 25.551 158.956 25.6203 158.941 25.6942C158.926 25.7681 158.93 25.8445 158.952 25.9166C158.974 25.9887 159.013 26.0544 159.066 26.1079C159.109 26.1498 159.159 26.1833 159.214 26.2064C159.271 26.2307 159.333 26.243 159.396 26.2426ZM159.431 25.5054C159.489 25.5016 159.547 25.5183 159.594 25.5525C159.613 25.568 159.628 25.5876 159.638 25.6098C159.648 25.6321 159.652 25.6563 159.651 25.6806C159.652 25.7015 159.648 25.7222 159.64 25.7416C159.632 25.7609 159.621 25.7784 159.606 25.7928C159.569 25.8247 159.524 25.8439 159.476 25.8472L159.656 26.0542H159.515L159.348 25.8486H159.294V26.0542H159.177V25.5054H159.431ZM159.294 25.6083V25.7545H159.429C159.455 25.7559 159.481 25.7495 159.503 25.7364C159.512 25.7303 159.52 25.722 159.524 25.7122C159.529 25.7024 159.531 25.6915 159.531 25.6806C159.531 25.67 159.529 25.6593 159.524 25.6498C159.519 25.6403 159.512 25.6322 159.503 25.6263C159.481 25.6133 159.455 25.607 159.429 25.6083H159.294ZM149.47 21.395C149.47 19.7588 150.543 18.415 152.3 18.415C153.978 18.415 155.11 19.7004 155.11 21.395C155.11 23.0896 153.978 24.3751 152.3 24.3751C150.543 24.3751 149.47 23.0311 149.47 21.395ZM80.9205 21.395V16.7397H78.8905V17.8695C78.544 17.4239 78.0956 17.0676 77.5828 16.8304C77.0701 16.5931 76.5078 16.4819 75.9432 16.506C73.3277 16.506 71.2783 18.5513 71.2783 21.395C71.2783 24.2388 73.3277 26.2842 75.9432 26.2842C76.5078 26.3082 77.0701 26.197 77.5828 25.9598C78.0956 25.7225 78.544 25.3662 78.8905 24.9206V26.0504H80.9205V21.395ZM73.3668 21.395C73.3668 19.7588 74.4404 18.415 76.197 18.415C77.8755 18.415 79.0076 19.7004 79.0076 21.395C79.0076 23.0896 77.8755 24.3751 76.197 24.3751C74.4404 24.3751 73.3668 23.0311 73.3668 21.395Z" fill="#A8AEB2"/> <path d="M28.8223 8.99243H16.5469V31.006H28.8223V8.99243Z" fill="#D1D4D7"/> <path d="M17.3403 20C17.3383 17.8799 17.8198 15.7872 18.7481 13.8803C19.6764 11.9733 21.0273 10.3021 22.6986 8.9932C20.629 7.36984 18.1435 6.3603 15.5262 6.07996C12.9088 5.79962 10.2653 6.25979 7.89762 7.40788C5.52997 8.55598 3.53378 10.3457 2.1372 12.5724C0.740618 14.7992 0 17.3731 0 20C0 22.6269 0.740618 25.2008 2.1372 27.4276C3.53378 29.6543 5.52997 31.444 7.89762 32.5921C10.2653 33.7402 12.9088 34.2004 15.5262 33.92C18.1435 33.6397 20.629 32.6301 22.6986 31.0068C21.0273 29.6978 19.6764 28.0267 18.7481 26.1197C17.8198 24.2128 17.3384 22.1201 17.3403 20Z" fill="#A8AEB2"/> <path d="M45.3893 20C45.3894 22.6269 44.6488 25.2008 43.2523 27.4275C41.8558 29.6543 39.8597 31.444 37.4921 32.5921C35.1245 33.7402 32.481 34.2004 29.8637 33.92C27.2464 33.6397 24.7609 32.6301 22.6914 31.0068C24.3612 29.6965 25.711 28.0251 26.6392 26.1184C27.5674 24.2118 28.0496 22.1197 28.0496 20C28.0496 17.8803 27.5674 15.7882 26.6392 13.8816C25.711 11.9749 24.3612 10.3035 22.6914 8.99321C24.7609 7.36985 27.2464 6.36029 29.8637 6.07995C32.481 5.79962 35.1245 6.25981 37.4921 7.40792C39.8597 8.55603 41.8558 10.3457 43.2523 12.5725C44.6488 14.7992 45.3894 17.3731 45.3893 20Z" fill="#E8E9EA"/> <path d="M44.0121 28.6753V28.2242H44.1942V28.1322H43.7305V28.2242H43.9127V28.6753H44.0121ZM44.9125 28.6753V28.1313H44.7704L44.6069 28.5055L44.4433 28.1313H44.3011V28.6753H44.4014V28.265L44.5548 28.6187H44.6589L44.8122 28.2641V28.6753H44.9125Z" fill="#F79E1B"/> </svg>
