<svg width="193" height="157" viewBox="0 0 193 157" fill="none" xmlns="http://www.w3.org/2000/svg"> <g clip-path="url(#clip0)"> <path d="M1.35938 131.221C1.35938 131.221 32.3327 92.3763 49.6607 79.607C66.9887 66.8377 68.5636 58.7839 72.9489 57.904C77.3342 57.024 78.9012 61.5777 75.925 66.8259C72.9489 72.0741 71.1885 73.4749 71.374 74.6982C71.5595 75.9214 73.6475 75.5742 78.9012 71.7229C84.1549 67.8716 85.8127 61.0687 90.4506 62.1893C95.0885 63.31 94.299 70.4128 90.5374 74.2602C86.7758 78.1075 83.2747 80.996 83.6259 82.7481C83.9772 84.5001 90.2769 82.3969 94.2832 79.4216C98.2896 76.4463 98.6607 72.7765 102.687 74.1734C106.713 75.5703 108.461 82.3968 91.3111 92.546C78.5341 100.943 80.9853 103.2 86.0613 105.142C91.1374 107.083 94.4609 110.043 93.2333 113.034C92.0058 116.025 88.3349 116.191 82.9076 114.083C77.4802 111.976 71.1845 111.112 66.4598 116.187C61.735 121.261 46.3293 136.481 44.5807 156.602C6.52225 160.788 1.35938 131.221 1.35938 131.221Z" fill="#FBBD3F"/> <path d="M34.8036 93.0589C18.7821 109.372 1.35938 131.221 1.35938 131.221C1.35938 131.221 6.52226 160.788 44.5847 156.59C46.1083 139.089 57.9576 125.294 64.127 118.661C64.127 118.661 56.6629 104.625 49.5739 98.5873C42.4848 92.5499 34.8036 93.0589 34.8036 93.0589Z" fill="#D7E9FF"/> <path d="M131.046 69.9825L129.207 39.105L192.997 0L158.874 50.9154L131.046 69.9825Z" fill="#78B6FF"/> <path d="M131.043 69.9825L138.918 41.8159L192.994 0L158.87 50.9154L131.043 69.9825Z" fill="#327ACF"/> <path d="M138.918 41.8121L162.996 78.0405C163.325 78.5376 163.787 78.9315 164.331 79.1766C164.874 79.4217 165.476 79.5079 166.067 79.4254C166.657 79.3428 167.212 79.0948 167.668 78.7101C168.123 78.3253 168.46 77.8196 168.64 77.2513L192.998 -0.015625L138.918 41.8121Z" fill="#D7E9FF"/> <path d="M91.9222 33.5452L129.207 39.1012L193.001 -0.015625L91.5591 27.3618C88.2632 28.2694 88.5395 33.0401 91.9222 33.5452Z" fill="#D7E9FF"/> <path d="M137.596 132.132L136.648 116.21L169.544 96.042L151.944 122.299L137.596 132.132Z" fill="#78B6FF"/> <path d="M137.598 132.132L141.659 117.607L169.546 96.042L151.946 122.299L137.598 132.132Z" fill="#327ACF"/> <path d="M141.66 117.603L154.078 136.287C154.246 136.544 154.484 136.748 154.763 136.875C155.043 137.003 155.353 137.048 155.657 137.007C155.961 136.966 156.248 136.839 156.483 136.642C156.719 136.445 156.893 136.185 156.987 135.892L169.547 96.0376L141.66 117.603Z" fill="#D7E9FF"/> <path d="M117.41 113.341L136.64 116.206L169.536 96.042L117.24 110.157C116.879 110.253 116.562 110.471 116.342 110.774C116.123 111.076 116.014 111.445 116.034 111.818C116.053 112.191 116.201 112.546 116.452 112.823C116.702 113.101 117.04 113.284 117.41 113.341Z" fill="#D7E9FF"/> <path d="M24.7808 61.0688L23.6914 42.7711L61.4972 19.5962L41.272 49.7674L24.7808 61.0688Z" fill="#78B6FF"/> <path d="M24.7812 61.0688L29.4468 44.3771L61.4977 19.5962L41.2725 49.7674L24.7812 61.0688Z" fill="#327ACF"/> <path d="M29.4492 44.3771L43.7221 65.8434C43.9172 66.1377 44.1917 66.3707 44.5137 66.5155C44.8357 66.6604 45.1921 66.7112 45.5418 66.6621C45.8915 66.613 46.2201 66.466 46.4897 66.238C46.7593 66.01 46.9589 65.7104 47.0654 65.3738L61.5001 19.6001L29.4492 44.3771Z" fill="#D7E9FF"/> <path d="M1.59371 39.4762L23.6978 42.7672L61.5036 19.5962L1.3924 35.8183C0.976224 35.9284 0.610757 36.1786 0.357622 36.5267C0.104487 36.8748 -0.020822 37.2995 0.00282649 37.7292C0.026475 38.1589 0.197633 38.5674 0.487439 38.8856C0.777245 39.2038 1.16797 39.4124 1.59371 39.4762Z" fill="#D7E9FF"/> </g> <defs> <clipPath id="clip0"> <rect width="193" height="157" fill="white"/> </clipPath> </defs> </svg>
