<svg width="193" height="172" viewBox="0 0 193 172" fill="none" xmlns="http://www.w3.org/2000/svg"> <g clip-path="url(#clip0)"> <path d="M49.3862 19.4007C45.9426 13.9849 46.0785 11.4905 50.5255 8.58624C54.9724 5.68195 59.251 2.87448 63.8157 1.17304C68.3803 -0.528405 70.0559 -1.83851 72.7726 4.44851C75.4894 10.7355 81.1963 25.5737 84.3626 29.6416C87.5289 33.7096 90.3116 37.0843 85.2149 40.6956C80.1182 44.3069 77.0609 46.4119 72.6365 48.7382C68.2122 51.0645 67.3016 51.1144 63.7711 46.2198C60.2407 41.3251 53.3031 25.5702 49.3862 19.4007Z" fill="#327ACF"/> <path d="M2.95107 60.0761C2.95107 60.0761 40.7937 44.3118 53.2932 30.5398C65.7927 16.7679 66.4278 15.7699 68.605 17.2304C70.7822 18.6909 67.2122 25.7069 63.2329 30.4225C70.6052 24.2759 70.053 20.3237 72.6853 21.1735C75.3177 22.0234 74.2748 28.109 68.548 35.5012C74.6255 29.8131 73.5428 26.0488 76.2893 26.8929C79.0357 27.737 79.6561 43.8894 53.4818 65.4104C27.3074 86.9314 9.24575 91.312 9.24575 91.312C9.24575 91.312 -4.01846 80.5945 2.95107 60.0761Z" fill="#FBBD3F"/> <path d="M45.834 37.06C29.9026 48.8409 2.9479 60.0762 2.9479 60.0762C-4.02163 80.5946 9.24257 91.312 9.24257 91.312C9.24257 91.312 27.3011 86.9307 53.4724 65.4088C56.9664 62.5569 60.2843 59.4972 63.4081 56.2464C61.3812 52.718 59.1179 49.3298 56.6336 46.1048C52.9656 41.4636 45.834 37.06 45.834 37.06Z" fill="#D7E9FF"/> <path d="M12.0426 147.166C12.0426 147.166 31.8965 123.149 41.6624 106.766C51.4284 90.3827 57.9447 88.6819 64.8523 90.6051C71.7599 92.5282 72.6944 104.697 67.1113 118.788C61.5283 132.878 44.1882 164.279 40.1657 170.602C14.0984 165.135 12.0426 147.166 12.0426 147.166Z" fill="#FBBD3F"/> <path d="M58.5877 75.3541C59.1396 71.3588 58.4178 64.6162 65.9053 65.8352C73.3927 67.0543 76.6225 68.214 82.738 69.2406C88.8535 70.2673 88.0519 74.4606 86.8661 79.9102C85.6803 85.3598 83.0898 98.998 81.8352 107.094C80.5805 115.19 80.9133 114.895 72.4716 113.615C64.03 112.336 62.3589 111.808 56.987 110.829C51.615 109.849 51.2965 109.618 53.2524 100.823C55.2084 92.0271 57.0061 86.8303 58.5877 75.3541Z" fill="#78B6FF"/> <path d="M52.8584 115.14C52.8584 115.14 59.6711 108.776 62.6844 104.72C65.6977 100.664 69.4031 99.8354 70.9944 101.415C72.5858 102.995 72.2369 112.116 62.9903 120.024C53.7437 127.932 52.8584 115.14 52.8584 115.14Z" fill="#FBBD3F"/> <path d="M67.5805 82.5104C67.5805 82.5104 68.3187 77.6008 72.7812 78.8739C77.2437 80.147 77.0828 87.2168 70.4396 87.7886C76.2324 88.2966 76.2998 92.8325 74.1656 95.105C72.0314 97.3776 68.8244 96.4652 66.8437 94.3564" stroke="white" stroke-width="1.91957" stroke-linecap="round" stroke-linejoin="round"/> <path d="M58.4818 137.213C51.4035 151.135 42.8489 166.406 40.1719 170.615C14.0962 165.129 12.0401 147.166 12.0401 147.166C12.0401 147.166 22.8902 134.042 32.4959 120.584C32.4959 120.584 35.1057 127.919 43.4878 131.848C51.87 135.778 58.4818 137.213 58.4818 137.213Z" fill="#D7E9FF"/> <path d="M156.421 167.292C156.421 167.292 130.347 145.39 122.96 110.768C117.844 87.4514 131.184 87.308 141.826 101.299C152.468 115.291 163.094 126.876 182.235 134.79C182.085 160.65 156.421 167.292 156.421 167.292Z" fill="#FBBD3F"/> <path d="M100.842 87.0281C96.5031 80.4117 97.1586 78.6906 101.127 76.0039C104.83 73.4652 108.771 71.2889 112.894 69.5053C116.866 67.8098 117.291 66.2545 121.26 71.4814C125.228 76.7082 136.573 92.3984 140.826 96.7775C145.079 101.157 145.079 103.843 140.542 105.963C136.004 108.082 128.633 113.029 124.521 116.136C120.409 119.244 118.836 120.952 116.015 114.16C113.195 107.368 103.253 90.7029 100.842 87.0281Z" fill="#78B6FF"/> <path d="M141.959 112.745C141.959 112.745 133.169 112.04 129.488 101.16C125.808 90.2787 132.75 92.3982 136.152 96.637C139.555 100.876 144.786 106.951 146.359 108.225C147.933 109.5 141.959 112.745 141.959 112.745Z" fill="#FBBD3F"/> <path d="M116.973 79.4995C115.489 80.3393 114.068 81.284 112.72 82.3265C110.309 84.1655 112.72 85.5423 113.286 87.3781C113.852 89.2139 114.277 90.9126 115.412 91.2026C116.547 91.4926 116.403 86.6801 120.528 87.6713C124.653 88.6625 126.342 97.5513 118.402 97.4207" stroke="white" stroke-width="1.91957" stroke-linecap="round" stroke-linejoin="round"/> <path d="M131.602 134.797C142.026 155.194 156.422 167.305 156.422 167.305C156.422 167.305 182.087 160.663 182.227 134.797C171.314 130.287 163.166 124.579 156.208 117.905C153.302 121.952 149.621 125.386 145.377 128.008C141.006 130.691 136.394 132.963 131.602 134.797Z" fill="#D7E9FF"/> <path d="M109.181 46.6041C112.238 51.8661 114.71 53.6668 118.962 50.6996C123.215 47.7324 133.851 43.6337 138.388 42.0943C142.926 40.555 143.505 37.5718 139.524 31.9179C135.542 26.2639 127.328 12.1354 126.336 7.47268C125.345 2.80992 124.635 -1.02737 117.971 0.247477C111.307 1.52232 105.638 3.50153 99.9778 7.45993C94.3179 11.4183 95.7249 13.678 98.2766 22.1557C100.828 30.6335 104.503 38.5471 109.181 46.6041Z" fill="#327ACF"/> <path d="M188.722 52.6788C188.722 52.6788 160.224 58.6132 143.919 43.2099C127.614 27.8065 127.189 29.5053 126.053 30.4933C124.918 31.4813 126.658 36.2301 132.449 43.6338C124.755 35.6851 123.515 30.2096 120.963 30.4933C118.411 30.7769 119.262 36.995 126.917 46.8846C119.546 38.4069 118.836 33.0366 116.285 33.0366C113.733 33.0366 111.606 40.9502 124.509 57.485C137.412 74.0198 167.892 91.6828 188.025 88.7188C198.363 79.1032 188.722 52.6788 188.722 52.6788Z" fill="#FBBD3F"/> <path d="M135.629 68.6266C150.658 80.9512 172.437 91.0097 188.013 88.7054C198.364 79.0931 188.723 52.6687 188.723 52.6687C188.723 52.6687 168.162 56.9777 151.975 48.8091C151.975 48.8091 149.417 54.9762 145.801 59.1099C142.184 63.2435 135.629 68.6266 135.629 68.6266Z" fill="#D7E9FF"/> </g> <defs> <clipPath id="clip0"> <rect width="193" height="172" fill="white"/> </clipPath> </defs> </svg>
