<svg width="193" height="166" viewBox="0 0 193 166" fill="none" xmlns="http://www.w3.org/2000/svg"> <g clip-path="url(#clip0)"> <path d="M5.18796 48.9998C5.18796 48.9998 0.269302 52.9323 0.0104252 59.3224C-0.248451 65.7126 1.48972 74.8894 2.22937 80.5441C2.96902 86.1988 7.31075 89.8836 16.6525 87.9358C25.9943 85.9881 109.955 66.7142 123.48 64.504C137.004 62.2939 143.898 55.9001 145.617 52.2116C144.878 41.3975 137.481 31.5664 137.481 31.5664L5.18796 48.9998Z" fill="#327ACF"/> <path d="M6.41818 74.5531C4.47291 64.8367 4.45072 57.8367 4.19924 53.1651C3.94776 48.4935 5.67852 46.7749 11.3331 45.3003C16.9877 43.8256 111.925 26.8653 124.477 24.6515C137.029 22.4376 139.725 21.4582 141.692 25.3906C143.66 29.323 146.13 39.8932 146.611 45.5479C147.092 51.2026 147.595 53.4127 139.233 54.8874C130.871 56.362 59.5397 71.6038 40.8599 74.797C22.1801 77.9903 20.1978 78.9771 14.7873 79.9713C9.37677 80.9654 7.15413 78.249 6.41818 74.5531Z" fill="#78B6FF"/> <path d="M191.626 116.963C191.626 116.963 148.091 109.941 127.432 89.6804C106.774 69.4197 96.0713 45.4335 90.535 45.803C84.9987 46.1726 91.6445 63.8722 97.5616 71.2454C90.1652 66.4408 86.8626 72.3911 89.7953 78.6593C82.0475 77.5506 80.3241 84.5986 84.8767 89.6398C77.0475 89.3515 74.7102 95.701 90.1652 113.153C90.1652 113.153 131.116 160.597 178.834 166.004" fill="#FBBD3F"/> <path d="M178.837 166.004C151.407 162.896 126.211 145.895 109.747 132.002C109.747 132.002 107.753 116.11 115.379 104.793C123.005 93.4762 129.802 91.8574 129.802 91.8574C151.252 110.466 191.64 116.967 191.64 116.967C191.64 116.967 194.969 123.989 191.271 141.304C187.572 158.62 178.837 166.004 178.837 166.004Z" fill="#D7E9FF"/> <path d="M74.1379 22.8629C76.845 22.7705 76.845 13.8412 76.845 8.4268C76.845 3.01235 77.4996 -0.443302 72.4589 0.0519448C69.3191 0.36979 68.0765 2.81647 69.3006 8.70399C70.6135 14.9944 71.4345 22.9553 74.1379 22.8629Z" fill="#327ACF"/> <path d="M52.4855 29.6484C56.3502 27.697 51.0469 19.6696 48.4544 14.5434C45.862 9.41722 44.8967 5.79527 39.7599 8.99959C36.5609 10.9991 36.4056 13.9816 40.5365 18.8823C44.9522 24.1231 48.6209 31.5998 52.4855 29.6484Z" fill="#327ACF"/> <path d="M91.2973 21.6615C93.4275 22.8959 97.2145 16.7904 99.5111 13.0871C101.808 9.38384 103.786 7.32894 99.6775 5.26295C97.1183 3.97679 95.1213 5.05228 93.5717 9.66842C91.9112 14.5987 89.1671 20.4308 91.2973 21.6615Z" fill="#327ACF"/> <path d="M51.9222 87.7071C53.69 84.1665 54.4629 83.7747 56.5931 84.6728C58.7233 85.5709 59.0524 85.7409 57.8246 88.4426C56.5968 91.1443 53.7232 98.1923 52.0036 101.962C50.2839 105.732 48.0686 104.667 46.6744 103.518C45.2802 102.369 43.1463 101.552 45.0324 98.6838C46.9185 95.8159 51.1012 89.3444 51.9222 87.7071Z" fill="#327ACF"/> <path d="M71.4338 90.1207C71.1379 86.7944 71.5152 86.1809 73.4419 85.8852C75.3687 85.5896 75.6609 85.56 75.99 88.0436C76.3192 90.5272 77.3658 96.8435 77.7985 100.307C78.2312 103.77 76.1712 104.002 74.6661 103.777C73.1609 103.552 71.2711 103.925 71.3376 101.035C71.4042 98.1444 71.5706 91.6582 71.4338 90.1207Z" fill="#327ACF"/> </g> <defs> <clipPath id="clip0"> <rect width="193" height="166" fill="white"/> </clipPath> </defs> </svg>
